<svg id="레이어_3" data-name="레이어 3" xmlns="http://www.w3.org/2000/svg" xmlns:xlink="http://www.w3.org/1999/xlink" viewBox="0 0 3408.27 1859.08"><defs><style>.cls-1{fill:#fff;}.cls-2{fill:url(#무제_그라디언트_123);}.cls-3{fill:url(#무제_그라디언트_128);}.cls-4{fill:url(#무제_그라디언트_123-2);}.cls-5{fill:url(#무제_그라디언트_128-2);}.cls-6{fill:url(#무제_그라디언트_123-3);}.cls-7{fill:url(#무제_그라디언트_128-3);}.cls-8{fill:url(#무제_그라디언트_164);}.cls-9{fill:url(#무제_그라디언트_150);}.cls-10{fill:url(#무제_그라디언트_189);}.cls-11{fill:url(#무제_그라디언트_185);}.cls-12{fill:url(#무제_그라디언트_194);}.cls-13{fill:url(#무제_그라디언트_185-2);}.cls-14{fill:url(#무제_그라디언트_211);}.cls-15{fill:url(#무제_그라디언트_211-2);}.cls-16{fill:url(#무제_그라디언트_211-3);}.cls-17{fill:url(#무제_그라디언트_211-4);}.cls-18{fill:url(#무제_그라디언트_211-5);}.cls-19{fill:url(#무제_그라디언트_211-6);}.cls-20{fill:url(#무제_그라디언트_211-7);}.cls-21{fill:url(#무제_그라디언트_211-8);}.cls-22{fill:url(#무제_그라디언트_211-9);}.cls-23{fill:url(#무제_그라디언트_177);}.cls-24{fill:url(#무제_그라디언트_177-2);}.cls-25{fill:url(#무제_그라디언트_177-3);}.cls-26{fill:url(#무제_그라디언트_177-4);}.cls-27{fill:url(#무제_그라디언트_177-5);}.cls-28{fill:url(#무제_그라디언트_200);}.cls-29{fill:url(#무제_그라디언트_177-6);}.cls-30{fill:url(#무제_그라디언트_177-7);}.cls-31{fill:url(#무제_그라디언트_177-8);}.cls-32{fill:url(#무제_그라디언트_198);}.cls-33{fill:url(#무제_그라디언트_198-2);}.cls-34{fill:url(#무제_그라디언트_198-3);}.cls-35{fill:url(#무제_그라디언트_198-4);}.cls-36{fill:url(#무제_그라디언트_198-5);}.cls-37{fill:url(#무제_그라디언트_181);}.cls-38{fill:url(#무제_그라디언트_181-2);}.cls-39{fill:url(#무제_그라디언트_199);}.cls-40{fill:url(#무제_그라디언트_181-3);}.cls-41{fill:url(#무제_그라디언트_181-4);}.cls-42{fill:#1f0000;}.cls-43{fill:url(#무제_그라디언트_144);}.cls-44{fill:url(#무제_그라디언트_139);}.cls-45{fill:#bfbfbf;}.cls-46{fill:url(#무제_그라디언트_118);}.cls-47{fill:url(#무제_그라디언트_96);}.cls-48{fill:url(#무제_그라디언트_123-4);}.cls-49{fill:url(#무제_그라디언트_123-5);}.cls-50{fill:url(#무제_그라디언트_123-6);}.cls-51{fill:url(#무제_그라디언트_123-7);}.cls-52{fill:url(#무제_그라디언트_123-8);}.cls-53{fill:url(#무제_그라디언트_123-9);}.cls-54{fill:url(#무제_그라디언트_2);}.cls-55{fill:url(#무제_그라디언트_2-2);}.cls-56{fill:url(#무제_그라디언트_2-3);}.cls-57{fill:url(#무제_그라디언트_2-4);}.cls-58{fill:url(#무제_그라디언트_2-5);}.cls-59{fill:url(#무제_그라디언트_2-6);}.cls-60{fill:url(#무제_그라디언트_86);}.cls-61{fill:url(#무제_그라디언트_86-2);}.cls-62{fill:url(#무제_그라디언트_86-3);}.cls-63{fill:url(#무제_그라디언트_86-4);}.cls-64{fill:url(#무제_그라디언트_86-5);}.cls-65{fill:url(#무제_그라디언트_86-6);}</style><linearGradient id="무제_그라디언트_123" x1="2159.8" y1="3082.3" x2="5432.75" y2="3419.55" gradientTransform="translate(-419.83 -54.93) scale(0.5)" gradientUnits="userSpaceOnUse"><stop offset="0" stop-color="#400000"/><stop offset="1" stop-color="#890000"/></linearGradient><linearGradient id="무제_그라디언트_128" x1="2086.36" y1="3271.68" x2="4873.74" y2="3633.99" gradientTransform="translate(-414.21 -89.15) rotate(-1.97) scale(0.5)" gradientUnits="userSpaceOnUse"><stop offset="0" stop-color="#fc0a16"/><stop offset="1" stop-color="#f7970f"/></linearGradient><linearGradient id="무제_그라디언트_123-2" x1="2206.85" y1="2626.03" x2="5479.77" y2="2963.27" xlink:href="#무제_그라디언트_123"/><linearGradient id="무제_그라디언트_128-2" x1="2159.2" y1="2818.98" x2="4946.48" y2="3181.28" gradientTransform="matrix(0.5, -0.01, 0.01, 0.5, -415.25, -87.82)" xlink:href="#무제_그라디언트_128"/><linearGradient id="무제_그라디언트_123-3" x1="2141.28" y1="3261.72" x2="5414.31" y2="3598.98" xlink:href="#무제_그라디언트_123"/><linearGradient id="무제_그라디언트_128-3" x1="2066.62" y1="3423.27" x2="4853.88" y2="3785.56" xlink:href="#무제_그라디언트_128"/><linearGradient id="무제_그라디언트_164" x1="1607.93" y1="594.88" x2="1607.93" y2="68.75" gradientUnits="userSpaceOnUse"><stop offset="0" stop-color="#0b12ff"/><stop offset="1" stop-color="#00003f"/></linearGradient><linearGradient id="무제_그라디언트_150" x1="1571.98" y1="122.87" x2="1608.6" y2="546.14" gradientUnits="userSpaceOnUse"><stop offset="0" stop-color="#158dff"/><stop offset="1" stop-color="#0304fa"/></linearGradient><linearGradient id="무제_그라디언트_189" x1="1020.16" y1="826.51" x2="992.13" y2="1146.89" gradientUnits="userSpaceOnUse"><stop offset="0" stop-color="#faed16"/><stop offset="1" stop-color="#fbab09"/></linearGradient><linearGradient id="무제_그라디언트_185" x1="1025.2" y1="1077.21" x2="1025.2" y2="904.92" gradientUnits="userSpaceOnUse"><stop offset="0" stop-color="#f7fa16"/><stop offset="1" stop-color="#fbab09"/></linearGradient><linearGradient id="무제_그라디언트_194" x1="1044.29" y1="558.84" x2="1061.58" y2="889.46" xlink:href="#무제_그라디언트_189"/><linearGradient id="무제_그라디언트_185-2" x1="1069.61" y1="920.6" x2="1069.6" y2="574.87" xlink:href="#무제_그라디언트_185"/><linearGradient id="무제_그라디언트_211" x1="1500.08" y1="1077.21" x2="1474.58" y2="932.6" gradientUnits="userSpaceOnUse"><stop offset="0"/><stop offset="1" stop-color="#00007f"/></linearGradient><linearGradient id="무제_그라디언트_211-2" x1="417.65" y1="1080.19" x2="393.38" y2="942.51" xlink:href="#무제_그라디언트_211"/><linearGradient id="무제_그라디언트_211-3" x1="579.89" y1="1072.04" x2="555.34" y2="932.81" xlink:href="#무제_그라디언트_211"/><linearGradient id="무제_그라디언트_211-4" x1="737.41" y1="1048.69" x2="713.12" y2="910.96" xlink:href="#무제_그라디언트_211"/><linearGradient id="무제_그라디언트_211-5" x1="873.61" y1="1059.26" x2="848.09" y2="914.55" xlink:href="#무제_그라디언트_211"/><linearGradient id="무제_그라디언트_211-6" x1="1028.83" y1="1059.02" x2="1003.4" y2="914.8" xlink:href="#무제_그라디언트_211"/><linearGradient id="무제_그라디언트_211-7" x1="1186.12" y1="1047.95" x2="1162.25" y2="912.59" xlink:href="#무제_그라디언트_211"/><linearGradient id="무제_그라디언트_211-8" x1="1344.24" y1="1071.72" x2="1319.41" y2="930.92" xlink:href="#무제_그라디언트_211"/><linearGradient id="무제_그라디언트_211-9" x1="1641.44" y1="1057.14" x2="1616.33" y2="914.74" xlink:href="#무제_그라디언트_211"/><linearGradient id="무제_그라디언트_177" x1="1488.76" y1="946.44" x2="1488.76" y2="1056.41" xlink:href="#무제_그라디언트_211"/><linearGradient id="무제_그라디언트_177-2" x1="414.2" y1="946.44" x2="414.2" y2="1056.41" xlink:href="#무제_그라디언트_211"/><linearGradient id="무제_그라디언트_177-3" x1="569.46" y1="946.44" x2="569.46" y2="1056.41" xlink:href="#무제_그라디언트_211"/><linearGradient id="무제_그라디언트_177-4" x1="732.99" y1="946.44" x2="732.99" y2="1056.41" xlink:href="#무제_그라디언트_211"/><linearGradient id="무제_그라디언트_177-5" x1="877.43" y1="946.44" x2="877.43" y2="1056.41" xlink:href="#무제_그라디언트_211"/><linearGradient id="무제_그라디언트_200" x1="1032.74" y1="946.44" x2="1032.74" y2="1056.41" xlink:href="#무제_그라디언트_211"/><linearGradient id="무제_그라디언트_177-6" x1="1184.49" y1="946.82" x2="1184.49" y2="1056.41" xlink:href="#무제_그라디언트_211"/><linearGradient id="무제_그라디언트_177-7" x1="1330.38" y1="946.44" x2="1330.38" y2="1056.41" xlink:href="#무제_그라디언트_211"/><linearGradient id="무제_그라디언트_177-8" x1="1645.31" y1="946.44" x2="1645.31" y2="1056.41" xlink:href="#무제_그라디언트_211"/><linearGradient id="무제_그라디언트_198" x1="1593.9" y1="921.5" x2="1540.15" y2="616.66" gradientUnits="userSpaceOnUse"><stop offset="0" stop-color="#0b12ff"/><stop offset="1"/></linearGradient><linearGradient id="무제_그라디언트_198-2" x1="596.15" y1="925.86" x2="542.58" y2="622.03" xlink:href="#무제_그라디언트_198"/><linearGradient id="무제_그라디언트_198-3" x1="1143.7" y1="930.13" x2="1082.85" y2="585.03" xlink:href="#무제_그라디언트_198"/><linearGradient id="무제_그라디언트_198-4" x1="1366.64" y1="907.08" x2="1312.65" y2="600.91" xlink:href="#무제_그라디언트_198"/><linearGradient id="무제_그라디언트_198-5" x1="863.79" y1="923.09" x2="808.92" y2="611.92" xlink:href="#무제_그라디언트_198"/><linearGradient id="무제_그라디언트_181" x1="1534.18" y1="515.74" x2="1562.6" y2="774.7" xlink:href="#무제_그라디언트_164"/><linearGradient id="무제_그라디언트_181-2" x1="551.09" y1="620.3" x2="579.51" y2="879.27" xlink:href="#무제_그라디언트_164"/><linearGradient id="무제_그라디언트_199" x1="1104.86" y1="561.36" x2="1133.24" y2="819.98" xlink:href="#무제_그라디언트_164"/><linearGradient id="무제_그라디언트_181-3" x1="1329.3" y1="538.56" x2="1357.63" y2="796.71" xlink:href="#무제_그라디언트_164"/><linearGradient id="무제_그라디언트_181-4" x1="815.39" y1="592.02" x2="843.81" y2="851.07" xlink:href="#무제_그라디언트_164"/><linearGradient id="무제_그라디언트_144" x1="1916.42" y1="665.65" x2="2201.43" y2="1233.27" gradientUnits="userSpaceOnUse"><stop offset="0"/><stop offset="1" stop-color="#fa6516"/></linearGradient><linearGradient id="무제_그라디언트_139" x1="2022.47" y1="1038.54" x2="2022.47" y2="629.3" gradientUnits="userSpaceOnUse"><stop offset="0" stop-color="#fc0a16"/><stop offset="1" stop-color="#fbca0e"/></linearGradient><linearGradient id="무제_그라디언트_118" x1="7239.3" y1="4481.76" x2="7239.3" y2="3465.34" gradientTransform="matrix(0.45, 0, -0.23, 0.36, -517.75, -137.48)" gradientUnits="userSpaceOnUse"><stop offset="0" stop-color="#a6a6a6"/><stop offset="0.75" stop-color="#7f7f7f"/><stop offset="1" stop-color="#999"/></linearGradient><linearGradient id="무제_그라디언트_96" x1="5442.45" y1="4336.35" x2="5442.45" y2="3373.07" gradientTransform="matrix(0.46, 0, -0.05, 0.37, -449.49, -134.12)" gradientUnits="userSpaceOnUse"><stop offset="0" stop-color="#e6e6e6"/><stop offset="0.75" stop-color="#ebebeb"/><stop offset="1" stop-color="#ccc"/></linearGradient><linearGradient id="무제_그라디언트_123-4" x1="4190.06" y1="4200.48" x2="4190.06" y2="3523.8" gradientTransform="matrix(0.46, 0, -0.05, 0.37, -449.61, -134.32)" xlink:href="#무제_그라디언트_123"/><linearGradient id="무제_그라디언트_123-5" x1="4695.36" y1="4200.48" x2="4695.36" y2="3523.8" gradientTransform="matrix(0.46, 0, -0.05, 0.37, -449.61, -134.32)" xlink:href="#무제_그라디언트_123"/><linearGradient id="무제_그라디언트_123-6" x1="5406.85" y1="4085.97" x2="5406.85" y2="3409.3" gradientTransform="matrix(0.46, 0, -0.05, 0.37, -466.48, -151.78)" xlink:href="#무제_그라디언트_123"/><linearGradient id="무제_그라디언트_123-7" x1="5725.46" y1="4293.23" x2="5725.46" y2="3616.49" gradientTransform="matrix(0.46, 0, -0.05, 0.37, -466.48, -151.78)" xlink:href="#무제_그라디언트_123"/><linearGradient id="무제_그라디언트_123-8" x1="6160.97" y1="4085.97" x2="6160.97" y2="3409.3" gradientTransform="matrix(0.46, 0, -0.05, 0.37, -466.48, -151.78)" xlink:href="#무제_그라디언트_123"/><linearGradient id="무제_그라디언트_123-9" x1="6701.23" y1="4085.97" x2="6701.23" y2="3409.3" gradientTransform="matrix(0.46, 0, -0.05, 0.37, -466.48, -151.78)" xlink:href="#무제_그라디언트_123"/><linearGradient id="무제_그라디언트_2" x1="3437.44" y1="2444.64" x2="3437.44" y2="2931.21" gradientTransform="translate(-429.83 -69.93) scale(0.5)" gradientUnits="userSpaceOnUse"><stop offset="0" stop-color="#f7970f"/><stop offset="0.5" stop-color="#f82414"/><stop offset="0.77" stop-color="#f88c14"/><stop offset="1" stop-color="#f8e914"/></linearGradient><linearGradient id="무제_그라디언트_2-2" x1="4686.89" y1="3532.43" x2="4686.89" y2="4183.15" gradientTransform="matrix(0.46, 0, -0.05, 0.37, -449.49, -134.12)" xlink:href="#무제_그라디언트_2"/><linearGradient id="무제_그라디언트_2-3" x1="5400.1" y1="3416.5" x2="5400.1" y2="4068.8" gradientTransform="matrix(0.46, 0, -0.05, 0.37, -449.49, -134.12)" xlink:href="#무제_그라디언트_2"/><linearGradient id="무제_그라디언트_2-4" x1="5718.21" y1="3623.7" x2="5718.21" y2="4273.1" gradientTransform="matrix(0.46, 0, -0.05, 0.37, -449.49, -134.12)" xlink:href="#무제_그라디언트_2"/><linearGradient id="무제_그라디언트_2-5" x1="6154.42" y1="3419.22" x2="6154.42" y2="4068.63" gradientTransform="matrix(0.46, 0, -0.05, 0.37, -449.49, -134.12)" xlink:href="#무제_그라디언트_2"/><linearGradient id="무제_그라디언트_2-6" x1="6695" y1="3419.22" x2="6695" y2="4068.63" gradientTransform="matrix(0.46, 0, -0.05, 0.37, -449.49, -134.12)" xlink:href="#무제_그라디언트_2"/><linearGradient id="무제_그라디언트_86" x1="4183.23" y1="4183.58" x2="4183.23" y2="3534.14" gradientTransform="matrix(0.46, 0, -0.05, 0.37, -449.49, -134.12)" gradientUnits="userSpaceOnUse"><stop offset="0" stop-color="#f7970f"/><stop offset="0.2" stop-color="#fc0a16"/><stop offset="0.38" stop-color="#f90a16"/><stop offset="0.49" stop-color="#f10a15"/><stop offset="0.58" stop-color="#e30914"/><stop offset="0.66" stop-color="#ce0812"/><stop offset="0.73" stop-color="#b40710"/><stop offset="0.8" stop-color="#94060d"/><stop offset="0.87" stop-color="#6d040a"/><stop offset="0.93" stop-color="#410306"/><stop offset="0.98" stop-color="#100101"/><stop offset="1"/></linearGradient><linearGradient id="무제_그라디언트_86-2" x1="4690.63" y1="4184.61" x2="4690.63" y2="3533.88" gradientTransform="matrix(0.46, 0, -0.05, 0.37, -449.9, -134.48)" xlink:href="#무제_그라디언트_86"/><linearGradient id="무제_그라디언트_86-3" x1="5401.08" y1="4070.23" x2="5401.08" y2="3417.83" gradientTransform="matrix(0.46, 0, -0.05, 0.37, -449.9, -134.48)" xlink:href="#무제_그라디언트_86"/><linearGradient id="무제_그라디언트_86-4" x1="5719.19" y1="4274.56" x2="5719.19" y2="3625.11" gradientTransform="matrix(0.46, 0, -0.05, 0.37, -449.9, -134.48)" xlink:href="#무제_그라디언트_86"/><linearGradient id="무제_그라디언트_86-5" x1="6155.44" y1="4070.03" x2="6155.44" y2="3420.59" gradientTransform="matrix(0.46, 0, -0.05, 0.37, -449.9, -134.48)" xlink:href="#무제_그라디언트_86"/><linearGradient id="무제_그라디언트_86-6" x1="6696.04" y1="4070.03" x2="6696.04" y2="3420.59" gradientTransform="matrix(0.46, 0, -0.05, 0.37, -449.9, -134.48)" xlink:href="#무제_그라디언트_86"/></defs><title>SA2BattleLogo</title><path d="M555.91,1176h38.91c10,.32,16.87,3.23,17.49,5.75,4.27,17.45,18.78,69.52,51.06,128.45C605.86,1257.65,571.68,1204.38,555.91,1176Zm2414.85,252h201.68L2920,1381h138.56l-393.2-90.37,58-88.44L3094,1109h-98.63L3254,1056h-140.8l311.91-57h-1091c13-35.92,28.23-87.15,35.67-146a558.41,558.41,0,0,0,4.5-69.53,449.28,449.28,0,0,0-10.82-97.82c26.59,34.68,72.09,106.54,72.45,107.11,0,0,3.22-169-74.39-327.18,31.22,15.68,115.84,62.75,115.84,62.75-1.07-1.32-140.12-170.63-157.14-193.08C2226.61,211.83,2085.1,25.24,1737,17.72,1547.78,13.63,1369,58.13,1205.65,150,1096,211.64,994.53,293.44,895.48,400.07c-73.89,79.56-118.14,104.08-189.36,105h-514S342.6,634.39,351.75,642.24l-30.08,89.4,23.1,48.74c-4.09,8-118.84,233.52-120.75,237.28L16.86,1176H526c0,1-.06,2.86-.06,2.86,0,47.89,9.8,154.24,82.76,261.77-27.86-25.54-62-68.66-62.33-69,0,0,16.49,102.92,126.77,238,76.06,93.2,213.12,212.64,432,254.29,258.75,49.23,547-45.91,856.85-282.76,9-6.88,25-4.46,30.36-2.94l221.35,68.48s-51.73-141-59.7-162.7H3259.89l-289.29-56.15" transform="translate(-16.86 -17.46)"/><path class="cls-1" d="M1211.27,156c-108.8,61.29-209.52,142.66-307.9,248.77-76,82-121.91,107.31-196.3,108.21H219S343,619.68,363.93,637.63c-8,23.7-30.91,91.88-30.91,91.88L356.49,779c-10.88,21.35-123.91,243.46-123.91,243.46L46.35,1165h550c5.75.18,23.75,1.64,26.55,13,11.17,45.71,37.37,113.88,80.64,175.17C583.87,1265,537.3,1156.71,537.3,1156.71S516.23,1358.14,692.67,1521c-41-20.47-123.84-110.08-123.84-110.08s120.88,362.64,539.08,442.22c257.69,49,543.77-47.43,849.24-281,14.85-11.36,38.59-4.61,38.82-4.54l203,62.8L2141.26,1473H3168.71l-300.46-56H3072l-256.53-47h157.29l-322.1-74.61,67.59-103.09,299.56-75.3H2900.25l263-53H3004.37l324.6-56H2321.47c13.61-35.35,31.68-91.39,40-157.08a546.07,546.07,0,0,0,4.43-68.46c0-49.13-7.61-95-21.8-137.34,33,33.93,81.89,110.61,81.89,110.61s-7.28-175.27-85.17-312.72c28.83,12,97.88,50.74,97.88,50.74s-107.6-131.71-124.93-154.6c-92.54-122.24-232.4-307-575.92-314.42C1550.3,20.69,1373.15,64.86,1211.27,156Z" transform="translate(-16.86 -17.46)"/><path d="M2746.38,1084l325.69-48H2278.83s163.45-325-55.91-525.67c36.2,17.85,106.7,69,161.1,144.37-18.83-115.08-78.07-229-112.86-258.18,19.08,6,47.74,10.58,70,24.19-96.61-107.38-209.46-357.47-604.91-366-416.37-9-678.93,225.53-813.64,370.55C848,505.55,796.18,540.93,706.57,542H291.83L394.7,630.45l-33.25,98.84L386,781,253.17,1041.84,127.53,1139H595.85c11,.3,45.21,3.69,52.6,33.93,18.17,74.31,80.84,220.56,200.35,274.3-147.28-16-274.57-175.62-274.57-175.62s74,427.76,683.76,381.47c-349.06,93.86-595.73-119-595.73-119s419.42,673.52,1277.28,17.66c27.09-20.71,63.64-8.91,63.64-8.91l150.1,46.43-44.58-121.5s-2.32-8.42,2.12-15c3.17-4.73,8.9-5.62,12-5.76h798.75l-380.18-48H2853l-278.66-48h210L2607.69,1310l86.3-131.41L2880.07,1132H2715.62l260.55-48Z" transform="translate(-16.86 -17.46)"/><path class="cls-2" d="M648.91,1393.88S828.28,1722.05,1420,1595.3l-115-18.58L1259,1549.3C860.49,1628.3,648.91,1393.88,648.91,1393.88Z" transform="translate(-16.86 -17.46)"/><path class="cls-3" d="M816.74,1536.6c102.74,57,283,111.67,564.05,59.29l-78.16-12.62-45-26.78c-206.34,40.26-361.83-4.38-456.07-49.08a617.64,617.64,0,0,1-103.88-62.14C723.66,1472.73,762.34,1506.42,816.74,1536.6Z" transform="translate(-16.86 -17.46)"/><path class="cls-4" d="M679.11,1099.27s15.38,252.84,214.9,338.85l183.56,9C745.14,1391.45,679.11,1099.27,679.11,1099.27Z" transform="translate(-16.86 -17.46)"/><path class="cls-5" d="M896.69,1431.82l119.4,7.52c-246.85-62-318.29-271.95-318.29-271.95S735.66,1363.41,896.69,1431.82Z" transform="translate(-16.86 -17.46)"/><path class="cls-6" d="M788.46,1644.82S1215.92,2082.11,1912,1537.67l-104.32,3.59-36-28.18C1260.05,1957.64,788.46,1644.82,788.46,1644.82Z" transform="translate(-16.86 -17.46)"/><path class="cls-7" d="M1092,1753A814.66,814.66,0,0,1,849.33,1685c49.9,34.72,131.95,80.61,242.07,103.91,111.47,23.59,229.31,19.72,350.24-11.55,145.95-37.72,296.88-116,448.86-232.06l-85,2.94s-26.93-21-33.65-26.32C1509,1748.12,1257.24,1772.62,1092,1753Z" transform="translate(-16.86 -17.46)"/><path class="cls-8" d="M2034.36,421c92.56,0,134,0,255,78.84-117-233.46-404.11-260.74-685-260.74,153.29-21.23,322.66-69.74,583.75,63.66C2032.69,90.5,1729.57,78.37,1518.73,120.83s-450.82,181.9-592.18,385L1036.84,553l114.59,5,17.36-39.67L1215.9,558h69.43l27.29-37.28,34.71,42.15L1483.72,553l-2.48,32.24,39.67-34.72L1635,533.13l76.88,24.8,101.67-12.4L1887.91,563H2149.3l34.55-29.87S2133.16,451.3,2034.36,421Z" transform="translate(-16.86 -17.46)"/><path class="cls-9" d="M2032.35,427.46l2-13.39c87.47,0,130.45,0,236.17,65.6-53.83-91.88-140.49-154.62-264.2-191.28-126.52-37.49-274.2-42.54-402-42.54l-.94-13.63,52.13-7.85c135.88-21.27,289.19-45.23,508.2,58.7-152.07-178.94-429-198.82-643.66-155.6-224.61,45.23-452.32,192.21-582.89,375.44l101.17,43.2c2.41.1,100.07,4.43,108.66,4.75,3-6.8,19.16-43.81,19.16-43.81l52.22,44h63.47c3.51-4.77,30.43-41.5,30.43-41.5s34.13,41.44,38.06,46.23l140.79-10.24s-1.2,15.7-1.8,23.44l28.56-25,117.64-17.9,77,24.83,101.38-12.36s73.37,17.11,74.82,17.46l258,1.69L2174.85,532C2162.59,514.68,2114.15,452.57,2032.35,427.46Z" transform="translate(-16.86 -17.46)"/><polygon class="cls-10" points="1738.26 898.61 1709.25 909.45 1554.77 906.65 1551.93 920.29 1532.68 909.56 1428.52 909.56 1414.69 902.48 1396.37 915.95 1389.61 906.56 1333.22 906.56 1329.03 924.57 1316.1 926.57 1317.66 906.51 1253.2 904.47 1239.45 921.25 1223.62 904.41 1191.13 907.62 1105.92 909.43 1095.5 898.04 1085.06 913.89 1069.47 907.56 1035.37 907.56 1029.47 929.83 1014.35 906.4 964.19 907.57 955.99 898.77 934.93 907.56 829.9 907.73 807.01 913.48 798.6 908.7 731.66 910.68 714.49 930.11 706.19 912.56 654.28 912.68 628.91 896.66 626.32 916.63 585.18 906.56 502.51 907.56 477.76 900.42 475.74 922.72 468.62 953.87 457.6 909.56 391.2 909.56 368.55 904.72 366.28 922.6 296.29 1046.55 274.06 1074.38 321.47 1063.56 384.12 1064.45 397.35 1049.89 402.95 1064.45 465.05 1062.45 478.85 1076.37 495.93 1064.45 609.91 1062.39 637.89 1068.36 637.89 1038.54 645.43 1020.65 656.92 1061.56 687.43 1061.56 700.86 1080.26 718.44 1064.38 749.95 1063.26 767.15 1024.63 765.39 1063.56 917.27 1063.56 929.64 1081.13 945.51 1062.26 1012.11 1066.3 1015.35 1048.47 1027.62 1067.23 1076.03 1063.32 1096.17 1070.33 1101.14 1014.7 1115.27 1018.67 1110.65 1072.13 1133.75 1066.56 1179.49 1066.56 1200.89 1072.21 1200.9 1022.43 1214.2 1008.56 1216.28 1057.92 1261.77 1069.87 1364.37 1066.95 1382.86 1085.62 1393.55 1066.67 1528.58 1063.87 1541.55 1084.45 1559.54 1065.56 1682.63 1065.77 1721.71 1080.3 1700.49 1038.87 1738.26 898.61"/><path class="cls-11" d="M1752.17,920.76,1727.38,930l-153.1-2.77c-.65,3.11-3.14,15.09-3.14,15.09l-22-12.23L1444.8,929l-12.89-5.5-19.22,14.12-7.56-9.83-52.9.33c-.78,3.2-4.11,16.77-4.11,16.77L1330,947.68s1.27-16.43,1.6-20.63l-60.23-1.92-14.87,18.14s-15.41-16.37-17-18.12l-31.15,3.1-86.66,1.84-8.88-9.71L1103,935.17s-16.2-6.79-17.17-7.21l-31.45.22c-.88,3.34-6.95,26.24-6.95,26.24l-17.64-27.36-49.85,1.16-7.74-8.3c-3,1.19-19.81,8.1-19.81,8.1H847.11l-23.64,5.84-8.71-5.08c-1.51.05-62.65,1.93-65,2L730.65,953l-9.35-20.28-51.22.13-22.21-14-2,15.56-.4,3L602,927l-83.11,1L497,921.7c-.44,4.82-1.72,18.91-1.72,18.91L488.17,972l-5.19.06s-9.52-38.27-10.47-42.06H407.69l-19.95-4.27c-.53,4.11-2,15.41-2,15.41l-70,124-17.53,22,39.95-9.11,61.56.87L415.07,1062s5.41,14,6.47,16.83l61.15-2,13,13.09,15.82-11,114.75-2.07,25,5.33c.08-5.25.4-26.88.4-26.88l10.71-25.52,13,46.21h30.39s9.77,13.86,12.46,17.61c3.44-3.12,16-14.5,16-14.5L765,1078l16.5-37.06,5.24,1.23s-1.4,30.81-1.62,35.75l150.47-1s8.35,12.73,11.17,17c3.44-4.08,14.39-17.11,14.39-17.11s61.05,3.7,65.55,4l4-22.19,15.13,23.15,47.36-3.84s12.75,4.45,17.38,6c.55-6.13,5-55.41,5-55.41l19.49,5.48s-3.91,45.18-4.48,51.85c5.27-1.39,19.69-5.94,19.69-5.94h46.47s13,4.63,17.83,6c0-6.23,0-47,0-47l18.54-19.33s2.11,50.16,2.27,53.88l43.27,11.37L1382.3,1082l16.83,17c2.48-4.39,9.7-17.21,9.7-17.21l138.49-2.86s9.21,14.61,12,19c3.64-3.83,16.42-16.83,16.42-16.83l125,.21,33,12.28-18.52-36.15S1750,930,1752.17,920.76Z" transform="translate(-16.86 -17.46)"/><polygon class="cls-12" points="1736.89 570.4 1680.56 585.41 1607.7 558.25 1498.49 574.08 1425.29 641.63 1433.9 575.6 1409.08 589.51 1319.67 585.48 1296.43 555.74 1276.81 609.5 1270.91 581.56 1187.49 581.56 1163.62 556.32 1151.16 620.75 1116.79 578.56 996.74 580.54 969.42 561.98 965.59 607.4 879.72 567.94 772.12 575.88 691.18 621.12 703.38 587.96 535.12 574.13 478.08 594.09 414.5 569.74 440.29 613.83 410.94 710.86 431.38 762.47 397.61 852.27 369.38 885.54 420.55 871.59 456.72 883.56 511.65 884.56 598.3 884.56 648.56 856.09 661.64 828.34 683.78 862.28 772.17 889.85 888.95 875.95 939.28 835.12 932.36 888.73 953.44 878.87 1040.67 882.78 1058.02 877.94 1077.26 890.73 1081.51 858.07 1100.89 885.88 1218.62 880.79 1239.28 898.67 1250.3 855.15 1258.75 882.56 1374.38 880.81 1397.72 892.49 1396.09 865.79 1404.02 820.97 1417.42 853.64 1471.54 880.57 1585.73 884.55 1628.42 867.54 1692.56 885.66 1663.61 843.94 1648.33 752.55 1670.79 735.54 1653.28 714.55 1692.88 617.45 1736.89 570.4"/><path class="cls-13" d="M1697,605.54s-71.91-26.83-73-27.21c-1.2.17-106.12,15.38-107.74,15.6-1.23,1.15-77.11,71.18-77.11,71.18s7.9-60.65,8.82-67.69l-21.65,12.12-91.07-4.11s-17.15-21.94-21.22-27.16c-2.63,7.23-18.06,49.51-18.06,49.51l-2.87,7.84s-6.59-31.27-7.18-34l-82.8,1.37L1181.8,578.9c-1.63,8.5-12.5,64.67-12.5,64.67l-37-45.15-119.57,2s-19.12-13-24.41-16.59c-.59,7-3.77,44.74-3.77,44.74L896,587.82,789.5,595.68,704,643.5s11.65-31.7,13.21-35.9L552,594l-57.42,20.1L436.71,592l22.83,39s-29,95.85-29.41,97.24l20.47,51.7-34.21,91-24.21,28.54,45.45-12.4s35.84,11.86,36.51,11.94l54.66,1h86c1.15-1.73,47.4-27.1,48.88-27.92l14.62-31,24,36.8,87.24,27.21,115.51-13.77,54.07-43.86s-6.31,48.82-7.12,55.12l18.07-8.47s86.67,3.9,87.46,3.92l18-5s12.28,8.15,16.79,11.16c.81-6.18,4.56-35,4.56-35l22.22,31.9L1236.55,896l18.34,15.87C1256.55,905.32,1267,864,1267,864s9.65,31.55,10.4,34l114.68-1.73,19.93,10c-.37-6-1.38-22.65-1.38-22.65l9.43-53.3,16.15,39.36,53,26.4L1602.4,900l43-17.12,58.27,16.47-25.47-36.72-15.57-93.08,21.7-16.44-16.86-20.21,40.21-98.65s31.56-33.72,39.37-42.08Z" transform="translate(-16.86 -17.46)"/><path class="cls-14" d="M1545.71,948.37q-8.14-1.35-22.87-1.35h-96.35l-14.2,112h45.35l4.57-36h37.86c8.62,0,12.61,2.55,12,7.6l-3.61,28.4h45.34l4.85-38.24q1.13-8.82-7.56-12.21,9.68-4.53,10.72-12.68l2.8-22.18c1-7.68.06-13.5-2.77-17.42S1553.61,949.73,1545.71,948.37Zm-26.54,32.45q-1.34,10.42-2.85,11.81t-12.2,1.39H1465l2.41-19h48.37Q1519.81,975.71,1519.17,980.82Z" transform="translate(-16.86 -17.46)"/><path class="cls-15" d="M399.85,947l-62.61,112H387l8.82-15h40.46l5,15H490.6l-34-112Zm12.33,68,9.08-15.47,5.26,15.47Z" transform="translate(-16.86 -17.46)"/><path class="cls-16" d="M624.91,948.15A165.47,165.47,0,0,0,603.34,947H507.19L493,1059h96.15q14.07,0,20.36-.67,13.59-1.81,20.18-7.7t8.17-18.33l7.43-58.61c1-8.13,0-14.14-3.09-18S633.34,949.35,624.91,948.15ZM599,983.72l-5,39.82Q593,1031,580,1031H541.66l7-55h38.29c4.28,0,7.16.39,8.65,1.13Q599.67,978.74,599,983.72Z" transform="translate(-16.86 -17.46)"/><polygon class="cls-17" points="743.71 929.56 708.76 988.93 689.33 929.56 639.73 929.56 673.94 1041.56 730.7 1041.56 793.08 929.56 743.71 929.56"/><polygon class="cls-18" points="782.48 1041.56 924.47 1041.56 928.15 1012.56 831.35 1012.56 832.99 999.56 876.99 999.56 880.54 971.56 836.65 971.56 838.29 958.56 935.07 958.56 938.75 929.56 796.67 929.56 782.48 1041.56"/><polygon class="cls-19" points="1040.19 987.79 995.76 929.56 953.25 929.56 939.06 1041.56 984.19 1041.56 990.43 992.33 1030.63 1041.56 1078.5 1041.56 1092.7 929.56 1047.55 929.79 1040.19 987.79"/><polygon class="cls-20" points="1103.17 928.56 1099.5 957.56 1141.46 957.56 1130.81 1041.56 1176.04 1041.56 1186.69 957.56 1232.07 957.56 1235.74 928.56 1103.17 928.56"/><path class="cls-21" d="M1356.75,1023.51c-.43,3.34-2,5.54-4.91,6.6-1.84.61-4.9.91-9.21.91h-34.25q-6.47,0-9-.91c-2.58-1.06-3.65-3.26-3.23-6.6l9.7-76.49h-45l-10.81,85.3q-1.53,12,3,17.88c3,3.92,8.52,6.48,16.59,7.69a166.05,166.05,0,0,0,22.19,1.13h60.07a172.68,172.68,0,0,0,22.39-1.13q12.68-1.82,18.69-7.69t7.53-17.88l10.81-85.3h-44.87Z" transform="translate(-16.86 -17.46)"/><polygon class="cls-22" points="1698.2 958.56 1706.42 929.56 1565.42 929.56 1551.22 1041.56 1681.05 1041.56 1688.86 1012.56 1600.09 1012.56 1601.74 999.56 1645.74 999.56 1649.29 971.56 1605.39 971.56 1607.04 958.56 1698.2 958.56"/><path class="cls-23" d="M1545.23,950.35a146.73,146.73,0,0,0-22.55-1.33h-94.37c-.52,4.14-13.17,103.86-13.69,108h41c.48-3.83,4.56-36,4.56-36h40.14c12.58,0,14.55,5.32,14,9.78,0,0-2.85,22.52-3.32,26.22h41c.5-3.91,4.59-36.17,4.59-36.17.64-5-1.39-8.26-6.37-10.22l-4.51-1.76,4.78-2.22c5.65-2.65,8.68-6.17,9.27-10.78l2.81-22.26c.92-7.16.09-12.58-2.44-16.1S1552.57,951.61,1545.23,950.35Zm-24.31,30.54c-1.29,10.21-2.47,12-3.57,13.05S1514.2,996,1503.6,996H1463l.27-2.2,2.64-20.8h49.88l.21,0C1518.14,973.43,1521.68,975,1520.92,980.89Z" transform="translate(-16.86 -17.46)"/><path class="cls-24" d="M438.1,1042s4.26,12.82,5,15H487.7c-1.72-5.67-32-105.41-32.76-108H401.07c-1.44,2.59-57.19,102.33-60.36,108h45.08l8.83-15Zm-27.93-27.08,11.77-20,7.85,23.12H408.37Z" transform="translate(-16.86 -17.46)"/><path class="cls-25" d="M624.49,950.13A165.72,165.72,0,0,0,603.18,949H509c-.53,4.14-13.17,103.86-13.69,108h94.16c9.31,0,16.09-.23,20.17-.66,8.45-1.13,14.78-3.5,18.76-7s6.39-9.18,7.37-16.88l7.46-58.82c1-7.57,0-13.15-2.71-16.58S632.36,951.26,624.49,950.13Zm-23.35,33.71-5,39.57c-.56,4.39-3.87,9.61-16.51,9.61H539.28l.28-2.19,7.2-56.81h40.33c4.71,0,7.76.43,9.59,1.35C599,976.26,601.81,978.53,601.14,983.84Z" transform="translate(-16.86 -17.46)"/><path class="cls-26" d="M761.9,949l-37,62.9L704.3,949H659.5c1.72,5.67,32.19,105.41,33,108h53.86c1.45-2.59,57-102.33,60.15-108Z" transform="translate(-16.86 -17.46)"/><path class="cls-27" d="M815.6,949c-.53,4.14-13.17,103.86-13.7,108H939.32c.43-3.4,2.62-20.61,3-24H845.58l2.28-18h43.92c.43-3.4,2.61-20.6,3-24H850.88l2.28-18h96.76c.43-3.4,2.62-20.6,3.05-24Z" transform="translate(-16.86 -17.46)"/><path class="cls-28" d="M1066.55,949.25c-.51,4-7.86,62-7.86,62L1011.2,949H971.93c-.52,4.14-13.17,103.86-13.69,108H998.9c.51-4,6.71-52.94,6.71-52.94l43.25,52.94h44.69c.52-4.14,13.16-103.83,13.69-108Z" transform="translate(-16.86 -17.46)"/><path class="cls-29" d="M1245.5,973l3-24H1123.47l-3,24h40.48s-10.12,79.84-10.65,84h40.61c.53-4.16,10.65-84,10.65-84Z" transform="translate(-16.86 -17.46)"/><path class="cls-30" d="M1398.44,1032.43,1409,949h-40.55l-9.42,74.29a9.92,9.92,0,0,1-6.6,8.63c-2.21.73-5.49,1.08-10.11,1.08h-34.25c-4.63,0-7.83-.35-9.77-1-2.46-1-5.16-3.3-4.49-8.66l9.42-74.29h-40.56c-.53,4.17-10.57,83.41-10.57,83.41-.94,7.45-.08,13,2.6,16.52s7.82,5.84,15.34,7A165.06,165.06,0,0,0,1292,1057h60.28a172.29,172.29,0,0,0,22.14-1.11c7.84-1.12,13.65-3.46,17.23-7S1397.5,1039.87,1398.44,1032.43Z" transform="translate(-16.86 -17.46)"/><path class="cls-31" d="M1584.34,949l-13.68,108h125.59l6.34-24h-88.26l2.28-18h43.91c.43-3.4,2.62-20.6,3-24h-43.94l2.28-18h91.39l6.66-24Z" transform="translate(-16.86 -17.46)"/><path class="cls-32" d="M1598,781.39c-16.38,11.16-43.18,12.72-60.46,3.42-57.4-31,62.07-131.51,98.78-76.39,11.57-29.53,38-86.6,38-86.6-5-1-73.8-17.84-140.41,3.85-108.88,35.46-149.18,210.38-11.68,240.1,39.44,8.53,84.56-3.38,121-8-6-33.78-12.09-66.34-19.48-99.2C1616.25,766.68,1607.25,775.08,1598,781.39Z" transform="translate(-16.86 -17.46)"/><path class="cls-33" d="M564.67,692.52c19.34-8.77,77.94-2.65,95-.2,7.87-19.27,15.91-38.15,24.22-57-2.15-.47-23-5.31-33.91-6.85-20.8-3-47.92-6.46-75-4.56-40,2.74-71.33,10.87-92.07,34.21-13.13,14.71-21.23,34.24-22.12,59.29-1.87,50.84,31.29,55.87,76.41,61.41,12.31,1.51,25.84,0,33.35,8.13,4.17,4.54-.43,11.92-3.14,14.84-12,12.68-74.73,7.34-94.21,4.56,0,0-26.12,62.29-26.13,62.36,10.95,1.42,25.46,3,36.72,3.77,27.77,2,57,4.38,87.32,2.29,54-3.83,101.33-42.51,98.44-101.49-.9-18.21-8.55-31.18-20-39.91-20.61-15.71-68.87-11.29-86.61-20.27C555.2,709.17,559.1,695.05,564.67,692.52Z" transform="translate(-16.86 -17.46)"/><polygon class="cls-34" points="1157.96 730 1102.4 607.56 992.54 607.56 960.5 853.56 1044.59 853.56 1060.67 730.12 1109.75 853.56 1224.78 853.56 1256.69 608.56 1173.79 608.56 1157.96 730"/><polygon class="cls-35" points="1270.88 851.56 1368.2 851.56 1399.97 608.56 1302.53 608.56 1270.88 851.56"/><path class="cls-36" d="M835.59,614.08c-49,3.35-93.83,29.86-117.25,61.57-19.11,25.84-34.31,66.28-29.11,103.76,17.55,126.5,227.42,124.82,276.65-4.56,9.43-24.83,12.45-57.29,6.79-79.81C959.85,644,915.34,608.55,835.59,614.08Zm54.32,126.56c-7.23,23-42.21,52-67.29,55.87-20.8,3.18-34.1-1.91-42.92-11.4-31.39-33.71,33.13-88.68,67.39-93.51C878.16,687.23,899.05,711.42,889.91,740.64Z" transform="translate(-16.86 -17.46)"/><path class="cls-37" d="M1599.22,783.11c-17.26,11.77-44.93,13.36-63,3.64-17.14-9.25-17.76-23.29-15.27-33.44,6.12-24.89,38.3-53.52,68.87-61.26,19.6-5,35.61-.56,45.9,12,10.68-26.58,30.69-70.25,35.42-80.55-23.37-5-81.13-13.83-136.72,4.28-52.66,17.15-93.54,71-97.18,128-3.52,55.21,28.53,95.55,85.76,107.93,29.83,6.45,63.63.93,93.44-4l24.11-3.65c-5.32-29.6-11.13-61-18.21-92.89A156.34,156.34,0,0,1,1599.22,783.11Z" transform="translate(-16.86 -17.46)"/><path class="cls-38" d="M667.23,773.65c-.81-16.43-7.3-29.39-19.27-38.5-11.51-8.79-32.71-11.12-51.4-13.17-13.95-1.53-27.12-3-34.91-6.92-4-2-5.95-6.49-5.23-12.17.58-4.58,3.16-10.37,7.46-12.32,21.12-9.59,82.82-2.19,94.44-.68,7.09-17.33,14.48-34.72,22.49-52.94-14.63-3.3-25.24-5.43-31.42-6.31-23.71-3.4-49.14-6.31-74.51-4.54-45.29,3.11-72.28,13.07-90.26,33.3-13.42,15.05-20.66,34.51-21.5,57.81-1.83,50,31.92,54.19,74.66,59.44l8.67.71c9.67.61,19.66,1.24,25.94,8,4.8,5.2.66,13.43-3.3,17.71-14,14.79-82.33,7.15-94.5,5.65-1.39,3.33-22.54,53.8-24.34,58.08,11.27,1.41,24.3,2.74,34,3.43l6,.44c26.09,1.87,53.06,3.8,81,1.86s54.14-13.71,71.75-32.19C660.1,822.41,668.49,799.34,667.23,773.65Z" transform="translate(-16.86 -17.46)"/><path class="cls-39" d="M1192.67,628C1192.12,632.43,1176,756,1176,756L1117.61,627H1011.39c-.55,4.26-30.84,236.74-31.39,241h79.68l15.76-120.94,4.49-1s47.54,119.55,48.49,121.92h111c.56-4.27,30.71-235.73,31.26-240Z" transform="translate(-16.86 -17.46)"/><path class="cls-40" d="M1321.5,629c-.55,4.27-30.45,233.73-31,238H1383c.56-4.27,30.57-233.72,31.12-238Z" transform="translate(-16.86 -17.46)"/><path class="cls-41" d="M970.4,695.79c-13.95-55.51-63.13-84.5-134.93-79.51-45.17,3.08-90.42,26.82-115.27,60.47-16.64,22.5-34.13,62.73-28.66,102.12,9.51,68.58,72.5,92.43,123.56,92,51.76-.42,121.73-26,148.6-96.57C973.07,749.67,975.82,717.36,970.4,695.79ZM892.15,741c-7.55,24-43.24,53.64-69.43,57.65-19.85,3-34.52-.88-44.85-12a31.59,31.59,0,0,1-8.57-26.55,48.37,48.37,0,0,1,4.42-14.3C786.9,718,824,692.69,847,689.43c15.28-2.15,29.14,2.28,38,12.14C894.22,711.75,896.8,726.13,892.15,741Z" transform="translate(-16.86 -17.46)"/><polygon class="cls-1" points="1477.91 773.72 1481.81 773.24 1484.79 772.51 1496.3 790.04 1488.56 769.4 1490.55 767 1490.66 762.44 1490.26 760.03 1505.23 747 1487.93 755.71 1485.58 753.56 1481.49 753.56 1478.28 754.28 1466.96 736.07 1475 757.67 1472.21 760.28 1471.89 764.6 1471.9 768.2 1455.14 781.83 1474.62 771.9 1477.91 773.72"/><polyline class="cls-1" points="1493.23 815.12 1497.7 813.25 1501.34 814.19 1502.91 816.54 1502.48 819.83 1498.89 822.18 1495.48 823.1 1492.5 820.76 1492.65 816.07"/><polygon class="cls-1" points="1585.2 818.94 1588.32 816.76 1590.47 817.7 1592.3 821.12 1590.8 823.92 1588.85 825.78 1585.6 824.54 1584.19 822.36 1585.2 818.94"/><polygon class="cls-1" points="1445.67 756.62 1447.3 754.31 1450.71 753.32 1453.71 755.63 1452.62 758.91 1450.01 761.22 1447.14 760.57 1445.67 756.62"/><polygon class="cls-1" points="740.35 767.08 737.09 770.08 736.19 771.91 715.91 767.34 733.79 776.1 733.49 780.53 736.32 783.66 737.91 785.08 731.43 805.96 741.33 785.23 745.8 785.7 749.14 783.78 751.65 780.8 769.62 785.08 752.35 776.21 752.54 773.64 751.46 769.95 749.54 766.9 754.73 748.32 746 766.27 740.35 767.08"/><polygon class="cls-1" points="1296.61 762.31 1298.38 759.98 1300.61 759.79 1301.99 761.01 1302.49 763.31 1301.59 765.12 1298.2 765.83 1297.05 764.57 1296.61 762.31"/><polygon class="cls-1" points="1341.02 825.8 1343.74 823.94 1346.89 824.58 1347.48 828.2 1345.13 830.52 1342.69 830.2 1340.7 828.29 1341.02 825.8"/><polygon class="cls-1" points="1203.51 825.38 1209.01 824.31 1212.63 825.38 1214.15 830.22 1211.57 833.44 1207.54 835.58 1202.53 832.9 1201.87 829.68 1203.51 825.38"/><polygon class="cls-1" points="1181.58 808.21 1186.15 806.05 1189.09 808.21 1188.14 811.42 1185.1 814.1 1182.02 813.04 1181.58 808.21"/><polygon class="cls-1" points="1333.41 798.35 1333.27 801.9 1334.26 803.53 1320.87 818.31 1337.79 805.97 1339.95 806.94 1343.64 806.17 1345.05 805.82 1356.99 814.45 1348.76 802.08 1350.98 798.97 1350.7 795.57 1350.47 792.79 1364.48 778.51 1346.77 791.36 1344.38 789.78 1341.3 790.35 1338.25 791.38 1325.39 780.92 1334.71 795.09 1333.41 798.35"/><polygon class="cls-1" points="716.23 810.91 721.74 809.84 725.36 810.91 726.88 815.75 724.31 818.97 720.28 821.11 715.26 818.43 714.6 815.22 716.23 810.91"/><polygon class="cls-1" points="828.86 788.12 830.64 785.8 832.86 785.59 834.25 786.83 834.75 789.11 833.85 790.93 830.46 791.65 829.3 790.38 828.86 788.12"/><polyline class="cls-1" points="911.71 785.95 916.17 784.07 919.81 785.01 921.38 787.35 920.95 790.65 917.36 792.99 913.96 793.93 910.98 791.57 911.12 786.89"/><polyline class="cls-1" points="549.86 828.31 554.33 826.44 557.96 827.37 559.53 829.72 559.1 833.01 555.51 835.36 552.11 836.29 549.13 833.95 549.27 829.26"/><polygon class="cls-1" points="607.39 812.02 609.17 809.69 611.39 809.49 612.77 810.73 613.27 813.02 612.38 814.82 608.99 815.55 607.83 814.28 607.39 812.02"/><polygon class="cls-1" points="616.03 795.72 617.97 798.44 622.96 799.33 627.59 798.88 631.36 795.52 632.49 790.6 632.1 786.09 628.04 781.79 620.84 783.04 616.3 787.75 615.3 792.54 616.03 795.72"/><path class="cls-42" d="M1912.82,617h-16.44l-38.57,148h94c-34.43,6.9-64.81,20.45-90.41,40.68C1826.06,833.14,1802,871,1789.8,918.24L1754.4,1051l438.59,0L2231.59,903H2121.8c28.54-5,54.48-13.89,77.41-26.68,42-23.62,68.85-56.6,79.74-98a146.4,146.4,0,0,0,4.3-29.55c0-.21,0-.41,0-.64,1.28-36.68-12.09-68.08-39.76-93.34-27.36-25-64.21-37.66-109.51-37.66Z" transform="translate(-16.86 -17.46)"/><path class="cls-43" d="M2229.28,668.57q-35.62-32.54-96-32.55H1912l-28.42,109h221.26a17.35,17.35,0,0,1,14,6.53q5.39,6.56,3.13,13.4Q2118.84,778,2095.59,778h-89.71q-79.32,0-132,41.62-47.87,37.17-64.52,101.85L1780.19,1031l397.15,0,28.42-109-260,0q3.18-13.46,14.62-23.73T1988.52,888h78.36q71.13,0,122.63-28.7,55.6-31.27,69.85-85.49a126.92,126.92,0,0,0,3.68-25.52Q2264.92,701.1,2229.28,668.57Z" transform="translate(-16.86 -17.46)"/><path class="cls-44" d="M2227.79,669.65c-23.2-21.17-55-31.91-94.39-31.91H1913.62c-1,3.91-25.65,98.39-27.18,104.29h218.43a20.36,20.36,0,0,1,16.42,7.64c3.11,3.79,4.6,7.71,4.44,11.72a15.86,15.86,0,0,1-.8,4.34c-2.45,10.07-12.46,15.29-29.74,15.29h-89.74c-51.78,0-95.45,13.75-129.78,40.86-31.18,24.21-52.49,57.88-63.37,100.1L1784,1028l391.13,0,27.11-104H1942.44l.72-3.09c2.23-9.41,7.39-17.81,15.38-25S1976.71,885,1988.48,885h78.61c46.8,0,87.69-9.56,121.47-28.4,36.27-20.39,59.36-48.64,68.64-84a123.12,123.12,0,0,0,3.62-25C2262,717,2250.92,690.77,2227.79,669.65Z" transform="translate(-16.86 -17.46)"/><polygon class="cls-45" points="1767.89 607.56 1767.89 641.56 1754.89 641.56 1754.89 607.56 1742.89 607.56 1742.89 595.56 1779.89 595.56 1779.89 607.56 1767.89 607.56"/><polygon class="cls-45" points="1820.89 641.56 1820.89 615.71 1814.23 642.56 1803.64 642.56 1797.89 616.04 1797.89 641.56 1785.89 641.56 1785.89 595.56 1802.34 595.56 1808.92 620.68 1815.32 595.56 1831.89 595.56 1831.89 641.56 1820.89 641.56"/><path class="cls-46" d="M2249.3,1285c15.11-23.5,105.64-164,105.64-164l38.55,48.7s-42.27,65.57-74.31,115.34Zm-521.54-95h67.56c-13.51,21-62.62,97.29-93.27,144.9l26-144.9m-164.27,108,15.71-15.21c-1.81,7.32-2.34,9.45-3.77,15.21h-11.93M1280,1328.39l-.64.23a38.43,38.43,0,0,1-9,2.11l9.5-14.78a26.89,26.89,0,0,1,5.6,1.64c4.18,1.88,3.35,3.16,2,5.29-2.31,3.58-3.78,4.32-7.42,5.51m58.13-103c6.34.77,5,2.94,2.45,7-2.28,3.56-3.8,5.91-11.34,6.85,4.15-6.45,4.74-7.38,8.89-13.81M2610,1188l51.92-80.69-4.52-6.26H2140.55l-4.14,6.75s47.89,58.83,53.62,65.9c-.48.75-1.2,1.89-2.14,3.35H2005.28l45-69.82-4.83-6.18H1782.79L1729,1184.65l6.61-35.39-4.81-6.24h-128l-177.2,160.28c3.23-11.76,2-21.81-3.52-29.9,21.36-12.67,38.48-28.59,50.49-47.24,21.75-33.81,18.13-59-10.48-72.71-14.68-6.94-33.38-10.43-55.68-10.43H1171.26l-2,3.37,52.82,64.91L1094.5,1409.11,1099,1416h127.82a275.83,275.83,0,0,0,78.08-10.91c4.26-1.28,8.41-2.7,12.51-4.19l-8.89,8,5.63,7h127.06l33.73-33h80.59l-6.43,25.93,5.43,7.07h133l7.51-42h112.91s36.86-57.3,70.15-109h54.17c-17.47,27.13-114,177.06-114,177.06l4.43,6.94h122.13l118.41-184h67.21l-65.65,102,4.42,7h420.92l53.21-82.68-4.69-6.32H2452c1.27-2,.73-2,2-4h96l52-80.74-4.49-6.26h-88l3.87-6h96.31" transform="translate(-16.86 -17.46)"/><path class="cls-47" d="M2241.8,1283.15l110.25-171.3,45.3,57.27L2320.84,1288h-82.17Zm-684.34,11.56,31.14-30.11-9,36.42h-28.66l6.53-6.31m-294.58,33.81,13.75-21.36,6.22,1.83,6.55,1.92c5.92,2.66,5.47,5.7,2.85,9.78-3.68,5.72-7.73,7.94-13.47,9.83l-.55.19a48.8,48.8,0,0,1-11.61,2.65l-7.26.62,3.52-5.46m58.91-91.52,12.5-19.42,6.5.78c11.32,1.38,7.13,7.91,4.63,11.79-2.25,3.5-6.44,10-19.54,11.64l-7.81,1,3.72-5.78m462.68-134.07L1733.7,1182h69.45l-96.23,149.51-13,1.69s32.75-182.76,33.72-188.2H1603.29c-6.8,6.14-189.57,171.46-189.57,171.46l3.92-14.24c3-10.93,1.92-20.29-3.25-27.82l-2.16-3.13,5.93-3.53c20.08-11.89,36-26.79,47.22-44.26,20.49-31.85,17.12-55.54-9.8-68.48-14-6.62-32.07-10-53.54-10H1172.48c10.84,13.31,52.87,65,52.87,65l-128.09,199h131.31a265.49,265.49,0,0,0,75.22-10.46l30-10-13.06,12-9.42,8.53h127.08l33.73-33h89.69l-8.17,33h126.79c1.68-9.33,7.53-42,7.53-42h115.6l70.15-109h66.4l-118.42,184h118.78l118.42-184h79.49l-70.16,109h417.64l50.83-79h-96.82l9-14h96.92l49.56-77h-96.82l10.29-16h96.9c5.24-8.15,44.31-68.87,49.55-77h-512l52.6,64.63-6.7,10.37H1994.88l48.4-75-258.52-.26" transform="translate(-16.86 -17.46)"/><path class="cls-1" d="M1279.21,1301a46.57,46.57,0,0,1,18.15,3.22c7.9,3.56,9.2,8.68,4.14,16.54-5,7.69-12.12,12.87-22.58,16.33-7.64,2.61-14,3.91-19.21,3.91h-14l25.74-40Zm52.55-90h5.54c26.34,0,23.54,9.85,17.34,19.49S1338.33,1250,1310.5,1250h-6.08l25.1-39h2.24m-138.92-58,44.11,54.22c-4.16,6.45-125.36,194.78-125.36,194.78h122.05a249.84,249.84,0,0,0,70.81-9.77c41.34-12.47,72.69-35,93.29-67,15.49-24,14.81-42-1.24-52.72,26.18-11.55,46.23-27.73,59.54-48.4,18.77-29.17,15.84-49.94-8.7-61.74-13.1-6.2-29.92-9.33-50-9.33H1192.76" transform="translate(-16.86 -17.46)"/><path class="cls-1" d="M1604.32,1239.75c-5.84,23.68-14,56.54-16.88,68.27h-53.71C1545.82,1296.33,1579.81,1263.44,1604.32,1239.75ZM1709.76,1153H1604.6l-275.3,249H1436l33.73-33H1573l-8.17,33h107.06l44.61-249h-6.76" transform="translate(-16.86 -17.46)"/><path class="cls-1" d="M2019.29,1111H1789.72l-41.19,64h68.63c-8.67,13.45-118.43,184-118.43,184h100.39s109.77-170.55,118.44-184h69.69l41.2-64Z" transform="translate(-16.86 -17.46)"/><path class="cls-1" d="M2156.19,1187H1926.54l-41.19,64H1954c-8.66,13.47-118.43,184-118.43,184H1936s109.76-170.53,118.42-184h69.74l41.19-64Z" transform="translate(-16.86 -17.46)"/><path class="cls-1" d="M2334.36,1111H2163.29l44.12,54.21c-4.15,6.46-125.36,194.79-125.36,194.79h180.11l41.19-64h-78.81l119.07-185Z" transform="translate(-16.86 -17.46)"/><path class="cls-1" d="M2632.13,1111H2365.34s40.29,50.93,43.42,54.86l-125,194.14h197.64l41.2-64h-96.93c5.24-8.16,13.43-20.86,18.66-29h96.73l40.54-63h-97.27c5.41-8.42,14.53-22.59,19.95-31h97l39.9-62Z" transform="translate(-16.86 -17.46)"/><path class="cls-48" d="M1375.7,1271q47.77-15.3,69.64-49.28,25.26-39.23-7.61-55-18.24-8.62-46.52-8.63H1220.39l-2.69,4.16,30.66,37.67-119.49,185.48,4.61,6.69h103.74q35.63,0,66.42-9.1,55.47-16.73,83.5-60.28Q1412.42,1283.37,1375.7,1271ZM1304.76,1255H1289l34.76-54h17.12q39.38,0,22,27t-58.47,27m-26.51,86.22q-14,4.8-24.24,4.78H1230.2l35.4-55h17.15q12.55,0,21.53,3.82,15.95,7.17,5.48,23.44-10.17,15.79-31.9,23" transform="translate(-16.86 -17.46)"/><path class="cls-49" d="M1704,1158h-99.06l-251.63,227.6,4.75,6.4h74.53l33.72-33h117l-8.18,33h87Zm-188.7,155,103.54-100.12L1594.05,1313h-78.29" transform="translate(-16.86 -17.46)"/><polygon class="cls-50" points="1993.27 1105.71 1965.68 1148.56 1894.94 1148.56 1776.53 1332.56 1703.45 1332.56 1698.65 1326.18 1812.94 1148.56 1751.87 1148.56 1747.07 1142.12 1775.09 1098.56 1988.17 1098.56 1993.27 1105.71"/><polygon class="cls-51" points="2130.18 1181.66 2102.57 1224.56 2031.81 1224.56 1913.39 1408.56 1840.31 1408.56 1835.54 1402.14 1949.81 1224.56 1888.71 1224.56 1883.84 1218.21 1911.94 1174.56 2124.96 1174.56 2130.18 1181.66"/><polygon class="cls-52" points="2266.62 1290.61 2239.63 1332.56 2086.9 1332.56 2082.11 1326.15 2201.66 1140.34 2170.89 1102.54 2173.32 1098.56 2301.68 1098.56 2307.1 1105.55 2192.54 1283.56 2261.37 1283.56 2266.62 1290.61"/><polygon class="cls-53" points="2485.93 1290.61 2458.95 1332.56 2288.67 1332.56 2283.85 1326.16 2403.18 1140.62 2373 1102.5 2375.51 1098.56 2599.66 1098.56 2604.84 1105.71 2578.56 1146.56 2481.64 1146.56 2452.69 1191.56 2540.03 1191.56 2545.29 1198.7 2518.35 1240.56 2421.68 1240.56 2394 1283.56 2480.89 1283.56 2485.93 1290.61"/><path class="cls-54" d="M1221.88,1344.17,1260,1285h23c9.07,0,16.94,1.39,23.38,4.15,12.22,5.5,14.36,15,6.27,27.61-7.8,12.12-20.78,21.46-37.53,27-10.13,3.49-19.32,5.28-27.12,5.28h-29.24Zm58.77-91,37.43-58.16h23c37.19,0,34,17.12,24.72,31.49s-28.38,31.51-67,31.51h-21.31l3.12-4.84m-58.2-91.16,29.59,36.36S1137.22,1376.77,1131.28,1386h106.39c22.71,0,44.09-2.92,63.49-8.64,34.29-10.36,59.49-28.61,77-55.8,15.47-24.06,12.11-39.45-10.3-47l-11.1-3.77,16.1-5.16c29.27-9.39,50-24.06,63.42-44.9,15.62-24.26,13.36-40.79-6.89-50.54-11.46-5.41-26.33-8.16-44.17-8.16H1222.76" transform="translate(-16.86 -17.46)"/><path class="cls-55" d="M1507.6,1310.71l119-115-30,121.35h-95.47Zm95.8-149.17c-6.68,6-234.67,212.26-248.16,224.48h73.15c5.69-5.58,33.72-33,33.72-33h126.07s-6.82,27.49-8.18,33h73.78c2.19-12.2,39.06-218,40.14-224h-90.16" transform="translate(-16.86 -17.46)"/><path class="cls-56" d="M1792.52,1119l-25.83,41h69.64s-112.49,174.77-118.42,184h69.74c5.93-9.23,118.41-184,118.41-184h70.44c4.55-7.24,21.25-33.77,25.82-41Z" transform="translate(-16.86 -17.46)"/><path class="cls-57" d="M1929.57,1195c-4.54,7-21.21,33-25.75,40h69.37s-112.48,174.77-118.41,184h69.72l118.42-184h70.24c4.53-7,21.21-33,25.75-40Z" transform="translate(-16.86 -17.46)"/><path class="cls-58" d="M2192.63,1120l29.57,36.36S2107.38,1334.77,2101.44,1344h149.09c4.53-7.06,21.21-32.94,25.73-40h-78.58s112.49-174.77,118.42-184Z" transform="translate(-16.86 -17.46)"/><path class="cls-59" d="M2394.2,1120c8.76,11.09,29.32,37,29.32,37l-120.34,187h166.65l25.75-40h-96.83l34.11-53h96.92c4.46-7,20-31.07,24.46-38h-96.8l35.4-55h96.87l24.46-38Z" transform="translate(-16.86 -17.46)"/><path class="cls-60" d="M1216.52,1348.29l42-65.27h24.74c9.47,0,17.71,1.47,24.5,4.38,13.27,6,15.79,16.65,7.12,30.14-8.13,12.6-21.61,22.3-39,28-10.5,3.62-20,5.45-28.16,5.45h-33Zm58.77-91,41.34-64.25h24.71c15.91,0,26.21,3.11,30.61,9.28,4.23,5.92,2.91,14.32-3.94,25-9.62,14.94-29.47,32.76-69.45,32.76h-25l1.77-2.75m-48-93.25,27.71,34-119.68,186h102.66c22.43,0,43.47-2.86,62.57-8.5,33.59-10.14,58.27-28,75.42-54.68,5.22-8.12,8.24-15.12,9.06-21.1,1.52-11.08-4.55-18.68-18.31-23.35l-16.5-5.57,22-7c28.59-9.17,48.84-23.49,61.91-43.8,5.5-8.54,8.69-16.06,9.59-22.62,1.54-11.25-3.69-19.66-15.72-25.44-11.1-5.24-25.56-7.89-43-7.89H1226.76" transform="translate(-16.86 -17.46)"/><path class="cls-61" d="M1624.66,1194.5l6.23-6L1598.59,1319H1495.88l9.81-9.49Zm-20.29-30.92c-1.7,1.55-237.09,214.44-243.71,220.44h66.68c1.65-1.63,33.72-33,33.72-33h130.15s-7.23,29.18-8.18,33h68.58c.69-3.77,38.71-216,39.43-220h-86.28" transform="translate(-16.86 -17.46)"/><path class="cls-62" d="M1794,1121c-1.42,2.24-20.26,32.26-23.23,37h69.63s-115,178.67-118.43,184h64.3c1.58-2.48,118.42-184,118.42-184h70.42c1.41-2.26,20.26-32.27,23.23-37Z" transform="translate(-16.86 -17.46)"/><path class="cls-63" d="M1931,1197l-23.18,36h69.39s-115,178.67-118.43,184h64.3c1.58-2.48,118.42-184,118.42-184h70.23c1.42-2.2,20.52-31.92,23.17-36Z" transform="translate(-16.86 -17.46)"/><path class="cls-64" d="M2197.43,1122l27.71,34-119.68,186H2249.1c1.41-2.18,20.2-31.39,23.17-36h-78.61s115-178.66,118.43-184Z" transform="translate(-16.86 -17.46)"/><path class="cls-65" d="M2398.92,1122l27.52,34.76S2310.65,1336.69,2307.21,1342H2468.4l23.18-36h-96.84l36.69-57h96.93l21.88-34h-96.81l38-59h96.91c1.25-1.93,19-29.56,21.89-34Z" transform="translate(-16.86 -17.46)"/></svg>