# Blender 4.1.1
# www.blender.org
mtllib Ring_LOD2.mtl
o Torus
v -0.000000 0.000000 -1.250000
v 0.216506 -0.000000 -1.125000
v 0.216506 -0.000000 -0.875000
v -0.000000 -0.000000 -0.750000
v -0.216506 0.000000 -0.875000
v -0.216506 0.000000 -1.125000
v -0.000000 0.625000 -1.082532
v 0.216506 0.562500 -0.974279
v 0.216506 0.437500 -0.757772
v -0.000000 0.375000 -0.649519
v -0.216506 0.437500 -0.757772
v -0.216506 0.562500 -0.974279
v 0.000000 1.082532 -0.625000
v 0.216506 0.974279 -0.562500
v 0.216506 0.757772 -0.437500
v 0.000000 0.649519 -0.375000
v -0.216506 0.757772 -0.437500
v -0.216506 0.974279 -0.562500
v 0.000000 1.250000 -0.000000
v 0.216506 1.125000 -0.000000
v 0.216506 0.875000 -0.000000
v 0.000000 0.750000 -0.000000
v -0.216506 0.875000 -0.000000
v -0.216506 1.125000 -0.000000
v 0.000000 1.082532 0.625000
v 0.216506 0.974279 0.562500
v 0.216506 0.757772 0.437500
v 0.000000 0.649519 0.375000
v -0.216506 0.757772 0.437500
v -0.216506 0.974279 0.562500
v 0.000000 0.625000 1.082532
v 0.216506 0.562500 0.974278
v 0.216506 0.437500 0.757772
v 0.000000 0.375000 0.649519
v -0.216506 0.437500 0.757772
v -0.216506 0.562500 0.974278
v 0.000000 0.000000 1.250000
v 0.216506 0.000000 1.125000
v 0.216506 0.000000 0.875000
v 0.000000 0.000000 0.750000
v -0.216506 0.000000 0.875000
v -0.216506 0.000000 1.125000
v 0.000000 -0.625000 1.082532
v 0.216506 -0.562500 0.974279
v 0.216506 -0.437500 0.757772
v 0.000000 -0.375000 0.649519
v -0.216506 -0.437500 0.757772
v -0.216506 -0.562500 0.974279
v -0.000000 -1.082532 0.625000
v 0.216506 -0.974279 0.562500
v 0.216506 -0.757772 0.437500
v -0.000000 -0.649519 0.375000
v -0.216506 -0.757772 0.437500
v -0.216506 -0.974279 0.562500
v -0.000000 -1.250000 -0.000000
v 0.216506 -1.125000 -0.000000
v 0.216506 -0.875000 -0.000000
v -0.000000 -0.750000 -0.000000
v -0.216506 -0.875000 -0.000000
v -0.216506 -1.125000 -0.000000
v -0.000000 -1.082532 -0.625000
v 0.216506 -0.974279 -0.562500
v 0.216506 -0.757772 -0.437500
v -0.000000 -0.649519 -0.375000
v -0.216506 -0.757772 -0.437500
v -0.216506 -0.974279 -0.562500
v -0.000000 -0.625000 -1.082532
v 0.216506 -0.562500 -0.974279
v 0.216506 -0.437500 -0.757772
v -0.000000 -0.375000 -0.649519
v -0.216506 -0.437500 -0.757772
v -0.216506 -0.562500 -0.974279
vn -0.0000 -0.0000 -1.0000
vn 0.8303 -0.0000 -0.5573
vn 0.9016 -0.0000 0.4325
vn -0.0000 -0.0000 1.0000
vn -0.9016 -0.0000 0.4325
vn -0.8303 -0.0000 -0.5573
vn -0.0000 0.5000 -0.8660
vn 0.8303 0.2787 -0.4827
vn 0.9016 -0.2162 0.3745
vn -0.0000 -0.5000 0.8660
vn -0.9016 -0.2162 0.3745
vn -0.8303 0.2787 -0.4827
vn -0.0000 0.8660 -0.5000
vn 0.8303 0.4827 -0.2787
vn 0.9016 -0.3745 0.2162
vn -0.0000 -0.8660 0.5000
vn -0.9016 -0.3745 0.2162
vn -0.8303 0.4827 -0.2787
vn -0.0000 1.0000 -0.0000
vn 0.8303 0.5573 -0.0000
vn 0.9016 -0.4325 -0.0000
vn -0.0000 -1.0000 -0.0000
vn -0.9016 -0.4325 -0.0000
vn -0.8303 0.5573 -0.0000
vn -0.0000 0.8660 0.5000
vn 0.8303 0.4827 0.2787
vn 0.9016 -0.3745 -0.2162
vn -0.0000 -0.8660 -0.5000
vn -0.9016 -0.3745 -0.2162
vn -0.8303 0.4827 0.2787
vn -0.0000 0.5000 0.8660
vn 0.8303 0.2787 0.4827
vn 0.9016 -0.2162 -0.3745
vn -0.0000 -0.5000 -0.8660
vn -0.9016 -0.2162 -0.3745
vn -0.8303 0.2787 0.4827
vn 0.8303 -0.0000 0.5573
vn 0.9016 -0.0000 -0.4325
vn -0.9016 -0.0000 -0.4325
vn -0.8303 -0.0000 0.5573
vn 0.8303 -0.2787 0.4827
vn 0.9016 0.2162 -0.3745
vn -0.9016 0.2162 -0.3745
vn -0.8303 -0.2787 0.4827
vn 0.8303 -0.4827 0.2787
vn 0.9016 0.3745 -0.2162
vn -0.9016 0.3745 -0.2162
vn -0.8303 -0.4827 0.2787
vn 0.8303 -0.5573 -0.0000
vn 0.9016 0.4325 -0.0000
vn -0.9016 0.4325 -0.0000
vn -0.8303 -0.5573 -0.0000
vn 0.8303 -0.4827 -0.2787
vn 0.9016 0.3745 0.2162
vn -0.9016 0.3745 0.2162
vn -0.8303 -0.4827 -0.2787
vn 0.8303 -0.2787 -0.4827
vn 0.9016 0.2162 0.3745
vn -0.9016 0.2162 0.3745
vn -0.8303 -0.2787 -0.4827
vt 0.666667 0.500000
vt 0.583333 0.500000
vt 0.583333 0.333333
vt 0.666667 0.333333
vt 0.583333 0.666667
vt 0.500000 0.666667
vt 0.500000 0.500000
vt 0.916667 0.500000
vt 0.916667 0.333333
vt 1.000000 0.333333
vt 1.000000 0.500000
vt 0.500000 1.000000
vt 0.500000 0.833333
vt 0.583333 0.833333
vt 0.583333 1.000000
vt 0.083333 0.500000
vt 0.000000 0.500000
vt 0.000000 0.333333
vt 0.083333 0.333333
vt 0.583333 0.000000
vt 0.666667 0.000000
vt 0.666667 0.166667
vt 0.583333 0.166667
vt 0.416667 0.666667
vt 0.416667 0.500000
vt 0.666667 1.000000
vt 0.666667 0.833333
vt 0.666667 0.666667
vt 0.750000 0.500000
vt 0.750000 0.333333
vt 0.750000 0.000000
vt 0.750000 0.166667
vt 0.166667 0.666667
vt 0.083333 0.666667
vt 0.166667 0.500000
vt 0.833333 0.500000
vt 0.833333 0.333333
vt 0.750000 0.666667
vt 0.750000 0.833333
vt 0.750000 1.000000
vt 0.833333 1.000000
vt 0.833333 0.833333
vt 0.833333 0.000000
vt 0.833333 0.166667
vt 0.250000 0.666667
vt 0.250000 0.500000
vt 0.833333 0.666667
vt 0.916667 1.000000
vt 0.916667 0.833333
vt 0.916667 0.000000
vt 0.916667 0.166667
vt 0.333333 0.666667
vt 0.333333 0.500000
vt 1.000000 0.666667
vt 0.916667 0.666667
vt 1.000000 0.000000
vt 1.000000 0.166667
vt 0.416667 0.333333
vt 0.500000 0.333333
vt 0.500000 0.166667
vt 0.416667 0.166667
vt 1.000000 0.833333
vt 0.416667 1.000000
vt 0.416667 0.833333
vt 1.000000 1.000000
vt 0.000000 0.666667
vt 0.000000 0.166667
vt 0.083333 0.166667
vt 0.416667 0.000000
vt 0.500000 0.000000
vt 0.083333 1.000000
vt 0.083333 0.833333
vt 0.166667 0.833333
vt 0.166667 1.000000
vt 0.083333 0.000000
vt 0.166667 0.000000
vt 0.166667 0.166667
vt 0.166667 0.333333
vt 0.250000 0.833333
vt 0.250000 1.000000
vt 0.250000 0.000000
vt 0.250000 0.166667
vt 0.250000 0.333333
vt 0.333333 0.833333
vt 0.333333 1.000000
vt 0.333333 0.000000
vt 0.333333 0.166667
vt 0.333333 0.333333
vt 0.000000 0.833333
vt 0.000000 1.000000
vt 0.000000 0.000000
s 1
f 13/1/13 7/2/7 12/3/12 18/4/18
f 8/5/8 2/6/2 1/7/1 7/2/7
f 31/8/31 36/9/36 42/10/40 37/11/4
f 4/12/4 3/13/3 9/14/9 10/15/10
f 43/16/10 37/17/4 42/18/40 48/19/44
f 10/20/10 16/21/16 17/22/17 11/23/11
f 2/6/2 68/24/57 67/25/34 1/7/1
f 16/26/16 10/15/10 9/14/9 15/27/15
f 9/14/9 8/5/8 14/28/14 15/27/15
f 19/29/19 13/1/13 18/4/18 24/30/24
f 16/21/16 22/31/22 23/32/23 17/22/17
f 50/33/45 44/34/41 43/16/10 49/35/16
f 25/36/25 19/29/19 24/30/24 30/37/30
f 20/38/20 14/28/14 13/1/13 19/29/19
f 23/32/23 24/30/24 18/4/18 17/22/17
f 21/39/21 15/27/15 14/28/14 20/38/20
f 22/40/22 16/26/16 15/27/15 21/39/21
f 28/41/28 22/40/22 21/39/21 27/42/27
f 22/31/22 28/43/28 29/44/29 23/32/23
f 56/45/49 50/33/45 49/35/16 55/46/22
f 31/8/31 25/36/25 30/37/30 36/9/36
f 26/47/26 20/38/20 19/29/19 25/36/25
f 29/44/29 30/37/30 24/30/24 23/32/23
f 27/42/27 21/39/21 20/38/20 26/47/26
f 34/48/34 28/41/28 27/42/27 33/49/33
f 28/43/28 34/50/34 35/51/35 29/44/29
f 62/52/53 56/45/49 55/46/22 61/53/28
f 38/54/37 32/55/32 31/8/31 37/11/4
f 32/55/32 26/47/26 25/36/25 31/8/31
f 35/51/35 36/9/36 30/37/30 29/44/29
f 33/49/33 27/42/27 26/47/26 32/55/32
f 34/50/34 40/56/1 41/57/39 35/51/35
f 68/24/57 62/52/53 61/53/28 67/25/34
f 1/7/1 67/25/34 72/58/60 6/59/6
f 3/13/3 2/6/2 8/5/8 9/14/9
f 5/60/5 6/59/6 72/58/60 71/61/59
f 39/62/38 33/49/33 32/55/32 38/54/37
f 4/12/4 70/63/31 69/64/58 3/13/3
f 34/48/34 33/49/33 39/62/38 40/65/1
f 3/13/3 69/64/58 68/24/57 2/6/2
f 44/34/41 38/66/37 37/17/4 43/16/10
f 48/19/44 42/18/40 41/67/39 47/68/43
f 7/2/7 1/7/1 6/59/6 12/3/12
f 5/60/5 71/61/59 70/69/31 4/70/4
f 46/71/7 45/72/42 51/73/46 52/74/13
f 46/75/7 52/76/13 53/77/47 47/68/43
f 49/35/16 43/16/10 48/19/44 54/78/48
f 54/78/48 48/19/44 47/68/43 53/77/47
f 45/72/42 44/34/41 50/33/45 51/73/46
f 51/73/46 50/33/45 56/45/49 57/79/50
f 58/80/19 52/74/13 51/73/46 57/79/50
f 52/76/13 58/81/19 59/82/51 53/77/47
f 55/46/22 49/35/16 54/78/48 60/83/52
f 60/83/52 54/78/48 53/77/47 59/82/51
f 57/79/50 56/45/49 62/52/53 63/84/54
f 64/85/25 58/80/19 57/79/50 63/84/54
f 58/81/19 64/86/25 65/87/55 59/82/51
f 61/53/28 55/46/22 60/83/52 66/88/56
f 66/88/56 60/83/52 59/82/51 65/87/55
f 63/84/54 62/52/53 68/24/57 69/64/58
f 70/63/31 64/85/25 63/84/54 69/64/58
f 64/86/25 70/69/31 71/61/59 65/87/55
f 67/25/34 61/53/28 66/88/56 72/58/60
f 71/61/59 72/58/60 66/88/56 65/87/55
f 4/70/4 10/20/10 11/23/11 5/60/5
f 11/23/11 12/3/12 6/59/6 5/60/5
f 39/89/38 38/66/37 44/34/41 45/72/42
f 46/71/7 40/90/1 39/89/38 45/72/42
f 40/91/1 46/75/7 47/68/43 41/67/39
f 14/28/14 8/5/8 7/2/7 13/1/13
f 17/22/17 18/4/18 12/3/12 11/23/11
f 42/10/40 36/9/36 35/51/35 41/57/39
