# Blender 4.1.1
# www.blender.org
mtllib StarRing_LOD2.mtl
o Torus.002
v 0.000000 -0.000000 -1.250000
v 0.216506 -0.000000 -1.125000
v 0.216506 -0.000000 -0.875000
v 0.000000 -0.000000 -0.750000
v -0.216506 -0.000000 -0.875000
v -0.216506 -0.000000 -1.125000
v 0.000000 0.625000 -1.082532
v 0.216506 0.562500 -0.974279
v 0.216506 0.437500 -0.757772
v 0.000000 0.375000 -0.649519
v -0.216506 0.437500 -0.757772
v -0.216506 0.562500 -0.974279
v 0.000000 1.082532 -0.625000
v 0.216506 0.974279 -0.562500
v 0.216506 0.757772 -0.437500
v 0.000000 0.649519 -0.375000
v -0.216506 0.757772 -0.437500
v -0.216506 0.974279 -0.562500
v 0.000000 1.250000 -0.000000
v 0.216506 1.125000 -0.000000
v 0.216506 0.875000 -0.000000
v 0.000000 0.750000 -0.000000
v -0.216506 0.875000 -0.000000
v -0.216506 1.125000 -0.000000
v 0.000000 1.082532 0.625000
v 0.216506 0.974279 0.562500
v 0.216506 0.757772 0.437500
v 0.000000 0.649519 0.375000
v -0.216506 0.757772 0.437500
v -0.216506 0.974279 0.562500
v 0.000000 0.625000 1.082532
v 0.216506 0.562500 0.974278
v 0.216506 0.437500 0.757772
v 0.000000 0.375000 0.649519
v -0.216506 0.437500 0.757772
v -0.216506 0.562500 0.974278
v 0.000000 0.000000 1.250000
v 0.216506 0.000000 1.125000
v 0.216506 0.000000 0.875000
v 0.000000 0.000000 0.750000
v -0.216506 0.000000 0.875000
v -0.216506 0.000000 1.125000
v 0.000000 -0.625000 1.082532
v 0.216506 -0.562500 0.974279
v 0.216506 -0.437500 0.757772
v 0.000000 -0.375000 0.649519
v -0.216506 -0.437500 0.757772
v -0.216506 -0.562500 0.974279
v 0.000000 -1.082532 0.625000
v 0.216506 -0.974279 0.562500
v 0.216506 -0.757772 0.437500
v 0.000000 -0.649519 0.375000
v -0.216506 -0.757772 0.437500
v -0.216506 -0.974279 0.562500
v 0.000000 -1.250000 0.000000
v 0.216506 -1.125000 0.000000
v 0.216506 -0.875000 0.000000
v 0.000000 -0.750000 0.000000
v -0.216506 -0.875000 0.000000
v -0.216506 -1.125000 0.000000
v 0.000000 -1.082532 -0.625000
v 0.216506 -0.974279 -0.562500
v 0.216506 -0.757772 -0.437500
v 0.000000 -0.649519 -0.375000
v -0.216506 -0.757772 -0.437500
v -0.216506 -0.974279 -0.562500
v 0.000000 -0.625000 -1.082532
v 0.216506 -0.562500 -0.974279
v 0.216506 -0.437500 -0.757772
v 0.000000 -0.375000 -0.649519
v -0.216506 -0.437500 -0.757772
v -0.216506 -0.562500 -0.974279
vn -0.0000 0.8660 -0.5000
vn -0.0000 0.5000 -0.8660
vn -0.8303 0.2787 -0.4827
vn -0.8303 0.4827 -0.2787
vn 0.8303 0.2787 -0.4827
vn 0.8303 -0.0000 -0.5573
vn -0.0000 -0.0000 -1.0000
vn -0.0000 0.5000 0.8660
vn -0.8303 0.2787 0.4827
vn -0.8303 -0.0000 0.5573
vn -0.0000 -0.0000 1.0000
vn 0.9016 -0.0000 0.4325
vn 0.9016 -0.2162 0.3745
vn -0.0000 -0.5000 0.8660
vn -0.8303 -0.2787 0.4827
vn -0.0000 -0.8660 0.5000
vn -0.9016 -0.3745 0.2162
vn -0.9016 -0.2162 0.3745
vn 0.8303 -0.2787 -0.4827
vn -0.0000 -0.5000 -0.8660
vn 0.9016 -0.3745 0.2162
vn 0.8303 0.4827 -0.2787
vn -0.0000 1.0000 -0.0000
vn -0.8303 0.5573 -0.0000
vn -0.0000 -1.0000 -0.0000
vn -0.9016 -0.4325 -0.0000
vn 0.8303 -0.4827 0.2787
vn 0.8303 -0.2787 0.4827
vn -0.0000 0.8660 0.5000
vn -0.8303 0.4827 0.2787
vn 0.8303 0.5573 -0.0000
vn 0.9016 -0.4325 -0.0000
vn -0.0000 -0.8660 -0.5000
vn 0.9016 -0.3745 -0.2162
vn -0.9016 -0.3745 -0.2162
vn 0.8303 -0.5573 -0.0000
vn 0.8303 0.4827 0.2787
vn 0.9016 -0.2162 -0.3745
vn -0.9016 -0.2162 -0.3745
vn 0.8303 -0.4827 -0.2787
vn 0.8303 -0.0000 0.5573
vn 0.8303 0.2787 0.4827
vn -0.9016 -0.0000 -0.4325
vn -0.8303 -0.2787 -0.4827
vn -0.8303 -0.0000 -0.5573
vn -0.9016 -0.0000 0.4325
vn -0.9016 0.2162 0.3745
vn 0.9016 -0.0000 -0.4325
vn 0.9016 0.2162 0.3745
vn -0.9016 0.2162 -0.3745
vn 0.9016 0.2162 -0.3745
vn 0.9016 0.3745 -0.2162
vn -0.9016 0.3745 -0.2162
vn -0.8303 -0.4827 0.2787
vn 0.9016 0.4325 -0.0000
vn -0.9016 0.4325 -0.0000
vn -0.8303 -0.5573 -0.0000
vn 0.9016 0.3745 0.2162
vn -0.9016 0.3745 0.2162
vn -0.8303 -0.4827 -0.2787
vt 0.666667 0.500000
vt 0.583333 0.500000
vt 0.583333 0.333333
vt 0.666667 0.333333
vt 0.583333 0.666667
vt 0.500000 0.666667
vt 0.500000 0.500000
vt 0.916667 0.500000
vt 0.916667 0.333333
vt 1.000000 0.333333
vt 1.000000 0.500000
vt 0.500000 1.000000
vt 0.500000 0.833333
vt 0.583333 0.833333
vt 0.583333 1.000000
vt 0.083333 0.500000
vt 0.000000 0.500000
vt 0.000000 0.333333
vt 0.083333 0.333333
vt 0.583333 0.000000
vt 0.666667 0.000000
vt 0.666667 0.166667
vt 0.583333 0.166667
vt 0.416667 0.666667
vt 0.416667 0.500000
vt 0.666667 1.000000
vt 0.666667 0.833333
vt 0.666667 0.666667
vt 0.750000 0.500000
vt 0.750000 0.333333
vt 0.750000 0.000000
vt 0.750000 0.166667
vt 0.166667 0.666667
vt 0.083333 0.666667
vt 0.166667 0.500000
vt 0.833333 0.500000
vt 0.833333 0.333333
vt 0.750000 0.666667
vt 0.750000 0.833333
vt 0.750000 1.000000
vt 0.833333 1.000000
vt 0.833333 0.833333
vt 0.833333 0.000000
vt 0.833333 0.166667
vt 0.250000 0.666667
vt 0.250000 0.500000
vt 0.833333 0.666667
vt 0.916667 1.000000
vt 0.916667 0.833333
vt 0.916667 0.000000
vt 0.916667 0.166667
vt 0.333333 0.666667
vt 0.333333 0.500000
vt 1.000000 0.666667
vt 0.916667 0.666667
vt 1.000000 0.000000
vt 1.000000 0.166667
vt 0.416667 0.333333
vt 0.500000 0.333333
vt 0.500000 0.166667
vt 0.416667 0.166667
vt 1.000000 0.833333
vt 0.416667 1.000000
vt 0.416667 0.833333
vt 1.000000 1.000000
vt 0.000000 0.666667
vt 0.000000 0.166667
vt 0.083333 0.166667
vt 0.416667 0.000000
vt 0.500000 0.000000
vt 0.083333 1.000000
vt 0.083333 0.833333
vt 0.166667 0.833333
vt 0.166667 1.000000
vt 0.083333 0.000000
vt 0.166667 0.000000
vt 0.166667 0.166667
vt 0.166667 0.333333
vt 0.250000 0.833333
vt 0.250000 1.000000
vt 0.250000 0.000000
vt 0.250000 0.166667
vt 0.250000 0.333333
vt 0.333333 0.833333
vt 0.333333 1.000000
vt 0.333333 0.000000
vt 0.333333 0.166667
vt 0.333333 0.333333
vt 0.000000 0.833333
vt 0.000000 1.000000
vt 0.000000 0.000000
s 1
usemtl RingMat
f 13/1/1 7/2/2 12/3/3 18/4/4
f 8/5/5 2/6/6 1/7/7 7/2/2
f 31/8/8 36/9/9 42/10/10 37/11/11
f 4/12/11 3/13/12 9/14/13 10/15/14
f 43/16/14 37/17/11 42/18/10 48/19/15
f 10/20/14 16/21/16 17/22/17 11/23/18
f 2/6/6 68/24/19 67/25/20 1/7/7
f 16/26/16 10/15/14 9/14/13 15/27/21
f 9/14/13 8/5/5 14/28/22 15/27/21
f 19/29/23 13/1/1 18/4/4 24/30/24
f 16/21/16 22/31/25 23/32/26 17/22/17
f 50/33/27 44/34/28 43/16/14 49/35/16
f 25/36/29 19/29/23 24/30/24 30/37/30
f 20/38/31 14/28/22 13/1/1 19/29/23
f 23/32/26 24/30/24 18/4/4 17/22/17
f 21/39/32 15/27/21 14/28/22 20/38/31
f 22/40/25 16/26/16 15/27/21 21/39/32
f 28/41/33 22/40/25 21/39/32 27/42/34
f 22/31/25 28/43/33 29/44/35 23/32/26
f 56/45/36 50/33/27 49/35/16 55/46/25
f 31/8/8 25/36/29 30/37/30 36/9/9
f 26/47/37 20/38/31 19/29/23 25/36/29
f 29/44/35 30/37/30 24/30/24 23/32/26
f 27/42/34 21/39/32 20/38/31 26/47/37
f 34/48/20 28/41/33 27/42/34 33/49/38
f 28/43/33 34/50/20 35/51/39 29/44/35
f 62/52/40 56/45/36 55/46/25 61/53/33
f 38/54/41 32/55/42 31/8/8 37/11/11
f 32/55/42 26/47/37 25/36/29 31/8/8
f 35/51/39 36/9/9 30/37/30 29/44/35
f 33/49/38 27/42/34 26/47/37 32/55/42
f 34/50/20 40/56/7 41/57/43 35/51/39
f 68/24/19 62/52/40 61/53/33 67/25/20
f 1/7/7 67/25/20 72/58/44 6/59/45
f 3/13/12 2/6/6 8/5/5 9/14/13
f 5/60/46 6/59/45 72/58/44 71/61/47
f 39/62/48 33/49/38 32/55/42 38/54/41
f 4/12/11 70/63/8 69/64/49 3/13/12
f 34/48/20 33/49/38 39/62/48 40/65/7
f 3/13/12 69/64/49 68/24/19 2/6/6
f 44/34/28 38/66/41 37/17/11 43/16/14
f 48/19/15 42/18/10 41/67/43 47/68/50
f 7/2/2 1/7/7 6/59/45 12/3/3
f 5/60/46 71/61/47 70/69/8 4/70/11
f 46/71/2 45/72/51 51/73/52 52/74/1
f 46/75/2 52/76/1 53/77/53 47/68/50
f 49/35/16 43/16/14 48/19/15 54/78/54
f 54/78/54 48/19/15 47/68/50 53/77/53
f 45/72/51 44/34/28 50/33/27 51/73/52
f 51/73/52 50/33/27 56/45/36 57/79/55
f 58/80/23 52/74/1 51/73/52 57/79/55
f 52/76/1 58/81/23 59/82/56 53/77/53
f 55/46/25 49/35/16 54/78/54 60/83/57
f 60/83/57 54/78/54 53/77/53 59/82/56
f 57/79/55 56/45/36 62/52/40 63/84/58
f 64/85/29 58/80/23 57/79/55 63/84/58
f 58/81/23 64/86/29 65/87/59 59/82/56
f 61/53/33 55/46/25 60/83/57 66/88/60
f 66/88/60 60/83/57 59/82/56 65/87/59
f 63/84/58 62/52/40 68/24/19 69/64/49
f 70/63/8 64/85/29 63/84/58 69/64/49
f 64/86/29 70/69/8 71/61/47 65/87/59
f 67/25/20 61/53/33 66/88/60 72/58/44
f 71/61/47 72/58/44 66/88/60 65/87/59
f 4/70/11 10/20/14 11/23/18 5/60/46
f 11/23/18 12/3/3 6/59/45 5/60/46
f 39/89/48 38/66/41 44/34/28 45/72/51
f 46/71/2 40/90/7 39/89/48 45/72/51
f 40/91/7 46/75/2 47/68/50 41/67/43
f 14/28/22 8/5/5 7/2/2 13/1/1
f 17/22/17 18/4/4 12/3/3 11/23/18
f 42/10/10 36/9/9 35/51/39 41/57/43
o Plane
v -0.000000 0.800000 0.800000
v 0.000000 -0.800000 0.800000
v -0.000000 0.800000 -0.800000
v 0.000000 -0.800000 -0.800000
v -0.125000 0.000000 0.000000
v -0.000000 0.800000 -0.800000
v 0.000000 -0.800000 -0.800000
v -0.000000 0.800000 0.800000
v 0.000000 -0.800000 0.800000
v -0.125000 0.000000 0.000000
v -0.000000 0.800000 0.800000
v 0.000000 -0.800000 0.800000
v -0.000000 0.800000 -0.800000
v 0.000000 -0.800000 -0.800000
v 0.125000 0.000000 0.000000
v -0.000000 0.800000 -0.800000
v 0.000000 -0.800000 -0.800000
v -0.000000 0.800000 0.800000
v 0.000000 -0.800000 0.800000
v 0.125000 0.000000 0.000000
vn -0.9940 0.0777 0.0777
vn -0.9940 -0.0777 0.0777
vn -0.9940 0.0777 -0.0777
vn -0.9940 -0.0777 -0.0777
vn -1.0000 -0.0000 -0.0000
vn 0.9940 0.0777 0.0777
vn 0.9940 -0.0777 0.0777
vn 0.9940 0.0777 -0.0777
vn 0.9940 -0.0777 -0.0777
vn 1.0000 -0.0000 -0.0000
vt 0.000000 1.000000
vt 0.500000 0.500000
vt 0.000000 0.000000
vt 1.000000 0.000000
vt 1.000000 1.000000
s 1
usemtl StarMat
f 73/92/61 77/93/65 74/94/62
f 74/94/62 77/93/65 76/95/64
f 76/95/64 77/93/65 75/96/63
f 75/96/63 77/93/65 73/92/61
f 78/92/63 79/94/64 82/93/65
f 79/94/64 81/95/62 82/93/65
f 81/95/62 80/96/61 82/93/65
f 80/96/61 78/92/63 82/93/65
f 83/92/66 84/94/67 87/93/70
f 84/94/67 86/95/69 87/93/70
f 86/95/69 85/96/68 87/93/70
f 85/96/68 83/92/66 87/93/70
f 88/92/68 92/93/70 89/94/69
f 89/94/69 92/93/70 91/95/67
f 91/95/67 92/93/70 90/96/66
f 90/96/66 92/93/70 88/92/68
