# Blender 4.1.1
# www.blender.org
mtllib Ring_LOD1.mtl
o Torus
v -0.000000 0.000000 -1.250000
v 0.216506 -0.000000 -1.125000
v 0.216506 -0.000000 -0.875000
v -0.000000 -0.000000 -0.750000
v -0.216506 0.000000 -0.875000
v -0.216506 0.000000 -1.125000
v -0.000000 0.323524 -1.207407
v 0.216506 0.291171 -1.086667
v 0.216506 0.226467 -0.845185
v -0.000000 0.194114 -0.724444
v -0.216506 0.226467 -0.845185
v -0.216506 0.291171 -1.086667
v -0.000000 0.625000 -1.082532
v 0.216506 0.562500 -0.974279
v 0.216506 0.437500 -0.757772
v -0.000000 0.375000 -0.649519
v -0.216506 0.437500 -0.757772
v -0.216506 0.562500 -0.974279
v 0.000000 0.883884 -0.883883
v 0.216506 0.795495 -0.795495
v 0.216506 0.618719 -0.618718
v 0.000000 0.530330 -0.530330
v -0.216506 0.618719 -0.618718
v -0.216506 0.795495 -0.795495
v 0.000000 1.082532 -0.625000
v 0.216506 0.974279 -0.562500
v 0.216506 0.757772 -0.437500
v 0.000000 0.649519 -0.375000
v -0.216506 0.757772 -0.437500
v -0.216506 0.974279 -0.562500
v 0.000000 1.207407 -0.323524
v 0.216506 1.086667 -0.291171
v 0.216506 0.845185 -0.226467
v 0.000000 0.724444 -0.194114
v -0.216506 0.845185 -0.226467
v -0.216506 1.086667 -0.291171
v 0.000000 1.250000 -0.000000
v 0.216506 1.125000 -0.000000
v 0.216506 0.875000 -0.000000
v 0.000000 0.750000 -0.000000
v -0.216506 0.875000 -0.000000
v -0.216506 1.125000 -0.000000
v 0.000000 1.207407 0.323524
v 0.216506 1.086667 0.291171
v 0.216506 0.845185 0.226467
v 0.000000 0.724444 0.194114
v -0.216506 0.845185 0.226467
v -0.216506 1.086667 0.291171
v 0.000000 1.082532 0.625000
v 0.216506 0.974279 0.562500
v 0.216506 0.757772 0.437500
v 0.000000 0.649519 0.375000
v -0.216506 0.757772 0.437500
v -0.216506 0.974279 0.562500
v 0.000000 0.883883 0.883884
v 0.216506 0.795495 0.795495
v 0.216506 0.618718 0.618719
v 0.000000 0.530330 0.530330
v -0.216506 0.618718 0.618719
v -0.216506 0.795495 0.795495
v 0.000000 0.625000 1.082532
v 0.216506 0.562500 0.974278
v 0.216506 0.437500 0.757772
v 0.000000 0.375000 0.649519
v -0.216506 0.437500 0.757772
v -0.216506 0.562500 0.974278
v 0.000000 0.323524 1.207407
v 0.216506 0.291171 1.086667
v 0.216506 0.226467 0.845185
v 0.000000 0.194114 0.724444
v -0.216506 0.226467 0.845185
v -0.216506 0.291171 1.086667
v 0.000000 0.000000 1.250000
v 0.216506 0.000000 1.125000
v 0.216506 0.000000 0.875000
v 0.000000 0.000000 0.750000
v -0.216506 0.000000 0.875000
v -0.216506 0.000000 1.125000
v 0.000000 -0.323524 1.207407
v 0.216506 -0.291171 1.086667
v 0.216506 -0.226467 0.845185
v 0.000000 -0.194114 0.724444
v -0.216506 -0.226467 0.845185
v -0.216506 -0.291171 1.086667
v 0.000000 -0.625000 1.082532
v 0.216506 -0.562500 0.974279
v 0.216506 -0.437500 0.757772
v 0.000000 -0.375000 0.649519
v -0.216506 -0.437500 0.757772
v -0.216506 -0.562500 0.974279
v 0.000000 -0.883883 0.883884
v 0.216506 -0.795495 0.795495
v 0.216506 -0.618718 0.618719
v 0.000000 -0.530330 0.530330
v -0.216506 -0.618718 0.618719
v -0.216506 -0.795495 0.795495
v -0.000000 -1.082532 0.625000
v 0.216506 -0.974279 0.562500
v 0.216506 -0.757772 0.437500
v -0.000000 -0.649519 0.375000
v -0.216506 -0.757772 0.437500
v -0.216506 -0.974279 0.562500
v -0.000000 -1.207407 0.323524
v 0.216506 -1.086666 0.291172
v 0.216506 -0.845185 0.226467
v -0.000000 -0.724444 0.194115
v -0.216506 -0.845185 0.226467
v -0.216506 -1.086666 0.291172
v -0.000000 -1.250000 -0.000000
v 0.216506 -1.125000 -0.000000
v 0.216506 -0.875000 -0.000000
v -0.000000 -0.750000 -0.000000
v -0.216506 -0.875000 -0.000000
v -0.216506 -1.125000 -0.000000
v -0.000000 -1.207407 -0.323523
v 0.216506 -1.086667 -0.291171
v 0.216506 -0.845185 -0.226466
v -0.000000 -0.724444 -0.194114
v -0.216506 -0.845185 -0.226466
v -0.216506 -1.086667 -0.291171
v -0.000000 -1.082532 -0.625000
v 0.216506 -0.974279 -0.562500
v 0.216506 -0.757772 -0.437500
v -0.000000 -0.649519 -0.375000
v -0.216506 -0.757772 -0.437500
v -0.216506 -0.974279 -0.562500
v -0.000000 -0.883884 -0.883883
v 0.216506 -0.795496 -0.795495
v 0.216506 -0.618719 -0.618718
v -0.000000 -0.530330 -0.530330
v -0.216506 -0.618719 -0.618718
v -0.216506 -0.795496 -0.795495
v -0.000000 -0.625000 -1.082532
v 0.216506 -0.562500 -0.974279
v 0.216506 -0.437500 -0.757772
v -0.000000 -0.375000 -0.649519
v -0.216506 -0.437500 -0.757772
v -0.216506 -0.562500 -0.974279
v -0.000000 -0.323523 -1.207407
v 0.216506 -0.291171 -1.086667
v 0.216506 -0.226466 -0.845185
v -0.000000 -0.194114 -0.724444
v -0.216506 -0.226466 -0.845185
v -0.216506 -0.291171 -1.086667
vn -0.0000 -0.0000 -1.0000
vn 0.8480 -0.0000 -0.5299
vn 0.8840 -0.0000 0.4675
vn -0.0000 -0.0000 1.0000
vn -0.8840 -0.0000 0.4675
vn -0.8480 -0.0000 -0.5299
vn -0.0000 0.2588 -0.9659
vn 0.8480 0.1372 -0.5119
vn 0.8840 -0.1210 0.4516
vn -0.0000 -0.2588 0.9659
vn -0.8840 -0.1210 0.4516
vn -0.8480 0.1372 -0.5119
vn -0.0000 0.5000 -0.8660
vn 0.8480 0.2650 -0.4589
vn 0.8840 -0.2337 0.4049
vn -0.0000 -0.5000 0.8660
vn -0.8840 -0.2337 0.4049
vn -0.8480 0.2650 -0.4589
vn -0.0000 0.7071 -0.7071
vn 0.8480 0.3747 -0.3747
vn 0.8840 -0.3306 0.3306
vn -0.0000 -0.7071 0.7071
vn -0.8840 -0.3306 0.3306
vn -0.8480 0.3747 -0.3747
vn -0.0000 0.8660 -0.5000
vn 0.8480 0.4589 -0.2650
vn 0.8840 -0.4049 0.2337
vn -0.0000 -0.8660 0.5000
vn -0.8840 -0.4049 0.2337
vn -0.8480 0.4589 -0.2650
vn -0.0000 0.9659 -0.2588
vn 0.8480 0.5119 -0.1372
vn 0.8840 -0.4516 0.1210
vn -0.0000 -0.9659 0.2588
vn -0.8840 -0.4516 0.1210
vn -0.8480 0.5119 -0.1372
vn -0.0000 1.0000 -0.0000
vn 0.8480 0.5299 -0.0000
vn 0.8840 -0.4675 -0.0000
vn -0.0000 -1.0000 -0.0000
vn -0.8840 -0.4675 -0.0000
vn -0.8480 0.5299 -0.0000
vn -0.0000 0.9659 0.2588
vn 0.8480 0.5119 0.1372
vn 0.8840 -0.4516 -0.1210
vn -0.0000 -0.9659 -0.2588
vn -0.8840 -0.4516 -0.1210
vn -0.8480 0.5119 0.1372
vn -0.0000 0.8660 0.5000
vn 0.8480 0.4589 0.2650
vn 0.8840 -0.4049 -0.2337
vn -0.0000 -0.8660 -0.5000
vn -0.8840 -0.4049 -0.2337
vn -0.8480 0.4589 0.2650
vn -0.0000 0.7071 0.7071
vn 0.8480 0.3747 0.3747
vn 0.8840 -0.3306 -0.3306
vn -0.0000 -0.7071 -0.7071
vn -0.8840 -0.3306 -0.3306
vn -0.8480 0.3747 0.3747
vn -0.0000 0.5000 0.8660
vn 0.8480 0.2650 0.4589
vn 0.8840 -0.2337 -0.4049
vn -0.0000 -0.5000 -0.8660
vn -0.8840 -0.2337 -0.4049
vn -0.8480 0.2650 0.4589
vn -0.0000 0.2588 0.9659
vn 0.8480 0.1372 0.5119
vn 0.8840 -0.1210 -0.4516
vn -0.0000 -0.2588 -0.9659
vn -0.8840 -0.1210 -0.4516
vn -0.8480 0.1372 0.5119
vn 0.8480 -0.0000 0.5299
vn 0.8840 -0.0000 -0.4675
vn -0.8840 -0.0000 -0.4675
vn -0.8480 -0.0000 0.5299
vn 0.8480 -0.1372 0.5119
vn 0.8840 0.1210 -0.4516
vn -0.8840 0.1210 -0.4516
vn -0.8480 -0.1372 0.5119
vn 0.8480 -0.2650 0.4589
vn 0.8840 0.2337 -0.4049
vn -0.8840 0.2337 -0.4049
vn -0.8480 -0.2650 0.4589
vn 0.8480 -0.3747 0.3747
vn 0.8840 0.3306 -0.3306
vn -0.8840 0.3306 -0.3306
vn -0.8480 -0.3747 0.3747
vn 0.8480 -0.4589 0.2650
vn 0.8840 0.4049 -0.2337
vn -0.8840 0.4049 -0.2337
vn -0.8480 -0.4589 0.2650
vn 0.8480 -0.5119 0.1372
vn 0.8840 0.4516 -0.1210
vn -0.8840 0.4516 -0.1210
vn -0.8480 -0.5119 0.1372
vn 0.8480 -0.5299 -0.0000
vn 0.8840 0.4675 -0.0000
vn -0.8840 0.4675 -0.0000
vn -0.8480 -0.5299 -0.0000
vn 0.8480 -0.5119 -0.1372
vn 0.8840 0.4516 0.1210
vn -0.8840 0.4516 0.1210
vn -0.8480 -0.5119 -0.1372
vn 0.8480 -0.4589 -0.2650
vn 0.8840 0.4049 0.2337
vn -0.8840 0.4049 0.2337
vn -0.8480 -0.4589 -0.2650
vn 0.8480 -0.3747 -0.3747
vn 0.8840 0.3306 0.3306
vn -0.8840 0.3306 0.3306
vn -0.8480 -0.3747 -0.3747
vn 0.8480 -0.2650 -0.4589
vn 0.8840 0.2337 0.4049
vn -0.8840 0.2337 0.4049
vn -0.8480 -0.2650 -0.4589
vn 0.8480 -0.1372 -0.5119
vn 0.8840 0.1210 0.4516
vn -0.8840 0.1210 0.4516
vn -0.8480 -0.1372 -0.5119
vt 0.500000 0.500000
vt 0.500000 0.333333
vt 0.541667 0.333333
vt 0.541667 0.500000
vt 1.000000 0.500000
vt 0.958333 0.500000
vt 0.958333 0.333333
vt 1.000000 0.333333
vt 1.000000 0.666667
vt 0.958333 0.666667
vt 1.000000 1.000000
vt 0.958333 1.000000
vt 0.958333 0.833333
vt 1.000000 0.833333
vt 0.041667 0.666667
vt 0.000000 0.666667
vt 0.000000 0.500000
vt 0.041667 0.500000
vt 0.041667 0.166667
vt 0.000000 0.166667
vt 0.000000 0.000000
vt 0.041667 0.000000
vt 0.583333 0.833333
vt 0.541667 0.833333
vt 0.541667 0.666667
vt 0.583333 0.666667
vt 0.041667 1.000000
vt 0.000000 1.000000
vt 0.000000 0.833333
vt 0.041667 0.833333
vt 0.083333 0.833333
vt 0.083333 0.666667
vt 0.583333 0.500000
vt 0.583333 0.333333
vt 0.083333 0.000000
vt 0.083333 0.166667
vt 0.625000 0.333333
vt 0.625000 0.500000
vt 0.125000 0.166667
vt 0.125000 0.000000
vt 0.666667 0.666667
vt 0.625000 0.666667
vt 0.666667 0.500000
vt 0.666667 0.333333
vt 0.708333 0.333333
vt 0.708333 0.500000
vt 0.083333 0.500000
vt 0.083333 0.333333
vt 0.125000 0.333333
vt 0.125000 0.500000
vt 0.750000 0.500000
vt 0.750000 0.333333
vt 0.166667 0.833333
vt 0.125000 0.833333
vt 0.125000 0.666667
vt 0.166667 0.666667
vt 0.166667 1.000000
vt 0.125000 1.000000
vt 0.166667 0.000000
vt 0.166667 0.166667
vt 0.166667 0.333333
vt 0.166667 0.500000
vt 0.208333 1.000000
vt 0.208333 0.833333
vt 0.208333 0.166667
vt 0.208333 0.000000
vt 0.750000 0.666667
vt 0.708333 0.666667
vt 0.791667 0.333333
vt 0.791667 0.500000
vt 0.208333 0.333333
vt 0.208333 0.500000
vt 0.833333 0.500000
vt 0.833333 0.333333
vt 0.250000 0.833333
vt 0.208333 0.666667
vt 0.250000 0.666667
vt 0.250000 1.000000
vt 0.250000 0.000000
vt 0.250000 0.166667
vt 0.250000 0.333333
vt 0.250000 0.500000
vt 0.291667 1.000000
vt 0.291667 0.833333
vt 0.291667 0.166667
vt 0.291667 0.000000
vt 0.833333 0.666667
vt 0.791667 0.666667
vt 0.875000 0.333333
vt 0.875000 0.500000
vt 0.291667 0.333333
vt 0.291667 0.500000
vt 0.916667 0.500000
vt 0.916667 0.333333
vt 0.333333 0.833333
vt 0.291667 0.666667
vt 0.333333 0.666667
vt 0.333333 1.000000
vt 0.333333 0.000000
vt 0.333333 0.166667
vt 0.333333 0.333333
vt 0.333333 0.500000
vt 0.375000 1.000000
vt 0.375000 0.833333
vt 0.375000 0.166667
vt 0.375000 0.000000
vt 0.916667 0.666667
vt 0.875000 0.666667
vt 0.375000 0.333333
vt 0.375000 0.500000
vt 0.916667 0.833333
vt 0.416667 0.000000
vt 0.416667 0.166667
vt 0.416667 1.000000
vt 0.416667 0.833333
vt 0.416667 0.500000
vt 0.416667 0.333333
vt 0.458333 0.333333
vt 0.458333 0.500000
vt 0.916667 1.000000
vt 0.541667 0.166667
vt 0.500000 0.166667
vt 0.500000 0.000000
vt 0.541667 0.000000
vt 0.375000 0.666667
vt 0.416667 0.666667
vt 0.500000 0.666667
vt 0.458333 0.666667
vt 0.458333 0.833333
vt 0.458333 0.166667
vt 0.583333 1.000000
vt 0.541667 1.000000
vt 0.583333 0.000000
vt 0.583333 0.166667
vt 0.625000 1.000000
vt 0.625000 0.833333
vt 0.625000 0.166667
vt 0.625000 0.000000
vt 0.500000 0.833333
vt 0.666667 0.833333
vt 0.666667 1.000000
vt 0.666667 0.000000
vt 0.666667 0.166667
vt 0.708333 0.833333
vt 0.708333 1.000000
vt 0.708333 0.166667
vt 0.708333 0.000000
vt 0.750000 0.833333
vt 0.750000 1.000000
vt 0.750000 0.000000
vt 0.750000 0.166667
vt 0.791667 0.833333
vt 0.791667 1.000000
vt 0.791667 0.166667
vt 0.791667 0.000000
vt 0.833333 0.833333
vt 0.833333 1.000000
vt 0.833333 0.000000
vt 0.833333 0.166667
vt 0.875000 0.833333
vt 0.875000 1.000000
vt 0.875000 0.166667
vt 0.875000 0.000000
vt 0.916667 0.000000
vt 0.916667 0.166667
vt 0.958333 0.166667
vt 0.958333 0.000000
vt 1.000000 0.166667
vt 1.000000 0.000000
vt 0.458333 0.000000
vt 0.458333 1.000000
vt 0.000000 0.333333
vt 0.041667 0.333333
vt 0.083333 1.000000
vt 0.500000 1.000000
s 1
f 1/1/1 6/2/6 12/3/12 7/4/7
f 73/5/4 67/6/67 72/7/72 78/8/76
f 74/9/73 68/10/68 67/6/67 73/5/4
f 76/11/1 70/12/70 69/13/69 75/14/74
f 80/15/77 74/16/73 73/17/4 79/18/10
f 83/19/79 77/20/75 76/21/1 82/22/7
f 15/23/15 9/24/9 8/25/8 14/26/14
f 82/27/7 76/28/1 75/29/74 81/30/78
f 87/31/82 81/30/78 80/15/77 86/32/81
f 13/33/13 7/4/7 12/3/12 18/34/18
f 83/19/79 82/22/7 88/35/13 89/36/83
f 13/33/13 18/34/18 24/37/24 19/38/19
f 95/39/87 89/36/83 88/35/13 94/40/19
f 26/41/26 20/42/20 19/38/19 25/43/25
f 25/43/25 30/44/30 36/45/36 31/46/31
f 85/47/16 90/48/84 96/49/88 91/50/22
f 37/51/37 31/46/31 36/45/36 42/52/42
f 96/49/88 90/48/84 89/36/83 95/39/87
f 99/53/90 93/54/86 92/55/85 98/56/89
f 100/57/25 94/58/19 93/54/86 99/53/90
f 95/39/87 94/40/19 100/59/25 101/60/91
f 102/61/92 96/49/88 95/39/87 101/60/91
f 97/62/28 91/50/22 96/49/88 102/61/92
f 106/63/31 100/57/25 99/53/90 105/64/94
f 107/65/95 101/60/91 100/59/25 106/66/31
f 38/67/38 32/68/32 31/46/31 37/51/37
f 37/51/37 42/52/42 48/69/48 43/70/43
f 97/62/28 102/61/92 108/71/96 103/72/34
f 49/73/49 43/70/43 48/69/48 54/74/54
f 108/71/96 102/61/92 101/60/91 107/65/95
f 111/75/98 105/64/94 104/76/93 110/77/97
f 112/78/37 106/63/31 105/64/94 111/75/98
f 107/65/95 106/66/31 112/79/37 113/80/99
f 114/81/100 108/71/96 107/65/95 113/80/99
f 109/82/40 103/72/34 108/71/96 114/81/100
f 118/83/43 112/78/37 111/75/98 117/84/102
f 119/85/103 113/80/99 112/79/37 118/86/43
f 50/87/50 44/88/44 43/70/43 49/73/49
f 49/73/49 54/74/54 60/89/60 55/90/55
f 109/82/40 114/81/100 120/91/104 115/92/46
f 61/93/61 55/90/55 60/89/60 66/94/66
f 120/91/104 114/81/100 113/80/99 119/85/103
f 123/95/106 117/84/102 116/96/101 122/97/105
f 124/98/49 118/83/43 117/84/102 123/95/106
f 119/85/103 118/86/43 124/99/49 125/100/107
f 126/101/108 120/91/104 119/85/103 125/100/107
f 121/102/52 115/92/46 120/91/104 126/101/108
f 130/103/55 124/98/49 123/95/106 129/104/110
f 131/105/111 125/100/107 124/99/49 130/106/55
f 62/107/62 56/108/56 55/90/55 61/93/61
f 61/93/61 66/94/66 72/7/72 67/6/67
f 121/102/52 126/101/108 132/109/112 127/110/58
f 69/13/69 63/111/63 62/107/62 68/10/68
f 132/109/112 126/101/108 125/100/107 131/105/111
f 131/105/111 130/106/55 136/112/61 137/113/115
f 136/114/61 130/103/55 129/104/110 135/115/114
f 133/116/64 127/110/58 132/109/112 138/117/116
f 133/116/64 138/117/116 144/118/120 139/119/70
f 137/113/115 138/117/116 132/109/112 131/105/111
f 70/12/70 64/120/64 63/111/63 69/13/69
f 11/121/11 5/122/5 4/123/4 10/124/10
f 135/115/114 129/104/110 128/125/109 134/126/113
f 7/4/7 8/25/8 2/127/2 1/1/1
f 140/128/117 141/129/118 135/115/114 134/126/113
f 81/30/78 75/29/74 74/16/73 80/15/77
f 12/3/12 6/2/6 5/122/5 11/121/11
f 144/118/120 138/117/116 137/113/115 143/130/119
f 16/131/16 10/132/10 9/24/9 15/23/15
f 11/121/11 10/124/10 16/133/16 17/134/17
f 17/134/17 18/34/18 12/3/12 11/121/11
f 5/122/5 6/2/6 144/118/120 143/130/119
f 22/135/22 16/131/16 15/23/15 21/136/21
f 23/137/23 17/134/17 16/133/16 22/138/22
f 3/139/3 141/129/118 140/128/117 2/127/2
f 19/38/19 20/42/20 14/26/14 13/33/13
f 92/55/85 86/32/81 85/47/16 91/50/22
f 93/54/86 87/31/82 86/32/81 92/55/85
f 24/37/24 18/34/18 17/134/17 23/137/23
f 27/140/27 21/136/21 20/42/20 26/41/26
f 28/141/28 22/135/22 21/136/21 27/140/27
f 23/137/23 22/138/22 28/142/28 29/143/29
f 29/143/29 30/44/30 24/37/24 23/137/23
f 32/68/32 33/144/33 27/140/27 26/41/26
f 34/145/34 28/141/28 27/140/27 33/144/33
f 35/146/35 29/143/29 28/142/28 34/147/34
f 98/56/89 92/55/85 91/50/22 97/62/28
f 31/46/31 32/68/32 26/41/26 25/43/25
f 104/76/93 98/56/89 97/62/28 103/72/34
f 105/64/94 99/53/90 98/56/89 104/76/93
f 36/45/36 30/44/30 29/143/29 35/146/35
f 39/148/39 33/144/33 32/68/32 38/67/38
f 40/149/40 34/145/34 33/144/33 39/148/39
f 35/146/35 34/147/34 40/150/40 41/151/41
f 41/151/41 42/52/42 36/45/36 35/146/35
f 44/88/44 45/152/45 39/148/39 38/67/38
f 46/153/46 40/149/40 39/148/39 45/152/45
f 47/154/47 41/151/41 40/150/40 46/155/46
f 110/77/97 104/76/93 103/72/34 109/82/40
f 43/70/43 44/88/44 38/67/38 37/51/37
f 116/96/101 110/77/97 109/82/40 115/92/46
f 117/84/102 111/75/98 110/77/97 116/96/101
f 48/69/48 42/52/42 41/151/41 47/154/47
f 51/156/51 45/152/45 44/88/44 50/87/50
f 52/157/52 46/153/46 45/152/45 51/156/51
f 47/154/47 46/155/46 52/158/52 53/159/53
f 53/159/53 54/74/54 48/69/48 47/154/47
f 56/108/56 57/160/57 51/156/51 50/87/50
f 58/161/58 52/157/52 51/156/51 57/160/57
f 59/162/59 53/159/53 52/158/52 58/163/58
f 122/97/105 116/96/101 115/92/46 121/102/52
f 55/90/55 56/108/56 50/87/50 49/73/49
f 128/125/109 122/97/105 121/102/52 127/110/58
f 129/104/110 123/95/106 122/97/105 128/125/109
f 60/89/60 54/74/54 53/159/53 59/162/59
f 63/111/63 57/160/57 56/108/56 62/107/62
f 64/120/64 58/161/58 57/160/57 63/111/63
f 59/162/59 58/163/58 64/164/64 65/165/65
f 65/165/65 66/94/66 60/89/60 59/162/59
f 71/166/71 65/165/65 64/164/64 70/167/70
f 72/7/72 66/94/66 65/165/65 71/166/71
f 68/10/68 62/107/62 61/93/61 67/6/67
f 134/126/113 128/125/109 127/110/58 133/116/64
f 78/8/76 72/7/72 71/166/71 77/168/75
f 8/25/8 9/24/9 3/139/3 2/127/2
f 75/14/74 69/13/69 68/10/68 74/9/73
f 71/166/71 70/167/70 76/169/1 77/168/75
f 139/119/70 140/128/117 134/126/113 133/116/64
f 143/130/119 137/113/115 136/112/61 142/170/67
f 14/26/14 8/25/8 7/4/7 13/33/13
f 142/171/67 136/114/61 135/115/114 141/129/118
f 73/17/4 78/172/76 84/173/80 79/18/10
f 1/1/1 139/119/70 144/118/120 6/2/6
f 84/173/80 78/172/76 77/20/75 83/19/79
f 5/122/5 143/130/119 142/170/67 4/123/4
f 25/43/25 19/38/19 24/37/24 30/44/30
f 86/32/81 80/15/77 79/18/10 85/47/16
f 2/127/2 140/128/117 139/119/70 1/1/1
f 88/174/13 82/27/7 81/30/78 87/31/82
f 4/175/4 142/171/67 141/129/118 3/139/3
f 85/47/16 79/18/10 84/173/80 90/48/84
f 94/58/19 88/174/13 87/31/82 93/54/86
f 20/42/20 21/136/21 15/23/15 14/26/14
f 90/48/84 84/173/80 83/19/79 89/36/83
f 10/132/10 4/175/4 3/139/3 9/24/9
