# Blender 4.1.1
# www.blender.org
mtllib Ring_LOD3.mtl
o Torus
v -0.000000 0.625000 -1.082532
v 0.216506 0.562500 -0.974279
v -0.000000 0.375000 -0.649519
v -0.216506 0.562500 -0.974279
v 0.000000 1.250000 -0.000000
v 0.216506 1.125000 -0.000000
v 0.000000 0.750000 -0.000000
v -0.216506 1.125000 -0.000000
v 0.000000 0.625000 1.082532
v 0.216506 0.562500 0.974278
v 0.000000 0.375000 0.649519
v -0.216506 0.562500 0.974278
v 0.000000 -0.625000 1.082532
v 0.216506 -0.562500 0.974279
v 0.000000 -0.375000 0.649519
v -0.216506 -0.562500 0.974279
v -0.000000 -1.250000 -0.000000
v 0.216506 -1.125000 -0.000000
v -0.000000 -0.750000 -0.000000
v -0.216506 -1.125000 -0.000000
v -0.000000 -0.625000 -1.082532
v 0.216506 -0.562500 -0.974279
v -0.000000 -0.375000 -0.649519
v -0.216506 -0.562500 -0.974279
vn -0.0000 0.5000 -0.8660
vn 0.8948 0.2232 -0.3866
vn -0.0000 -0.5000 0.8660
vn -0.8948 0.2232 -0.3866
vn -0.0000 1.0000 -0.0000
vn 0.8948 0.4464 -0.0000
vn -0.0000 -1.0000 -0.0000
vn -0.8948 0.4464 -0.0000
vn -0.0000 0.5000 0.8660
vn 0.8948 0.2232 0.3866
vn -0.0000 -0.5000 -0.8660
vn -0.8948 0.2232 0.3866
vn 0.8948 -0.2232 0.3866
vn -0.8948 -0.2232 0.3866
vn 0.8948 -0.4464 -0.0000
vn -0.8948 -0.4464 -0.0000
vn 0.8948 -0.2232 -0.3866
vn -0.8948 -0.2232 -0.3866
vt 0.916667 0.500000
vt 0.750000 0.500000
vt 0.750000 0.333333
vt 0.916667 0.333333
vt 0.083333 0.666667
vt 0.916667 0.666667
vt 0.083333 0.500000
vt 0.250000 0.500000
vt 0.083333 0.333333
vt 0.250000 0.333333
vt 0.916667 0.000000
vt 0.083333 0.000000
vt 0.250000 0.666667
vt 0.416667 0.666667
vt 0.416667 1.000000
vt 0.250000 1.000000
vt 0.250000 0.000000
vt 0.750000 0.666667
vt 0.416667 0.000000
vt 0.416667 0.333333
vt 0.583333 0.666667
vt 0.583333 1.000000
vt 0.416667 0.500000
vt 0.583333 0.500000
vt 0.916667 1.000000
vt 0.750000 1.000000
vt 0.583333 0.333333
vt 0.083333 1.000000
vt 0.583333 0.000000
vt 0.750000 0.000000
s 1
f 9/1/9 5/2/5 8/3/8 12/4/12
f 14/5/13 10/6/10 9/1/9 13/7/3
f 17/8/7 13/7/3 16/9/14 20/10/16
f 11/11/11 15/12/1 16/9/14 12/4/12
f 18/13/15 22/14/17 23/15/9 19/16/5
f 20/10/16 16/9/14 15/12/1 19/17/5
f 10/6/10 6/18/6 5/2/5 9/1/9
f 13/7/3 9/1/9 12/4/12 16/9/14
f 18/13/15 14/5/13 13/7/3 17/8/7
f 23/19/9 24/20/18 20/10/16 19/17/5
f 23/15/9 22/14/17 2/21/2 3/22/3
f 22/14/17 18/13/15 17/8/7 21/23/11
f 2/21/2 1/24/1 5/2/5 6/18/6
f 6/18/6 10/6/10 11/25/11 7/26/7
f 5/2/5 1/24/1 4/27/4 8/3/8
f 14/5/13 18/13/15 19/16/5 15/28/1
f 4/27/4 3/29/3 7/30/7 8/3/8
f 11/11/11 12/4/12 8/3/8 7/30/7
f 10/6/10 14/5/13 15/28/1 11/25/11
f 21/23/11 17/8/7 20/10/16 24/20/18
f 7/26/7 3/22/3 2/21/2 6/18/6
f 1/24/1 21/23/11 24/20/18 4/27/4
f 22/14/17 21/23/11 1/24/1 2/21/2
f 3/29/3 4/27/4 24/20/18 23/19/9
