# Blender 4.1.1
# www.blender.org
mtllib StarRing_LOD3.mtl
o Torus.003
v 0.000000 0.625000 -1.082532
v 0.216506 0.562500 -0.974279
v 0.000000 0.375000 -0.649519
v -0.216506 0.562500 -0.974279
v 0.000000 1.250000 -0.000000
v 0.216506 1.125000 -0.000000
v 0.000000 0.750000 -0.000000
v -0.216506 1.125000 -0.000000
v 0.000000 0.625000 1.082532
v 0.216506 0.562500 0.974278
v 0.000000 0.375000 0.649519
v -0.216506 0.562500 0.974278
v 0.000000 -0.625000 1.082532
v 0.216506 -0.562500 0.974279
v 0.000000 -0.375000 0.649519
v -0.216506 -0.562500 0.974279
v 0.000000 -1.250000 0.000000
v 0.216506 -1.125000 0.000000
v 0.000000 -0.750000 0.000000
v -0.216506 -1.125000 0.000000
v 0.000000 -0.625000 -1.082532
v 0.216506 -0.562500 -0.974279
v 0.000000 -0.375000 -0.649519
v -0.216506 -0.562500 -0.974279
vn -0.0000 0.5000 0.8660
vn -0.0000 1.0000 -0.0000
vn -0.8948 0.4464 -0.0000
vn -0.8948 0.2232 0.3866
vn 0.8948 -0.2232 0.3866
vn 0.8948 0.2232 0.3866
vn -0.0000 -0.5000 0.8660
vn -0.0000 -1.0000 -0.0000
vn -0.8948 -0.2232 0.3866
vn -0.8948 -0.4464 -0.0000
vn -0.0000 -0.5000 -0.8660
vn -0.0000 0.5000 -0.8660
vn 0.8948 -0.4464 -0.0000
vn 0.8948 -0.2232 -0.3866
vn 0.8948 0.4464 -0.0000
vn -0.8948 -0.2232 -0.3866
vn 0.8948 0.2232 -0.3866
vn -0.8948 0.2232 -0.3866
vt 0.916667 0.500000
vt 0.750000 0.500000
vt 0.750000 0.333333
vt 0.916667 0.333333
vt 0.083333 0.666667
vt 0.916667 0.666667
vt 0.083333 0.500000
vt 0.250000 0.500000
vt 0.083333 0.333333
vt 0.250000 0.333333
vt 0.916667 0.000000
vt 0.083333 0.000000
vt 0.250000 0.666667
vt 0.416667 0.666667
vt 0.416667 1.000000
vt 0.250000 1.000000
vt 0.250000 0.000000
vt 0.750000 0.666667
vt 0.416667 0.000000
vt 0.416667 0.333333
vt 0.583333 0.666667
vt 0.583333 1.000000
vt 0.416667 0.500000
vt 0.583333 0.500000
vt 0.916667 1.000000
vt 0.750000 1.000000
vt 0.583333 0.333333
vt 0.083333 1.000000
vt 0.583333 0.000000
vt 0.750000 0.000000
s 1
usemtl RingMat
f 9/1/1 5/2/2 8/3/3 12/4/4
f 14/5/5 10/6/6 9/1/1 13/7/7
f 17/8/8 13/7/7 16/9/9 20/10/10
f 11/11/11 15/12/12 16/9/9 12/4/4
f 18/13/13 22/14/14 23/15/1 19/16/2
f 20/10/10 16/9/9 15/12/12 19/17/2
f 10/6/6 6/18/15 5/2/2 9/1/1
f 13/7/7 9/1/1 12/4/4 16/9/9
f 18/13/13 14/5/5 13/7/7 17/8/8
f 23/19/1 24/20/16 20/10/10 19/17/2
f 23/15/1 22/14/14 2/21/17 3/22/7
f 22/14/14 18/13/13 17/8/8 21/23/11
f 2/21/17 1/24/12 5/2/2 6/18/15
f 6/18/15 10/6/6 11/25/11 7/26/8
f 5/2/2 1/24/12 4/27/18 8/3/3
f 14/5/5 18/13/13 19/16/2 15/28/12
f 4/27/18 3/29/7 7/30/8 8/3/3
f 11/11/11 12/4/4 8/3/3 7/30/8
f 10/6/6 14/5/5 15/28/12 11/25/11
f 21/23/11 17/8/8 20/10/10 24/20/16
f 7/26/8 3/22/7 2/21/17 6/18/15
f 1/24/12 21/23/11 24/20/16 4/27/18
f 22/14/14 21/23/11 1/24/12 2/21/17
f 3/29/7 4/27/18 24/20/16 23/19/1
o Plane
v -0.000000 0.800000 0.800000
v 0.000000 -0.800000 0.800000
v -0.000000 0.800000 -0.800000
v 0.000000 -0.800000 -0.800000
v -0.125000 0.000000 0.000000
v -0.000000 0.800000 -0.800000
v 0.000000 -0.800000 -0.800000
v -0.000000 0.800000 0.800000
v 0.000000 -0.800000 0.800000
v -0.125000 0.000000 0.000000
v -0.000000 0.800000 0.800000
v 0.000000 -0.800000 0.800000
v -0.000000 0.800000 -0.800000
v 0.000000 -0.800000 -0.800000
v 0.125000 0.000000 0.000000
v -0.000000 0.800000 -0.800000
v 0.000000 -0.800000 -0.800000
v -0.000000 0.800000 0.800000
v 0.000000 -0.800000 0.800000
v 0.125000 0.000000 0.000000
vn -0.9940 0.0777 0.0777
vn -0.9940 -0.0777 0.0777
vn -0.9940 0.0777 -0.0777
vn -0.9940 -0.0777 -0.0777
vn -1.0000 -0.0000 -0.0000
vn 0.9940 0.0777 0.0777
vn 0.9940 -0.0777 0.0777
vn 0.9940 0.0777 -0.0777
vn 0.9940 -0.0777 -0.0777
vn 1.0000 -0.0000 -0.0000
vt 0.000000 1.000000
vt 0.500000 0.500000
vt 0.000000 0.000000
vt 1.000000 0.000000
vt 1.000000 1.000000
s 1
usemtl StarMat
f 25/31/19 29/32/23 26/33/20
f 26/33/20 29/32/23 28/34/22
f 28/34/22 29/32/23 27/35/21
f 27/35/21 29/32/23 25/31/19
f 30/31/21 31/33/22 34/32/23
f 31/33/22 33/34/20 34/32/23
f 33/34/20 32/35/19 34/32/23
f 32/35/19 30/31/21 34/32/23
f 35/31/24 36/33/25 39/32/28
f 36/33/25 38/34/27 39/32/28
f 38/34/27 37/35/26 39/32/28
f 37/35/26 35/31/24 39/32/28
f 40/31/26 44/32/28 41/33/27
f 41/33/27 44/32/28 43/34/25
f 43/34/25 44/32/28 42/35/24
f 42/35/24 44/32/28 40/31/26
