# Blender 4.1.1
# www.blender.org
mtllib RoadRail_Angle.mtl
o Road_Rail.009
v 4.176514 -14.062427 20.083176
v 6.256592 -0.000021 -0.000013
v 6.256592 -14.062427 20.083176
v 0.921509 -0.000021 -0.000013
v 2.136475 -0.000021 -0.000013
v 0.686523 -0.000021 -0.000015
v 0.211548 -14.062426 20.083176
v 0.211548 -0.000021 -0.000015
v 0.686523 -14.062426 20.083176
v 0.706543 -0.012320 -0.008626
v 0.706543 -14.074725 20.074564
v 0.906494 -14.074725 20.074564
v 0.921509 -14.062427 20.083176
v 2.136475 -14.062427 20.083176
v 4.176514 -0.000021 -0.000013
v 7.006592 -14.062427 20.083176
v 7.006592 -0.000021 -0.000013
v 10.000000 0.159670 0.111802
v 7.151489 -13.902735 20.194992
v 10.000000 -13.902735 20.194992
v 7.011597 -13.919134 20.183510
v 7.011597 0.143272 0.100320
v 7.151489 0.159670 0.111802
v 7.031616 -13.902735 20.194992
v 7.031616 0.159670 0.111802
v 0.176514 -0.000021 -0.000015
v 0.051636 -14.062426 20.083176
v 0.806641 -0.118814 -0.083194
v 0.891479 -0.000021 -0.000015
v 0.891479 -14.062426 20.083176
v 0.741577 -0.000021 -0.000015
v 0.721558 -14.062426 20.083176
v 0.721558 -0.000021 -0.000015
v 0.741577 -14.062426 20.083176
v 0.756592 -0.012320 -0.008626
v 0.756592 -14.074725 20.074564
v 0.756592 -0.118814 -0.083194
v 0.756592 -14.181219 19.999996
v 0.806641 -14.181219 19.999996
v 0.806641 -14.074725 20.074564
v 0.906494 -0.012320 -0.008626
v 0.806641 -0.012320 -0.008626
v 0.821655 -0.000021 -0.000015
v 0.821655 -14.062426 20.083176
v 0.036621 -14.181219 19.999996
v 0.036621 -0.012320 -0.008626
v 0.036621 -0.118814 -0.083194
v 0.036621 -14.074725 20.074564
v 0.196533 -0.012320 -0.008626
v 0.176514 -14.062426 20.083176
v 0.196533 -14.074725 20.074564
v 0.051636 -0.000021 -0.000015
v 5.906494 0.016378 0.011468
v 5.556641 0.016378 0.011468
v 5.556641 -14.046026 20.094658
v 5.906494 -14.046026 20.094658
v 1.936523 0.016378 0.011468
v 1.526611 -14.046026 20.094658
v 1.526611 0.016378 0.011468
v 1.936523 -14.046026 20.094658
v 0.000000 -14.181219 19.999996
v 0.000000 -0.118814 -0.083194
v -4.176514 -14.062427 20.083176
v -6.256592 -0.000021 -0.000013
v -6.256592 -14.062427 20.083176
v -0.921509 -0.000021 -0.000013
v -2.136475 -0.000021 -0.000013
v -0.686523 -0.000021 -0.000015
v -0.211548 -14.062426 20.083176
v -0.211548 -0.000021 -0.000015
v -0.686523 -14.062426 20.083176
v -0.706543 -0.012320 -0.008626
v -0.706543 -14.074725 20.074564
v -0.906494 -14.074725 20.074564
v -0.921509 -14.062427 20.083176
v -2.136475 -14.062427 20.083176
v -4.176514 -0.000021 -0.000013
v -7.006592 -14.062427 20.083176
v -7.006592 -0.000021 -0.000013
v -10.000000 0.159670 0.111802
v -7.151489 -13.902735 20.194992
v -10.000000 -13.902735 20.194992
v -7.011597 -13.919134 20.183510
v -7.011597 0.143272 0.100320
v -7.151489 0.159670 0.111802
v -7.031616 -13.902735 20.194992
v -7.031616 0.159670 0.111802
v -0.176514 -0.000021 -0.000015
v -0.051636 -14.062426 20.083176
v -0.806641 -0.118814 -0.083194
v -0.891479 -0.000021 -0.000015
v -0.891479 -14.062426 20.083176
v -0.741577 -0.000021 -0.000015
v -0.721558 -14.062426 20.083176
v -0.721558 -0.000021 -0.000015
v -0.741577 -14.062426 20.083176
v -0.756592 -0.012320 -0.008626
v -0.756592 -14.074725 20.074564
v -0.756592 -0.118814 -0.083194
v -0.756592 -14.181219 19.999996
v -0.806641 -14.181219 19.999996
v -0.806641 -14.074725 20.074564
v -0.906494 -0.012320 -0.008626
v -0.806641 -0.012320 -0.008626
v -0.821655 -0.000021 -0.000015
v -0.821655 -14.062426 20.083176
v -0.036621 -14.181219 19.999996
v -0.036621 -0.012320 -0.008626
v -0.036621 -0.118814 -0.083194
v -0.036621 -14.074725 20.074564
v -0.196533 -0.012320 -0.008626
v -0.176514 -14.062426 20.083176
v -0.196533 -14.074725 20.074564
v -0.051636 -0.000021 -0.000015
v -5.906494 0.016378 0.011468
v -5.556641 0.016378 0.011468
v -5.556641 -14.046026 20.094658
v -5.906494 -14.046026 20.094658
v -1.936523 0.016378 0.011468
v -1.526611 -14.046026 20.094658
v -1.526611 0.016378 0.011468
v -1.936523 -14.046026 20.094658
vn -0.0000 0.8192 0.5736
vn 0.3055 0.8989 0.3142
vn 0.0161 0.8190 0.5735
vn -0.2341 0.7962 0.5578
vn 0.0763 0.8168 0.5719
vn -0.0585 0.9963 0.0628
vn 0.6717 0.6347 0.3820
vn -0.2108 0.8003 0.5613
vn 0.6876 0.5359 0.4899
vn -0.0609 0.9929 0.1025
vn 0.6990 0.5856 0.4104
vn 0.0006 0.9987 0.0502
vn -0.3055 0.8988 0.3143
vn -0.0763 0.8169 0.5717
vn 0.2341 0.7964 0.5576
vn -0.0161 0.8190 0.5735
vn -0.6717 0.6347 0.3820
vn 0.0584 0.9963 0.0628
vn -0.0763 0.8168 0.5719
vn 0.2108 0.8007 0.5607
vn 0.0606 0.9929 0.1024
vn -0.6876 0.5359 0.4899
vn -0.0005 0.9987 0.0502
vn -0.6990 0.5857 0.4102
vn -0.3742 0.8896 0.2619
vn -0.7047 0.5812 0.4070
vn -1.0000 0.0026 0.0018
vn -0.6980 0.5655 0.4392
vn -0.5034 0.8277 -0.2480
vn 0.0073 0.8190 0.5737
vn -0.0001 0.8195 0.5731
vn 0.3741 0.8896 0.2620
vn 0.6980 0.5656 0.4392
vn 1.0000 0.0027 0.0018
vn 0.7046 0.5813 0.4070
vn 0.5035 0.8276 -0.2481
vn -0.0074 0.8191 0.5736
vn 0.0001 0.8195 0.5731
vn 0.0141 0.8191 0.5735
vn 0.6406 0.6290 0.4404
vn -0.3736 0.8473 0.3775
vn -0.1957 0.8025 0.5636
vn -0.8137 0.4755 0.3344
vn -0.8342 0.4501 0.3186
vn 0.0001 0.8192 0.5736
vn 0.6975 0.5870 0.4110
vn -0.0001 0.7886 -0.6149
vn -0.4999 0.8164 -0.2892
vn 0.0001 -0.1406 0.9901
vn 0.8790 0.4749 -0.0436
vn 0.7053 0.5738 0.4163
vn 0.0075 0.8285 0.5599
vn 0.6943 0.5895 0.4128
vn 0.5024 0.8143 -0.2906
vn 1.0000 -0.0015 -0.0000
vn -0.3735 0.8462 0.3800
vn -0.1915 0.8026 0.5649
vn -0.8192 0.4642 0.3367
vn -0.8350 0.4490 0.3180
vn -0.3726 0.8640 0.3387
vn -0.1954 0.7977 0.5706
vn -0.4995 0.8167 -0.2890
vn -1.0000 -0.0001 -0.0001
vn -0.6405 0.6291 0.4405
vn -0.0141 0.8191 0.5735
vn 0.3736 0.8472 0.3776
vn 0.8343 0.4500 0.3186
vn 0.8137 0.4762 0.3334
vn 0.1957 0.8033 0.5625
vn -0.6974 0.5869 0.4112
vn -0.0002 0.8192 0.5736
vn 0.4998 0.8164 -0.2892
vn -0.8790 0.4749 -0.0436
vn -0.6942 0.5897 0.4127
vn -0.0075 0.8285 0.5599
vn -0.7054 0.5737 0.4163
vn -1.0000 -0.0010 -0.0007
vn -0.5024 0.8143 -0.2906
vn 0.3735 0.8462 0.3801
vn 0.8351 0.4489 0.3179
vn 0.8192 0.4642 0.3368
vn 0.1915 0.8040 0.5630
vn 0.3726 0.8640 0.3387
vn 0.1954 0.7977 0.5706
vn 1.0000 -0.0001 -0.0003
vn 0.4995 0.8167 -0.2890
vt 0.250000 2.500000
vt 0.250000 -1.500000
vt 0.750000 -1.500000
vt 0.750000 2.500000
vt 0.347811 2.499997
vt 0.347811 -1.499997
vt 0.450191 -1.499997
vt 0.450191 2.499997
vt 0.341457 2.499997
vt 0.341459 -1.499997
vt 0.001096 2.499997
vt 0.001096 -1.499997
vt 0.279063 -1.499997
vt 0.279063 2.499997
vt 0.459478 -1.499997
vt 0.459478 2.499997
vt 0.286520 -1.499997
vt 0.286520 2.499997
vt 0.807705 2.500000
vt 0.807705 -1.500000
vt 0.812883 -1.500000
vt 0.812883 2.500000
vt 0.846124 2.500000
vt 0.846124 -1.500000
vt 0.999059 -1.500000
vt 0.999059 2.500000
vt 0.000147 2.500000
vt 0.000147 -1.500000
vt 0.776155 -1.500000
vt 0.776155 2.500000
vt 1.000000 0.998443
vt 0.999989 0.000070
vt 0.900250 0.000070
vt 0.900250 0.998443
vt 0.606396 0.998443
vt 0.606388 0.000070
vt 0.494907 0.000070
vt 0.494912 0.998443
vt 0.999853 0.999930
vt 0.999849 0.000070
vt 0.897834 0.000070
vt 0.897834 0.999930
vt 0.055734 0.998443
vt 0.000004 0.998443
vt 0.000000 0.000070
vt 0.055736 0.000070
vt 0.083721 0.000070
vt 0.083725 0.998443
vt 0.510464 0.999930
vt 0.510455 0.000070
vt 0.602728 0.000070
vt 0.602728 0.999930
vt 0.000000 0.999930
vt 0.000004 0.000070
vt 0.510681 0.000070
vt 0.510676 0.999930
vt 0.999974 0.000070
vt 1.000000 0.999930
vt 0.120706 0.999930
vt 0.120710 0.000070
vt 2.499879 0.192070
vt -1.500000 0.192070
vt -1.499878 0.122400
vt 2.500000 0.123340
vt 1.999957 0.042090
vt -1.000013 0.038518
vt -0.999952 0.002500
vt 1.999987 0.007107
s 1
usemtl cte_ground_kd1_roada4_blend.036
f 3/1/1 2/2/1 15/3/1 1/4/1
f 65/1/1 63/4/1 77/3/1 64/2/1
usemtl cte_ground_kd1_roadd1.036
f 9/5/2 6/6/3 8/7/4 7/8/5
f 6/6/3 9/5/2 11/9/6 10/10/7
f 14/11/1 5/12/1 4/13/8 13/14/5
f 7/8/5 8/7/4 49/15/9 51/16/10
f 13/14/5 4/13/8 41/17/11 12/18/12
f 71/5/13 69/8/14 70/7/15 68/6/16
f 68/6/16 72/10/17 73/9/18 71/5/13
f 76/11/1 75/14/19 66/13/20 67/12/1
f 69/8/14 113/16/21 111/15/22 70/7/15
f 75/14/19 74/18/23 103/17/24 66/13/20
usemtl cte_ground_kd1_roada1_blend.035
f 1/1/1 15/2/1 5/3/1 14/4/1
f 63/1/1 76/4/1 67/3/1 77/2/1
usemtl cte_ground_kd1_roadc1.036
f 24/19/25 25/20/26 22/21/27 21/22/28
f 16/23/29 17/24/30 2/25/1 3/26/1
f 20/27/31 18/28/1 23/29/1 19/30/1
f 21/22/28 22/21/27 17/24/30 16/23/29
f 24/19/25 19/30/1 23/29/1 25/20/26
f 86/19/32 83/22/33 84/21/34 87/20/35
f 78/23/36 65/26/1 64/25/1 79/24/37
f 82/27/38 81/30/1 85/29/1 80/28/1
f 83/22/33 78/23/36 79/24/37 84/21/34
f 86/19/32 87/20/35 85/29/1 81/30/1
usemtl cte_metal_kd1_rail.033
f 51/31/10 49/32/9 26/33/39 50/34/40
f 27/35/41 52/36/42 46/37/43 48/38/44
f 12/39/12 41/40/11 29/41/45 30/42/46
f 61/43/47 45/44/48 47/45/45 62/46/49
f 48/38/44 46/37/43 47/47/45 45/48/48
f 36/49/50 35/50/51 31/51/52 34/52/53
f 35/50/51 36/49/50 38/53/54 37/54/55
f 44/52/56 43/51/57 42/55/58 40/56/59
f 50/34/40 26/33/39 52/36/42 27/35/41
f 32/42/60 33/41/61 10/57/7 11/58/6
f 30/42/46 29/41/45 43/51/57 44/52/56
f 32/42/60 34/52/53 31/51/52 33/41/61
f 38/53/54 39/59/62 28/60/63 37/54/55
f 40/56/59 42/55/58 28/60/63 39/59/62
f 113/31/21 112/34/64 88/33/65 111/32/22
f 89/35/66 110/38/67 108/37/68 114/36/69
f 74/39/23 92/42/70 91/41/71 103/40/24
f 61/43/47 62/46/49 109/45/71 107/44/72
f 110/38/67 107/48/72 109/47/71 108/37/68
f 98/49/73 96/52/74 93/51/75 97/50/76
f 97/50/76 99/54/77 100/53/78 98/49/73
f 106/52/79 102/56/80 104/55/81 105/51/82
f 112/34/64 89/35/66 114/36/69 88/33/65
f 94/42/83 73/58/18 72/57/17 95/41/84
f 92/42/70 106/52/79 105/51/82 91/41/71
f 94/42/83 95/41/84 93/51/75 96/52/74
f 100/53/78 99/54/77 90/60/85 101/59/86
f 102/56/80 101/59/86 90/60/85 104/55/81
usemtl cte_ground_kd1_line01.036
f 60/61/1 57/62/1 59/63/1 58/64/1
f 56/65/1 53/66/1 54/67/1 55/68/1
f 122/61/1 120/64/1 121/63/1 119/62/1
f 118/65/1 117/68/1 116/67/1 115/66/1
