# Blender 4.0.2
# www.blender.org
mtllib EdgeLoop16.mtl
o Circle
v -0.000000 1.000000 -0.000000
v 0.382683 0.923880 -0.000000
v 0.707107 0.707107 -0.000000
v 0.923880 0.382683 -0.000000
v 1.000000 0.000000 -0.000000
v 0.923880 -0.382683 -0.000000
v 0.707107 -0.707107 -0.000000
v 0.382683 -0.923880 0.000000
v 0.000000 -1.000000 0.000000
v -0.382683 -0.923880 0.000000
v -0.707107 -0.707107 0.000000
v -0.923880 -0.382683 0.000000
v -1.000000 0.000000 0.000000
v -0.923880 0.382683 0.000000
v -0.707107 0.707107 0.000000
v -0.382683 0.923880 -0.000000
vn -0.0000 -0.0000 -1.0000
vt 0.000000 0.000000
s 0
f 2/1/1 3/1/1 4/1/1 5/1/1 6/1/1 7/1/1 8/1/1 9/1/1 10/1/1 11/1/1 12/1/1 13/1/1 14/1/1 15/1/1 16/1/1 1/1/1
