# Blender 3.6.1
# www.blender.org
mtllib Ramp_I_N_2.mtl
o Ramp_I_N
v 1.000000 2.000000 -1.000000
v 1.000000 0.000000 1.000000
v 1.000000 0.002409 0.901865
v 1.000000 0.009631 0.803966
v 1.000000 0.021647 0.706539
v 1.000000 0.038429 0.609819
v 1.000000 0.059937 0.514040
v 1.000000 0.086119 0.419431
v 1.000000 0.116912 0.326220
v 1.000000 0.152241 0.234633
v 1.000000 0.192021 0.144890
v 1.000000 0.236158 0.057207
v 1.000000 0.284543 -0.028205
v 1.000000 0.337061 -0.111140
v 1.000000 0.393585 -0.191399
v 1.000000 0.453979 -0.268787
v 1.000000 0.518098 -0.343118
v 1.000000 0.585786 -0.414213
v 1.000000 0.656882 -0.481902
v 1.000000 0.731213 -0.546021
v 1.000000 0.808601 -0.606415
v 1.000000 0.888860 -0.662939
v 1.000000 0.971794 -0.715457
v 1.000000 1.057207 -0.763842
v 1.000000 1.144890 -0.807979
v 1.000000 1.234633 -0.847759
v 1.000000 1.326220 -0.883088
v 1.000000 1.419431 -0.913881
v 1.000000 1.514040 -0.940062
v 1.000000 1.609819 -0.961570
v 1.000000 1.706539 -0.978353
v 1.000000 1.803966 -0.990369
v 1.000000 1.901865 -0.997591
v -1.000000 0.000000 -1.000000
v -1.000000 0.000000 1.000000
v -1.000000 0.000000 0.912249
v -1.000000 0.000000 0.824706
v -1.000000 0.000000 0.737578
v -1.000000 0.000000 0.651072
v -1.000000 0.000000 0.565390
v -1.000000 0.000000 0.480731
v -1.000000 0.000000 0.397291
v -1.000000 0.000000 0.315258
v -1.000000 0.000000 0.234813
v -1.000000 0.000000 0.156131
v -1.000000 0.000000 0.079373
v -1.000000 0.000000 0.004692
v -1.000000 0.000000 -0.067774
v -1.000000 0.000000 -0.137904
v -1.000000 0.000000 -0.205591
v -1.000000 0.000000 -0.270750
v -1.000000 0.000000 -0.333318
v -1.000000 0.000000 -0.393253
v -1.000000 0.000000 -0.450541
v -1.000000 0.000000 -0.505194
v -1.000000 0.000000 -0.557253
v -1.000000 0.000000 -0.606790
v -1.000000 0.000000 -0.653906
v -1.000000 0.000000 -0.698732
v -1.000000 0.000000 -0.741433
v -1.000000 0.000000 -0.782199
v -1.000000 0.000000 -0.821249
v -1.000000 0.000000 -0.858827
v -1.000000 0.000000 -0.895201
v -1.000000 0.000000 -0.930653
v -1.000000 0.000000 -0.965484
v 0.600000 0.000000 1.000000
v 0.200000 0.000000 1.000000
v -0.200000 0.000000 1.000000
v -0.600000 0.000000 1.000000
v -0.600000 0.000482 0.910172
v -0.200000 0.000964 0.908095
v 0.200000 0.001445 0.906018
v 0.600000 0.001927 0.903942
v -0.600000 0.001926 0.820558
v -0.200000 0.003852 0.816410
v 0.200000 0.005779 0.812262
v 0.600000 0.007705 0.808114
v -0.600000 0.004329 0.731370
v -0.200000 0.008659 0.725163
v 0.200000 0.012988 0.718955
v 0.600000 0.017318 0.712747
v -0.600000 0.007686 0.642821
v -0.200000 0.015372 0.634571
v 0.200000 0.023057 0.626320
v 0.600000 0.030743 0.618070
v -0.600000 0.011987 0.555120
v -0.200000 0.023975 0.544850
v 0.200000 0.035962 0.534580
v 0.600000 0.047950 0.524310
v -0.600000 0.017224 0.468471
v -0.200000 0.034448 0.456211
v 0.200000 0.051671 0.443951
v 0.600000 0.068895 0.431691
v -0.600000 0.023382 0.383077
v -0.200000 0.046765 0.368863
v 0.200000 0.070147 0.354648
v 0.600000 0.093530 0.340434
v -0.600000 0.030448 0.299133
v -0.200000 0.060896 0.283008
v 0.200000 0.091345 0.266883
v 0.600000 0.121793 0.250758
v -0.600000 0.038404 0.216829
v -0.200000 0.076808 0.198844
v 0.200000 0.115213 0.180859
v 0.600000 0.153617 0.162875
v -0.600000 0.047232 0.136346
v -0.200000 0.094463 0.116561
v 0.200000 0.141695 0.096776
v 0.600000 0.188926 0.076992
v -0.600000 0.056909 0.057857
v -0.200000 0.113817 0.036342
v 0.200000 0.170726 0.014826
v 0.600000 0.227634 -0.006689
v -0.600000 0.067412 -0.018474
v -0.200000 0.134824 -0.041641
v 0.200000 0.202237 -0.064807
v 0.600000 0.269649 -0.087974
v -0.600000 0.078717 -0.092499
v -0.200000 0.157434 -0.117224
v 0.200000 0.236151 -0.141949
v 0.600000 0.314868 -0.166674
v -0.600000 0.090796 -0.164081
v -0.200000 0.181592 -0.190257
v 0.200000 0.272387 -0.216434
v 0.600000 0.363183 -0.242610
v -0.600000 0.103620 -0.233096
v -0.200000 0.207239 -0.260602
v 0.200000 0.310859 -0.288107
v 0.600000 0.414478 -0.315613
v -0.600000 0.117157 -0.299443
v -0.200000 0.234314 -0.328135
v 0.200000 0.351472 -0.356828
v 0.600000 0.468629 -0.385521
v -0.600000 0.131376 -0.363035
v -0.200000 0.262753 -0.392751
v 0.200000 0.394129 -0.422468
v 0.600000 0.525506 -0.452185
v -0.600000 0.146243 -0.423807
v -0.200000 0.292485 -0.454360
v 0.200000 0.438728 -0.484914
v 0.600000 0.584970 -0.515467
v -0.600000 0.161720 -0.481716
v -0.200000 0.323440 -0.512890
v 0.200000 0.485161 -0.544065
v 0.600000 0.646881 -0.575240
v -0.600000 0.177772 -0.536743
v -0.200000 0.355544 -0.568292
v 0.200000 0.533316 -0.599841
v 0.600000 0.711088 -0.631390
v -0.600000 0.194359 -0.588894
v -0.200000 0.388718 -0.620535
v 0.200000 0.583076 -0.652176
v 0.600000 0.777435 -0.683816
v -0.600000 0.211441 -0.638200
v -0.200000 0.422883 -0.669611
v 0.200000 0.634324 -0.701021
v 0.600000 0.845766 -0.732432
v -0.600000 0.228978 -0.684720
v -0.200000 0.457956 -0.715535
v 0.200000 0.686934 -0.746350
v 0.600000 0.915912 -0.777164
v -0.600000 0.246927 -0.728538
v -0.200000 0.493853 -0.758343
v 0.200000 0.740780 -0.788148
v 0.600000 0.987706 -0.817954
v -0.600000 0.265244 -0.769764
v -0.200000 0.530488 -0.798095
v 0.200000 0.795732 -0.826426
v 0.600000 1.060976 -0.854757
v -0.600000 0.283886 -0.808535
v -0.200000 0.567772 -0.834872
v 0.200000 0.851659 -0.861208
v 0.600000 1.135545 -0.887545
v -0.600000 0.302808 -0.845011
v -0.200000 0.605616 -0.868774
v 0.200000 0.908424 -0.892537
v 0.600000 1.211232 -0.916299
v -0.600000 0.321964 -0.879376
v -0.200000 0.643928 -0.899925
v 0.200000 0.965891 -0.920473
v 0.600000 1.287855 -0.941022
v -0.600000 0.341308 -0.911831
v -0.200000 0.682616 -0.928462
v 0.200000 1.023923 -0.945092
v 0.600000 1.365231 -0.961723
v -0.600000 0.360793 -0.942596
v -0.200000 0.721586 -0.954539
v 0.200000 1.082380 -0.966483
v 0.600000 1.443173 -0.978426
v -0.600000 0.380373 -0.971905
v -0.200000 0.760746 -0.978327
v 0.200000 1.141119 -0.984748
v 0.600000 1.521492 -0.991170
v -0.600000 0.400000 -1.000000
v -0.200000 0.800000 -1.000000
v 0.200000 1.200000 -1.000000
v 0.600000 1.600000 -1.000000
v 1.000000 -0.000000 -1.000000
vn -0.0006 0.9998 0.0200
vn -0.0005 0.9998 0.0223
vn -0.0015 0.9990 0.0447
vn -0.0015 0.9992 0.0401
vn -0.0044 0.9960 0.0894
vn -0.0045 0.9968 0.0801
vn -0.0092 0.9909 0.1340
vn -0.0094 0.9927 0.1202
vn -0.0158 0.9838 0.1784
vn -0.0162 0.9870 0.1602
vn -0.0241 0.9746 0.2226
vn -0.0247 0.9795 0.2001
vn -0.0339 0.9633 0.2664
vn -0.0349 0.9701 0.2400
vn -0.0452 0.9497 0.3099
vn -0.0466 0.9590 0.2797
vn -0.0576 0.9339 0.3529
vn -0.0596 0.9458 0.3192
vn -0.0710 0.9158 0.3952
vn -0.0736 0.9306 0.3584
vn -0.0850 0.8955 0.4369
vn -0.0886 0.9134 0.3973
vn -0.0995 0.8729 0.4777
vn -0.1041 0.8940 0.4358
vn -0.1141 0.8480 0.5175
vn -0.1199 0.8725 0.4737
vn -0.1285 0.8210 0.5563
vn -0.1357 0.8488 0.5109
vn -0.1424 0.7919 0.5939
vn -0.1512 0.8230 0.5475
vn -0.1554 0.7607 0.6302
vn -0.1661 0.7952 0.5832
vn -0.1673 0.7276 0.6653
vn -0.1800 0.7652 0.6181
vn -0.1777 0.6928 0.6989
vn -0.1926 0.7334 0.6520
vn -0.1864 0.6562 0.7312
vn -0.2036 0.6996 0.6849
vn -0.1931 0.6182 0.7619
vn -0.2128 0.6642 0.7167
vn -0.1976 0.5787 0.7912
vn -0.2199 0.6270 0.7473
vn -0.1996 0.5379 0.8190
vn -0.2246 0.5884 0.7768
vn -0.1989 0.4959 0.8453
vn -0.2268 0.5483 0.8050
vn -0.1955 0.4527 0.8700
vn -0.2263 0.5068 0.8318
vn -0.1892 0.4085 0.8930
vn -0.2229 0.4642 0.8572
vn -0.1798 0.3633 0.9142
vn -0.2166 0.4204 0.8811
vn -0.1674 0.3171 0.9335
vn -0.2074 0.3757 0.9033
vn -0.1520 0.2701 0.9507
vn -0.1953 0.3300 0.9236
vn -0.1335 0.2224 0.9658
vn -0.1803 0.2836 0.9418
vn -0.1121 0.1740 0.9783
vn -0.1625 0.2366 0.9579
vn -0.0879 0.1252 0.9882
vn -0.1421 0.1892 0.9716
vn -0.0609 0.0760 0.9952
vn -0.1193 0.1415 0.9827
vn -0.0539 0.0634 0.9965
vn -0.0804 0.0906 0.9926
vn -0.6704 0.7089 0.2193
vn -0.6148 0.6539 0.4410
vn -0.6009 0.6202 0.5042
vn -0.6804 0.6993 0.2192
vn -0.4324 0.4669 0.7714
vn -0.3849 0.4014 0.8311
vn -0.2488 0.2765 0.9282
vn -0.2013 0.2142 0.9558
vn -0.6499 0.7281 0.2181
vn -0.5970 0.6761 0.4318
vn -0.4289 0.4996 0.7526
vn -0.2618 0.3196 0.9107
vn -0.6285 0.7476 0.2149
vn -0.5790 0.6989 0.4200
vn -0.4252 0.5332 0.7314
vn -0.2733 0.3629 0.8909
vn -0.6062 0.7672 0.2097
vn -0.5604 0.7219 0.4060
vn -0.4207 0.5672 0.7080
vn -0.2828 0.4061 0.8690
vn -0.5829 0.7868 0.2030
vn -0.5409 0.7450 0.3904
vn -0.4150 0.6012 0.6829
vn -0.2901 0.4489 0.8452
vn -0.5586 0.8061 0.1952
vn -0.5205 0.7678 0.3736
vn -0.4077 0.6348 0.6564
vn -0.2949 0.4910 0.8197
vn -0.5333 0.8252 0.1864
vn -0.4989 0.7902 0.3559
vn -0.3985 0.6676 0.6288
vn -0.2972 0.5323 0.7927
vn -0.5069 0.8436 0.1771
vn -0.4762 0.8119 0.3378
vn -0.3874 0.6995 0.6005
vn -0.2967 0.5724 0.7645
vn -0.4795 0.8614 0.1675
vn -0.4523 0.8327 0.3194
vn -0.3742 0.7301 0.5718
vn -0.2935 0.6111 0.7351
vn -0.4512 0.8784 0.1578
vn -0.4272 0.8525 0.3012
vn -0.3590 0.7593 0.5428
vn -0.2876 0.6484 0.7049
vn -0.4221 0.8943 0.1481
vn -0.4011 0.8712 0.2831
vn -0.3419 0.7868 0.5138
vn -0.2793 0.6840 0.6739
vn -0.3925 0.9093 0.1386
vn -0.3742 0.8886 0.2653
vn -0.3232 0.8126 0.4849
vn -0.2686 0.7178 0.6423
vn -0.3625 0.9230 0.1293
vn -0.3467 0.9046 0.2479
vn -0.3030 0.8366 0.4563
vn -0.2558 0.7497 0.6103
vn -0.3323 0.9355 0.1202
vn -0.3187 0.9193 0.2310
vn -0.2815 0.8588 0.4281
vn -0.2411 0.7797 0.5779
vn -0.3022 0.9467 0.1114
vn -0.2906 0.9325 0.2146
vn -0.2592 0.8790 0.4002
vn -0.2250 0.8076 0.5451
vn -0.2724 0.9567 0.1029
vn -0.2626 0.9442 0.1987
vn -0.2364 0.8973 0.3729
vn -0.2076 0.8334 0.5122
vn -0.2432 0.9653 0.0948
vn -0.2350 0.9545 0.1834
vn -0.2132 0.9137 0.3460
vn -0.1894 0.8571 0.4792
vn -0.2149 0.9728 0.0869
vn -0.2081 0.9635 0.1685
vn -0.1902 0.9283 0.3196
vn -0.1705 0.8786 0.4461
vn -0.1876 0.9790 0.0793
vn -0.1820 0.9711 0.1542
vn -0.1674 0.9411 0.2938
vn -0.1515 0.8981 0.4130
vn -0.1617 0.9842 0.0721
vn -0.1571 0.9776 0.1403
vn -0.1453 0.9522 0.2686
vn -0.1326 0.9154 0.3800
vn -0.1372 0.9884 0.0651
vn -0.1335 0.9829 0.1269
vn -0.1242 0.9618 0.2438
vn -0.1142 0.9309 0.3471
vn -0.1144 0.9917 0.0583
vn -0.1114 0.9872 0.1139
vn -0.1041 0.9700 0.2197
vn -0.0964 0.9444 0.3144
vn -0.0934 0.9943 0.0518
vn -0.0911 0.9907 0.1013
vn -0.0855 0.9769 0.1960
vn -0.0796 0.9561 0.2819
vn -0.0743 0.9962 0.0455
vn -0.0726 0.9934 0.0890
vn -0.0683 0.9826 0.1728
vn -0.0640 0.9662 0.2497
vn -0.0573 0.9976 0.0394
vn -0.0560 0.9954 0.0772
vn -0.0529 0.9872 0.1501
vn -0.0497 0.9747 0.2178
vn -0.0424 0.9985 0.0334
vn -0.0415 0.9970 0.0656
vn -0.0393 0.9910 0.1279
vn -0.0371 0.9818 0.1861
vn -0.0297 0.9992 0.0276
vn -0.0291 0.9981 0.0542
vn -0.0276 0.9940 0.1060
vn -0.0262 0.9876 0.1546
vn -0.0193 0.9996 0.0219
vn -0.0189 0.9989 0.0431
vn -0.0180 0.9963 0.0844
vn -0.0171 0.9922 0.1234
vn -0.0111 0.9998 0.0164
vn -0.0109 0.9994 0.0322
vn -0.0104 0.9980 0.0630
vn -0.0099 0.9957 0.0924
vn -0.0053 0.9999 0.0109
vn -0.0052 0.9998 0.0214
vn -0.0049 0.9991 0.0419
vn -0.0047 0.9981 0.0615
vn -0.0018 1.0000 0.0054
vn -0.0017 0.9999 0.0107
vn -0.0017 0.9998 0.0209
vn -0.0016 0.9995 0.0307
vn -0.0006 1.0000 0.0027
vn -0.0006 1.0000 0.0053
vn -0.0006 0.9999 0.0105
vn -0.0006 0.9999 0.0154
vn -0.0000 -0.0000 -1.0000
vn 1.0000 -0.0000 -0.0000
vn -0.0000 -1.0000 -0.0000
vt 0.000000 0.000000
s 1
f 67/1/1 2/1/2 3/1/3 74/1/4
f 74/1/4 3/1/3 4/1/5 78/1/6
f 78/1/6 4/1/5 5/1/7 82/1/8
f 82/1/8 5/1/7 6/1/9 86/1/10
f 86/1/10 6/1/9 7/1/11 90/1/12
f 90/1/12 7/1/11 8/1/13 94/1/14
f 94/1/14 8/1/13 9/1/15 98/1/16
f 98/1/16 9/1/15 10/1/17 102/1/18
f 102/1/18 10/1/17 11/1/19 106/1/20
f 106/1/20 11/1/19 12/1/21 110/1/22
f 110/1/22 12/1/21 13/1/23 114/1/24
f 114/1/24 13/1/23 14/1/25 118/1/26
f 118/1/26 14/1/25 15/1/27 122/1/28
f 122/1/28 15/1/27 16/1/29 126/1/30
f 126/1/30 16/1/29 17/1/31 130/1/32
f 130/1/32 17/1/31 18/1/33 134/1/34
f 134/1/34 18/1/33 19/1/35 138/1/36
f 138/1/36 19/1/35 20/1/37 142/1/38
f 142/1/38 20/1/37 21/1/39 146/1/40
f 146/1/40 21/1/39 22/1/41 150/1/42
f 150/1/42 22/1/41 23/1/43 154/1/44
f 154/1/44 23/1/43 24/1/45 158/1/46
f 158/1/46 24/1/45 25/1/47 162/1/48
f 162/1/48 25/1/47 26/1/49 166/1/50
f 166/1/50 26/1/49 27/1/51 170/1/52
f 170/1/52 27/1/51 28/1/53 174/1/54
f 174/1/54 28/1/53 29/1/55 178/1/56
f 178/1/56 29/1/55 30/1/57 182/1/58
f 182/1/58 30/1/57 31/1/59 186/1/60
f 186/1/60 31/1/59 32/1/61 190/1/62
f 190/1/62 32/1/61 33/1/63 194/1/64
f 194/1/64 33/1/63 1/1/65 198/1/66
f 66/1/67 191/1/68 195/1/69 34/1/70
f 191/1/68 192/1/71 196/1/72 195/1/69
f 192/1/71 193/1/73 197/1/74 196/1/72
f 193/1/73 194/1/64 198/1/66 197/1/74
f 65/1/75 187/1/76 191/1/68 66/1/67
f 187/1/76 188/1/77 192/1/71 191/1/68
f 188/1/77 189/1/78 193/1/73 192/1/71
f 189/1/78 190/1/62 194/1/64 193/1/73
f 64/1/79 183/1/80 187/1/76 65/1/75
f 183/1/80 184/1/81 188/1/77 187/1/76
f 184/1/81 185/1/82 189/1/78 188/1/77
f 185/1/82 186/1/60 190/1/62 189/1/78
f 63/1/83 179/1/84 183/1/80 64/1/79
f 179/1/84 180/1/85 184/1/81 183/1/80
f 180/1/85 181/1/86 185/1/82 184/1/81
f 181/1/86 182/1/58 186/1/60 185/1/82
f 62/1/87 175/1/88 179/1/84 63/1/83
f 175/1/88 176/1/89 180/1/85 179/1/84
f 176/1/89 177/1/90 181/1/86 180/1/85
f 177/1/90 178/1/56 182/1/58 181/1/86
f 61/1/91 171/1/92 175/1/88 62/1/87
f 171/1/92 172/1/93 176/1/89 175/1/88
f 172/1/93 173/1/94 177/1/90 176/1/89
f 173/1/94 174/1/54 178/1/56 177/1/90
f 60/1/95 167/1/96 171/1/92 61/1/91
f 167/1/96 168/1/97 172/1/93 171/1/92
f 168/1/97 169/1/98 173/1/94 172/1/93
f 169/1/98 170/1/52 174/1/54 173/1/94
f 59/1/99 163/1/100 167/1/96 60/1/95
f 163/1/100 164/1/101 168/1/97 167/1/96
f 164/1/101 165/1/102 169/1/98 168/1/97
f 165/1/102 166/1/50 170/1/52 169/1/98
f 58/1/103 159/1/104 163/1/100 59/1/99
f 159/1/104 160/1/105 164/1/101 163/1/100
f 160/1/105 161/1/106 165/1/102 164/1/101
f 161/1/106 162/1/48 166/1/50 165/1/102
f 57/1/107 155/1/108 159/1/104 58/1/103
f 155/1/108 156/1/109 160/1/105 159/1/104
f 156/1/109 157/1/110 161/1/106 160/1/105
f 157/1/110 158/1/46 162/1/48 161/1/106
f 56/1/111 151/1/112 155/1/108 57/1/107
f 151/1/112 152/1/113 156/1/109 155/1/108
f 152/1/113 153/1/114 157/1/110 156/1/109
f 153/1/114 154/1/44 158/1/46 157/1/110
f 55/1/115 147/1/116 151/1/112 56/1/111
f 147/1/116 148/1/117 152/1/113 151/1/112
f 148/1/117 149/1/118 153/1/114 152/1/113
f 149/1/118 150/1/42 154/1/44 153/1/114
f 54/1/119 143/1/120 147/1/116 55/1/115
f 143/1/120 144/1/121 148/1/117 147/1/116
f 144/1/121 145/1/122 149/1/118 148/1/117
f 145/1/122 146/1/40 150/1/42 149/1/118
f 53/1/123 139/1/124 143/1/120 54/1/119
f 139/1/124 140/1/125 144/1/121 143/1/120
f 140/1/125 141/1/126 145/1/122 144/1/121
f 141/1/126 142/1/38 146/1/40 145/1/122
f 52/1/127 135/1/128 139/1/124 53/1/123
f 135/1/128 136/1/129 140/1/125 139/1/124
f 136/1/129 137/1/130 141/1/126 140/1/125
f 137/1/130 138/1/36 142/1/38 141/1/126
f 51/1/131 131/1/132 135/1/128 52/1/127
f 131/1/132 132/1/133 136/1/129 135/1/128
f 132/1/133 133/1/134 137/1/130 136/1/129
f 133/1/134 134/1/34 138/1/36 137/1/130
f 50/1/135 127/1/136 131/1/132 51/1/131
f 127/1/136 128/1/137 132/1/133 131/1/132
f 128/1/137 129/1/138 133/1/134 132/1/133
f 129/1/138 130/1/32 134/1/34 133/1/134
f 49/1/139 123/1/140 127/1/136 50/1/135
f 123/1/140 124/1/141 128/1/137 127/1/136
f 124/1/141 125/1/142 129/1/138 128/1/137
f 125/1/142 126/1/30 130/1/32 129/1/138
f 48/1/143 119/1/144 123/1/140 49/1/139
f 119/1/144 120/1/145 124/1/141 123/1/140
f 120/1/145 121/1/146 125/1/142 124/1/141
f 121/1/146 122/1/28 126/1/30 125/1/142
f 47/1/147 115/1/148 119/1/144 48/1/143
f 115/1/148 116/1/149 120/1/145 119/1/144
f 116/1/149 117/1/150 121/1/146 120/1/145
f 117/1/150 118/1/26 122/1/28 121/1/146
f 46/1/151 111/1/152 115/1/148 47/1/147
f 111/1/152 112/1/153 116/1/149 115/1/148
f 112/1/153 113/1/154 117/1/150 116/1/149
f 113/1/154 114/1/24 118/1/26 117/1/150
f 45/1/155 107/1/156 111/1/152 46/1/151
f 107/1/156 108/1/157 112/1/153 111/1/152
f 108/1/157 109/1/158 113/1/154 112/1/153
f 109/1/158 110/1/22 114/1/24 113/1/154
f 44/1/159 103/1/160 107/1/156 45/1/155
f 103/1/160 104/1/161 108/1/157 107/1/156
f 104/1/161 105/1/162 109/1/158 108/1/157
f 105/1/162 106/1/20 110/1/22 109/1/158
f 43/1/163 99/1/164 103/1/160 44/1/159
f 99/1/164 100/1/165 104/1/161 103/1/160
f 100/1/165 101/1/166 105/1/162 104/1/161
f 101/1/166 102/1/18 106/1/20 105/1/162
f 42/1/167 95/1/168 99/1/164 43/1/163
f 95/1/168 96/1/169 100/1/165 99/1/164
f 96/1/169 97/1/170 101/1/166 100/1/165
f 97/1/170 98/1/16 102/1/18 101/1/166
f 41/1/171 91/1/172 95/1/168 42/1/167
f 91/1/172 92/1/173 96/1/169 95/1/168
f 92/1/173 93/1/174 97/1/170 96/1/169
f 93/1/174 94/1/14 98/1/16 97/1/170
f 40/1/175 87/1/176 91/1/172 41/1/171
f 87/1/176 88/1/177 92/1/173 91/1/172
f 88/1/177 89/1/178 93/1/174 92/1/173
f 89/1/178 90/1/12 94/1/14 93/1/174
f 39/1/179 83/1/180 87/1/176 40/1/175
f 83/1/180 84/1/181 88/1/177 87/1/176
f 84/1/181 85/1/182 89/1/178 88/1/177
f 85/1/182 86/1/10 90/1/12 89/1/178
f 38/1/183 79/1/184 83/1/180 39/1/179
f 79/1/184 80/1/185 84/1/181 83/1/180
f 80/1/185 81/1/186 85/1/182 84/1/181
f 81/1/186 82/1/8 86/1/10 85/1/182
f 37/1/187 75/1/188 79/1/184 38/1/183
f 75/1/188 76/1/189 80/1/185 79/1/184
f 76/1/189 77/1/190 81/1/186 80/1/185
f 77/1/190 78/1/6 82/1/8 81/1/186
f 36/1/191 71/1/192 75/1/188 37/1/187
f 71/1/192 72/1/193 76/1/189 75/1/188
f 72/1/193 73/1/194 77/1/190 76/1/189
f 73/1/194 74/1/4 78/1/6 77/1/190
f 35/1/195 70/1/196 71/1/192 36/1/191
f 70/1/196 69/1/197 72/1/193 71/1/192
f 69/1/197 68/1/198 73/1/194 72/1/193
f 68/1/198 67/1/1 74/1/4 73/1/194
f 198/1/199 1/1/199 199/1/199 34/1/199 195/1/199 196/1/199 197/1/199
f 33/1/200 32/1/200 31/1/200 30/1/200 29/1/200 28/1/200 27/1/200 26/1/200 25/1/200 24/1/200 23/1/200 22/1/200 21/1/200 20/1/200 19/1/200 18/1/200 17/1/200 16/1/200 15/1/200 14/1/200 13/1/200 12/1/200 11/1/200 10/1/200 9/1/200 8/1/200 7/1/200 6/1/200 5/1/200 4/1/200 3/1/200 2/1/200 199/1/200 1/1/200
f 66/1/201 34/1/201 199/1/201 2/1/201 67/1/201 68/1/201 69/1/201 70/1/201 35/1/201 36/1/201 37/1/201 38/1/201 39/1/201 40/1/201 41/1/201 42/1/201 43/1/201 44/1/201 45/1/201 46/1/201 47/1/201 48/1/201 49/1/201 50/1/201 51/1/201 52/1/201 53/1/201 54/1/201 55/1/201 56/1/201 57/1/201 58/1/201 59/1/201 60/1/201 61/1/201 62/1/201 63/1/201 64/1/201 65/1/201
