# Blender 3.4.1
# www.blender.org
mtllib Ramp_F.mtl
o Ramp_F
v -1.000000 0.000000 -1.000000
v -1.000000 2.000000 -1.000000
v 1.000000 0.000000 1.000000
v 1.000000 0.000000 -1.000000
v -1.000000 0.000000 1.000000
v 1.000000 2.000000 -1.000000
vn -0.0000 -0.0000 -1.0000
vn -1.0000 -0.0000 -0.0000
vn -0.0000 -1.0000 -0.0000
vn 1.0000 -0.0000 -0.0000
vn -0.0000 0.7071 0.7071
vt 0.375000 0.250000
vt 0.125000 0.500000
vt 0.625000 0.250000
vt 0.625000 1.000000
vt 0.375000 0.750000
vt 0.375000 0.500000
vt 0.375000 0.000000
vt 0.125000 0.750000
vt 0.375000 1.000000
vt 0.625000 0.500000
vt 0.625000 0.750000
s 0
f 1/1/1 2/3/1 6/10/1 4/6/1
f 5/7/2 2/3/2 1/1/2
f 1/2/3 4/6/3 3/5/3 5/8/3
f 4/6/4 6/10/4 3/5/4
f 6/11/5 2/4/5 5/9/5 3/5/5
