# Blender 3.4.1
# www.blender.org
mtllib Ramp_O.mtl
o Ramp_O
v 1.000000 0.000000 1.000000
v 1.000000 2.000000 -1.000000
v 1.000000 1.997591 -0.901865
v 1.000000 1.990370 -0.803966
v 1.000000 1.978353 -0.706539
v 1.000000 1.961571 -0.609819
v 1.000000 1.940063 -0.514040
v 1.000000 1.913881 -0.419431
v 1.000000 1.883088 -0.326220
v 1.000000 1.847759 -0.234633
v 1.000000 1.807979 -0.144890
v 1.000000 1.763842 -0.057207
v 1.000000 1.715457 0.028205
v 1.000000 1.662939 0.111140
v 1.000000 1.606415 0.191398
v 1.000000 1.546021 0.268787
v 1.000000 1.481902 0.343118
v 1.000000 1.414214 0.414213
v 1.000000 1.343118 0.481902
v 1.000000 1.268787 0.546021
v 1.000000 1.191399 0.606415
v 1.000000 1.111140 0.662939
v 1.000000 1.028206 0.715457
v 1.000000 0.942793 0.763842
v 1.000000 0.855110 0.807978
v 1.000000 0.765367 0.847759
v 1.000000 0.673780 0.883088
v 1.000000 0.580569 0.913880
v 1.000000 0.485960 0.940062
v 1.000000 0.390181 0.961570
v 1.000000 0.293461 0.978353
v 1.000000 0.196034 0.990369
v 1.000000 0.098135 0.997591
v 1.000000 0.000000 -1.000000
v -1.000000 0.000000 1.000000
v -1.000000 2.000000 -1.000000
v -1.000000 1.997591 -0.901865
v -1.000000 1.990370 -0.803966
v -1.000000 1.978353 -0.706539
v -1.000000 1.961571 -0.609819
v -1.000000 1.940063 -0.514040
v -1.000000 1.913881 -0.419431
v -1.000000 1.883088 -0.326220
v -1.000000 1.847759 -0.234633
v -1.000000 1.807979 -0.144890
v -1.000000 1.763842 -0.057207
v -1.000000 1.715457 0.028205
v -1.000000 1.662939 0.111140
v -1.000000 1.606415 0.191398
v -1.000000 1.546021 0.268787
v -1.000000 1.481902 0.343118
v -1.000000 1.414213 0.414213
v -1.000000 1.343118 0.481902
v -1.000000 1.268787 0.546021
v -1.000000 1.191399 0.606415
v -1.000000 1.111140 0.662939
v -1.000000 1.028205 0.715457
v -1.000000 0.942793 0.763842
v -1.000000 0.855110 0.807978
v -1.000000 0.765367 0.847759
v -1.000000 0.673780 0.883088
v -1.000000 0.580569 0.913880
v -1.000000 0.485960 0.940062
v -1.000000 0.390181 0.961570
v -1.000000 0.293461 0.978353
v -1.000000 0.196034 0.990369
v -1.000000 0.098135 0.997591
v -1.000000 0.000000 -1.000000
vn 1.0000 -0.0000 -0.0000
vn -1.0000 -0.0000 -0.0000
vn -0.0000 0.9239 0.3827
vn -0.0000 0.9415 0.3369
vn -0.0000 -0.0000 -1.0000
vn -0.0000 0.4714 0.8819
vn -0.0000 0.5141 0.8577
vn -0.0000 0.9040 0.4276
vn -0.0000 0.4276 0.9040
vn -0.0000 0.8819 0.4714
vn -0.0000 0.3827 0.9239
vn -0.0000 0.8577 0.5141
vn -0.0000 0.3369 0.9415
vn -0.0000 0.8315 0.5556
vn -0.0000 0.2903 0.9569
vn -0.0000 0.8032 0.5957
vn -0.0000 0.2430 0.9700
vn -0.0000 0.7730 0.6344
vn -0.0000 0.9988 0.0491
vn -0.0000 0.9997 0.0245
vn -0.0000 0.1951 0.9808
vn -0.0000 0.7410 0.6716
vn -0.0000 0.9952 0.0980
vn -0.0000 0.1467 0.9892
vn -0.0000 0.7071 0.7071
vn -0.0000 0.9892 0.1467
vn -0.0000 0.0980 0.9952
vn -0.0000 0.6716 0.7410
vn -0.0000 0.9808 0.1951
vn -0.0000 0.0491 0.9988
vn -0.0000 0.6344 0.7730
vn -0.0000 0.9700 0.2430
vn -0.0000 0.0245 0.9997
vn -0.0000 0.5957 0.8032
vn -0.0000 0.9569 0.2903
vn -0.0000 -1.0000 -0.0000
vn -0.0000 0.5556 0.8315
vt 0.000000 0.000000
vt 0.000000 0.000000
vt 0.000000 0.000000
vt 0.000000 0.000000
vt 0.000000 0.000000
vt 0.000000 0.000000
vt 0.000000 0.000000
vt 0.000000 0.000000
vt 0.000000 0.000000
vt 0.000000 0.000000
vt 0.000000 0.000000
vt 0.000000 0.000000
vt 0.000000 0.000000
vt 0.000000 0.000000
vt 0.000000 0.000000
vt 0.000000 0.000000
vt 0.000000 0.000000
vt 0.000000 0.000000
vt 0.000000 0.000000
vt 0.000000 0.000000
vt 0.000000 0.000000
vt 0.000000 0.000000
vt 0.000000 0.000000
vt 0.000000 0.000000
vt 0.000000 0.000000
vt 0.000000 0.000000
vt 0.000000 0.000000
vt 0.000000 0.000000
vt 0.000000 0.000000
vt 0.000000 0.000000
vt 0.000000 0.000000
vt 0.000000 0.000000
vt 0.000000 0.000000
vt 0.000000 0.000000
vt 0.000000 0.000000
vt 0.000000 0.000000
vt 0.000000 0.000000
vt 0.000000 0.000000
vt 0.000000 0.000000
vt 0.000000 0.000000
vt 0.000000 0.000000
vt 0.000000 0.000000
vt 0.000000 0.000000
vt 0.000000 0.000000
vt 0.000000 0.000000
vt 0.000000 0.000000
vt 0.000000 0.000000
vt 0.000000 0.000000
vt 0.000000 0.000000
vt 0.000000 0.000000
vt 0.000000 0.000000
vt 0.000000 0.000000
vt 0.000000 0.000000
vt 0.000000 0.000000
vt 0.000000 0.000000
vt 0.000000 0.000000
vt 0.000000 0.000000
vt 0.000000 0.000000
vt 0.000000 0.000000
vt 0.000000 0.000000
vt 0.000000 0.000000
vt 0.000000 0.000000
vt 0.000000 0.000000
vt 0.000000 0.000000
vt 0.000000 0.000000
vt 0.000000 0.000000
vt 0.000000 0.000000
vt 0.000000 0.000000
s 1
f 3/3/1 4/4/1 5/5/1 6/6/1 7/7/1 8/8/1 9/9/1 10/10/1 11/11/1 12/12/1 13/13/1 14/14/1 15/15/1 16/16/1 17/17/1 18/18/1 19/19/1 20/20/1 21/21/1 22/22/1 23/23/1 24/24/1 25/25/1 26/26/1 27/27/1 28/28/1 29/29/1 30/30/1 31/31/1 32/32/1 33/33/1 1/1/1 34/34/1 2/2/1
f 37/37/2 36/36/2 68/68/2 35/35/2 67/67/2 66/66/2 65/65/2 64/64/2 63/63/2 62/62/2 61/61/2 60/60/2 59/59/2 58/58/2 57/57/2 56/56/2 55/55/2 54/54/2 53/53/2 52/52/2 51/51/2 50/50/2 49/49/2 48/48/2 47/47/2 46/46/2 45/45/2 44/44/2 43/43/2 42/42/2 41/41/2 40/40/2 39/39/2 38/38/2
f 10/10/3 9/9/4 43/43/4 44/44/3
f 2/2/5 34/34/5 68/68/5 36/36/5
f 24/24/6 23/23/7 57/57/7 58/58/6
f 11/11/8 10/10/3 44/44/3 45/45/8
f 25/25/9 24/24/6 58/58/6 59/59/9
f 12/12/10 11/11/8 45/45/8 46/46/10
f 26/26/11 25/25/9 59/59/9 60/60/11
f 13/13/12 12/12/10 46/46/10 47/47/12
f 27/27/13 26/26/11 60/60/11 61/61/13
f 14/14/14 13/13/12 47/47/12 48/48/14
f 28/28/15 27/27/13 61/61/13 62/62/15
f 15/15/16 14/14/14 48/48/14 49/49/16
f 29/29/17 28/28/15 62/62/15 63/63/17
f 16/16/18 15/15/16 49/49/16 50/50/18
f 3/3/19 2/2/20 36/36/20 37/37/19
f 30/30/21 29/29/17 63/63/17 64/64/21
f 17/17/22 16/16/18 50/50/18 51/51/22
f 4/4/23 3/3/19 37/37/19 38/38/23
f 31/31/24 30/30/21 64/64/21 65/65/24
f 18/18/25 17/17/22 51/51/22 52/52/25
f 5/5/26 4/4/23 38/38/23 39/39/26
f 32/32/27 31/31/24 65/65/24 66/66/27
f 19/19/28 18/18/25 52/52/25 53/53/28
f 6/6/29 5/5/26 39/39/26 40/40/29
f 33/33/30 32/32/27 66/66/27 67/67/30
f 20/20/31 19/19/28 53/53/28 54/54/31
f 7/7/32 6/6/29 40/40/29 41/41/32
f 1/1/33 33/33/30 67/67/30 35/35/33
f 21/21/34 20/20/31 54/54/31 55/55/34
f 8/8/35 7/7/32 41/41/32 42/42/35
f 34/34/36 1/1/36 35/35/36 68/68/36
f 22/22/37 21/21/34 55/55/34 56/56/37
f 9/9/4 8/8/35 42/42/35 43/43/4
f 23/23/7 22/22/37 56/56/37 57/57/7
