# Blender 3.4.1
# www.blender.org
mtllib ShearedPlane.mtl
o LoopBox_Inverted.003
v -0.499471 0.000000 -2.000000
v -0.465999 0.000000 -1.866136
v -0.432714 0.000000 -1.733016
v -0.399397 0.000000 -1.599769
v -0.366609 0.000000 -1.468636
v -0.333762 0.000000 -1.337270
v -0.301704 0.000000 -1.209058
v -0.269570 0.000000 -1.080542
v -0.238363 0.000000 -0.955732
v -0.207073 0.000000 -0.830594
v -0.176706 0.000000 -0.709145
v -0.146264 0.000000 -0.587394
v -0.116601 0.000000 -0.468760
v -0.086879 0.000000 -0.349893
v -0.057678 0.000000 -0.233103
v -0.028444 0.000000 -0.116188
v 0.000607 0.000000 0.000000
v 1.500529 0.000000 -2.000000
v 1.534001 0.000000 -1.866136
v 1.567286 0.000000 -1.733016
v 1.600603 0.000000 -1.599769
v 1.633391 0.000000 -1.468636
v 1.666238 0.000000 -1.337270
v 1.698296 0.000000 -1.209058
v 1.730430 0.000000 -1.080542
v 1.761637 0.000000 -0.955732
v 1.792927 0.000000 -0.830593
v 1.823293 0.000000 -0.709145
v 1.853736 0.000000 -0.587394
v 1.883399 0.000000 -0.468760
v 1.913121 0.000000 -0.349893
v 1.942322 0.000000 -0.233103
v 1.971556 0.000000 -0.116187
v 2.000607 0.000000 0.000000
vn -0.0000 1.0000 -0.0000
s 1
f 1//1 2//1 19//1 18//1
f 2//1 3//1 20//1 19//1
f 3//1 4//1 21//1 20//1
f 4//1 5//1 22//1 21//1
f 5//1 6//1 23//1 22//1
f 6//1 7//1 24//1 23//1
f 7//1 8//1 25//1 24//1
f 8//1 9//1 26//1 25//1
f 9//1 10//1 27//1 26//1
f 10//1 11//1 28//1 27//1
f 11//1 12//1 29//1 28//1
f 12//1 13//1 30//1 29//1
f 13//1 14//1 31//1 30//1
f 14//1 15//1 32//1 31//1
f 15//1 16//1 33//1 32//1
f 16//1 17//1 34//1 33//1
