# Blender 3.4.1
# www.blender.org
mtllib QuarterLoop_I.mtl
o LoopBox_Inverted.002
v -0.749549 2.000000 -2.000000
v -0.735021 1.883812 -2.000000
v -0.720402 1.766897 -2.000000
v -0.705799 1.650107 -2.000000
v -0.690936 1.531240 -2.000000
v -0.676102 1.412606 -2.000000
v -0.660878 1.290854 -2.000000
v -0.645692 1.169406 -2.000000
v -0.630045 1.044268 -2.000000
v -0.614439 0.919458 -2.000000
v -0.598369 0.790942 -2.000000
v -0.582338 0.662730 -2.000000
v -0.565912 0.531364 -2.000000
v -0.549515 0.400231 -2.000000
v -0.532854 0.266984 -2.000000
v -0.516209 0.133864 -2.000000
v -0.499471 0.000000 -2.000000
v -0.465999 0.000000 -1.866136
v -0.432714 0.000000 -1.733016
v -0.399397 0.000000 -1.599769
v -0.366609 0.000000 -1.468636
v -0.333762 0.000000 -1.337270
v -0.301704 0.000000 -1.209058
v -0.269570 0.000000 -1.080542
v -0.238363 0.000000 -0.955732
v -0.207073 0.000000 -0.830594
v -0.176706 0.000000 -0.709145
v -0.146264 0.000000 -0.587394
v -0.116601 0.000000 -0.468760
v -0.086879 0.000000 -0.349893
v -0.057678 0.000000 -0.233103
v -0.028444 0.000000 -0.116188
v -0.749701 2.000000 -2.000000
v -0.733774 1.901864 -1.997591
v -0.717247 1.803966 -1.990369
v -0.700119 1.706539 -1.978353
v -0.682396 1.609819 -1.961571
v -0.664083 1.514039 -1.940063
v -0.645185 1.419431 -1.913881
v -0.625711 1.326220 -1.883088
v -0.605669 1.234633 -1.847759
v -0.585072 1.144890 -1.807979
v -0.563929 1.057207 -1.763842
v -0.542256 0.971795 -1.715457
v -0.520066 0.888859 -1.662939
v -0.497375 0.808601 -1.606415
v -0.474201 0.731213 -1.546021
v -0.450561 0.656882 -1.481902
v -0.426474 0.585786 -1.414214
v -0.401962 0.518098 -1.343118
v -0.377046 0.453979 -1.268787
v -0.351747 0.393585 -1.191399
v -0.326090 0.337061 -1.111141
v -0.300098 0.284543 -1.028206
v -0.273796 0.236157 -0.942794
v -0.247210 0.192021 -0.855110
v -0.220367 0.152241 -0.765367
v -0.193294 0.116912 -0.673780
v -0.166017 0.086119 -0.580570
v -0.138566 0.059937 -0.485960
v -0.110968 0.038430 -0.390181
v -0.083253 0.021647 -0.293461
v -0.055450 0.009630 -0.196034
v -0.027587 0.002409 -0.098135
v 0.000607 0.000000 0.000000
v 0.000305 0.000000 0.000000
v 1.250451 2.000000 -2.000000
v 1.264979 1.883813 -2.000000
v 1.279598 1.766897 -2.000000
v 1.294201 1.650107 -2.000000
v 1.309064 1.531240 -2.000000
v 1.323898 1.412606 -2.000000
v 1.339122 1.290855 -2.000000
v 1.354308 1.169407 -2.000000
v 1.369955 1.044268 -2.000000
v 1.385561 0.919458 -2.000000
v 1.401631 0.790942 -2.000000
v 1.417662 0.662730 -2.000000
v 1.434088 0.531364 -2.000000
v 1.450485 0.400231 -2.000000
v 1.467146 0.266984 -2.000000
v 1.483791 0.133864 -2.000000
v 1.500529 0.000000 -2.000000
v 1.534001 0.000000 -1.866136
v 1.567286 0.000000 -1.733016
v 1.600603 0.000000 -1.599769
v 1.633391 0.000000 -1.468636
v 1.666238 0.000000 -1.337270
v 1.698296 0.000000 -1.209058
v 1.730430 0.000000 -1.080542
v 1.761637 0.000000 -0.955732
v 1.792927 0.000000 -0.830593
v 1.823293 0.000000 -0.709145
v 1.853736 0.000000 -0.587394
v 1.883399 0.000000 -0.468760
v 1.913121 0.000000 -0.349893
v 1.942322 0.000000 -0.233103
v 1.971556 0.000000 -0.116187
v 1.250299 2.000000 -2.000000
v 1.266226 1.901865 -1.997591
v 1.282754 1.803966 -1.990369
v 1.299881 1.706539 -1.978353
v 1.317604 1.609820 -1.961570
v 1.335918 1.514040 -1.940062
v 1.354815 1.419431 -1.913881
v 1.374289 1.326220 -1.883088
v 1.394331 1.234633 -1.847759
v 1.414929 1.144890 -1.807979
v 1.436071 1.057207 -1.763842
v 1.457744 0.971795 -1.715457
v 1.479934 0.888860 -1.662939
v 1.502625 0.808601 -1.606415
v 1.525799 0.731213 -1.546021
v 1.549439 0.656882 -1.481902
v 1.573526 0.585786 -1.414214
v 1.598038 0.518098 -1.343118
v 1.622954 0.453979 -1.268787
v 1.648253 0.393585 -1.191399
v 1.673910 0.337061 -1.111140
v 1.699902 0.284543 -1.028205
v 1.726204 0.236158 -0.942793
v 1.752790 0.192022 -0.855110
v 1.779633 0.152241 -0.765367
v 1.806706 0.116912 -0.673780
v 1.833983 0.086119 -0.580569
v 1.861434 0.059938 -0.485960
v 1.889032 0.038430 -0.390181
v 1.916747 0.021647 -0.293461
v 1.944550 0.009631 -0.196034
v 1.972413 0.002409 -0.098135
v 2.000607 0.000000 0.000000
v 2.000305 0.000000 0.000000
vn -0.5793 -0.0732 0.8118
vn -0.7325 -0.0847 0.6755
vn -0.5968 -0.0746 0.7989
vn -0.8361 -0.0948 0.5403
vn -0.7594 -0.0871 0.6447
vn -0.8873 -0.1003 0.4502
vn -0.8552 -0.0968 0.5092
vn -0.9146 -0.1033 0.3909
vn -0.8993 -0.1016 0.4254
vn -0.9306 -0.1053 0.3505
vn -0.9225 -0.1042 0.3716
vn -0.9409 -0.1067 0.3215
vn -0.9362 -0.1060 0.3352
vn -0.9478 -0.1078 0.3002
vn -0.9449 -0.1073 0.3093
vn -0.9527 -0.1087 0.2839
vn -0.9508 -0.1084 0.2904
vn -0.9562 -0.1096 0.2715
vn -0.9549 -0.1093 0.2760
vn -0.9588 -0.1104 0.2617
vn -0.9579 -0.1101 0.2650
vn -0.9608 -0.1112 0.2541
vn -0.9602 -0.1109 0.2565
vn -0.9623 -0.1119 0.2480
vn -0.9618 -0.1117 0.2498
vn -0.9634 -0.1126 0.2433
vn -0.9631 -0.1124 0.2445
vn -0.9643 -0.1134 0.2395
vn -0.9640 -0.1132 0.2405
vn -0.9649 -0.1141 0.2367
vn -0.9647 -0.1139 0.2373
vn -0.9651 -0.1151 0.2354
vn -0.9651 -0.1167 0.2346
vn -0.9650 -0.1175 0.2343
vn -0.9649 -0.1198 0.2338
vn -0.9648 -0.1209 0.2336
vn -0.9645 -0.1238 0.2331
vn -0.9644 -0.1253 0.2329
vn -0.9641 -0.1289 0.2324
vn -0.9638 -0.1309 0.2321
vn -0.9633 -0.1354 0.2316
vn -0.9630 -0.1382 0.2313
vn -0.9623 -0.1437 0.2308
vn -0.9618 -0.1476 0.2305
vn -0.9609 -0.1544 0.2299
vn -0.9601 -0.1596 0.2295
vn -0.9588 -0.1680 0.2289
vn -0.9576 -0.1755 0.2284
vn -0.9558 -0.1859 0.2278
vn -0.9538 -0.1966 0.2270
vn -0.9512 -0.2097 0.2262
vn -0.9478 -0.2258 0.2252
vn -0.9439 -0.2426 0.2241
vn -0.9375 -0.2676 0.2224
vn -0.9314 -0.2892 0.2208
vn -0.9182 -0.3311 0.2176
vn -0.9080 -0.3596 0.2151
vn -0.8769 -0.4335 0.2077
vn -0.8585 -0.4708 0.2034
vn -0.7731 -0.6071 0.1837
vn -0.7409 -0.6480 0.1766
vn -0.5453 -0.8274 0.1342
vn -0.5200 -0.8444 0.1287
vn 0.5793 0.0732 -0.8118
vn 0.5967 0.0746 -0.7990
vn 0.7325 0.0847 -0.6755
vn 0.7594 0.0871 -0.6448
vn 0.8361 0.0948 -0.5403
vn 0.8552 0.0968 -0.5092
vn 0.8873 0.1003 -0.4502
vn 0.8993 0.1016 -0.4254
vn 0.9146 0.1033 -0.3909
vn 0.9225 0.1042 -0.3716
vn 0.9306 0.1053 -0.3505
vn 0.9362 0.1060 -0.3352
vn 0.9409 0.1067 -0.3215
vn 0.9449 0.1073 -0.3093
vn 0.9478 0.1078 -0.3002
vn 0.9508 0.1084 -0.2904
vn 0.9527 0.1087 -0.2839
vn 0.9549 0.1093 -0.2760
vn 0.9562 0.1096 -0.2715
vn 0.9579 0.1101 -0.2650
vn 0.9588 0.1104 -0.2617
vn 0.9602 0.1109 -0.2565
vn 0.9608 0.1112 -0.2541
vn 0.9618 0.1117 -0.2498
vn 0.9623 0.1119 -0.2480
vn 0.9631 0.1124 -0.2445
vn 0.9634 0.1126 -0.2433
vn 0.9640 0.1132 -0.2405
vn 0.9643 0.1134 -0.2395
vn 0.9647 0.1139 -0.2373
vn 0.9649 0.1141 -0.2367
vn 0.9651 0.1151 -0.2354
vn 0.9650 0.1175 -0.2343
vn 0.9651 0.1167 -0.2345
vn 0.9648 0.1209 -0.2336
vn 0.9649 0.1198 -0.2338
vn 0.9644 0.1253 -0.2329
vn 0.9645 0.1238 -0.2331
vn 0.9638 0.1309 -0.2321
vn 0.9641 0.1289 -0.2324
vn 0.9630 0.1382 -0.2313
vn 0.9633 0.1354 -0.2316
vn 0.9618 0.1476 -0.2305
vn 0.9623 0.1437 -0.2308
vn 0.9601 0.1596 -0.2295
vn 0.9609 0.1544 -0.2299
vn 0.9576 0.1755 -0.2284
vn 0.9588 0.1680 -0.2289
vn 0.9538 0.1966 -0.2270
vn 0.9558 0.1859 -0.2278
vn 0.9478 0.2258 -0.2252
vn 0.9512 0.2097 -0.2262
vn 0.9375 0.2676 -0.2224
vn 0.9439 0.2426 -0.2241
vn 0.9182 0.3311 -0.2176
vn 0.9314 0.2892 -0.2208
vn 0.8769 0.4335 -0.2077
vn 0.9080 0.3596 -0.2151
vn 0.7732 0.6070 -0.1838
vn 0.8585 0.4707 -0.2034
vn 0.5453 0.8274 -0.1342
vn 0.7409 0.6480 -0.1766
vn 0.5200 0.8444 -0.1287
vn -0.0000 -0.0000 -1.0000
vn -0.0000 -1.0000 -0.0000
vn -0.0000 0.9997 0.0245
vn -0.0000 0.9990 0.0447
vn -0.0000 0.9986 0.0534
vn -0.0000 0.0465 0.9989
vn -0.0000 0.0516 0.9987
vn -0.0000 0.0245 0.9997
vn -0.0000 0.0954 0.9954
vn -0.0000 0.1007 0.9949
vn -0.0000 0.1440 0.9896
vn -0.0000 0.1494 0.9888
vn -0.0000 0.1923 0.9813
vn -0.0000 0.1979 0.9802
vn -0.0000 0.2401 0.9707
vn -0.0000 0.2458 0.9693
vn -0.0000 0.2874 0.9578
vn -0.0000 0.2932 0.9561
vn -0.0000 0.3340 0.9426
vn -0.0000 0.3398 0.9405
vn -0.0000 0.3797 0.9251
vn -0.0000 0.3856 0.9227
vn -0.0000 0.4246 0.9054
vn -0.0000 0.4305 0.9026
vn -0.0000 0.4684 0.8835
vn -0.0000 0.4744 0.8803
vn -0.0000 0.5111 0.8595
vn -0.0000 0.5170 0.8560
vn -0.0000 0.5526 0.8334
vn -0.0000 0.5585 0.8295
vn -0.0000 0.5928 0.8053
vn -0.0000 0.5986 0.8011
vn -0.0000 0.6316 0.7753
vn -0.0000 0.6372 0.7707
vn -0.0000 0.6688 0.7435
vn -0.0000 0.6743 0.7384
vn -0.0000 0.7044 0.7098
vn -0.0000 0.7098 0.7044
vn -0.0000 0.7384 0.6744
vn -0.0000 0.7435 0.6687
vn -0.0000 0.7705 0.6374
vn -0.0000 0.7755 0.6314
vn -0.0000 0.8008 0.5989
vn -0.0000 0.8056 0.5925
vn -0.0000 0.8292 0.5589
vn -0.0000 0.8337 0.5522
vn -0.0000 0.8556 0.5176
vn -0.0000 0.8598 0.5106
vn -0.0000 0.8800 0.4750
vn -0.0000 0.8839 0.4678
vn -0.0000 0.9022 0.4313
vn -0.0000 0.9058 0.4238
vn -0.0000 0.9223 0.3866
vn -0.0000 0.9255 0.3788
vn -0.0000 0.9401 0.3409
vn -0.0000 0.9430 0.3329
vn -0.0000 0.9557 0.2944
vn -0.0000 0.9582 0.2862
vn -0.0000 0.9690 0.2471
vn -0.0000 0.9711 0.2388
vn -0.0000 0.9799 0.1993
vn -0.0000 0.9816 0.1909
vn -0.0000 0.9885 0.1510
vn -0.0000 0.9898 0.1425
vn -0.0000 0.9948 0.1023
vn -0.0000 0.9956 0.0937
s 1
f 33//1 1//1 2//2 34//3
f 34//3 2//2 3//4 35//5
f 35//5 3//4 4//6 36//7
f 36//7 4//6 5//8 37//9
f 37//9 5//8 6//10 38//11
f 38//11 6//10 7//12 39//13
f 39//13 7//12 8//14 40//15
f 40//15 8//14 9//16 41//17
f 41//17 9//16 10//18 42//19
f 42//19 10//18 11//20 43//21
f 43//21 11//20 12//22 44//23
f 44//23 12//22 13//24 45//25
f 45//25 13//24 14//26 46//27
f 46//27 14//26 15//28 47//29
f 47//29 15//28 16//30 48//31
f 48//31 16//30 17//32 49//32
f 49//32 17//32 18//33 50//34
f 50//34 18//33 19//35 51//36
f 51//36 19//35 20//37 52//38
f 52//38 20//37 21//39 53//40
f 53//40 21//39 22//41 54//42
f 54//42 22//41 23//43 55//44
f 55//44 23//43 24//45 56//46
f 56//46 24//45 25//47 57//48
f 57//48 25//47 26//49 58//50
f 58//50 26//49 27//51 59//52
f 59//52 27//51 28//53 60//54
f 60//54 28//53 29//55 61//56
f 61//56 29//55 30//57 62//58
f 62//58 30//57 31//59 63//60
f 63//60 31//59 32//61 64//62
f 64//62 32//61 65//63 66//63
f 99//64 100//65 68//66 67//64
f 100//65 101//67 69//68 68//66
f 101//67 102//69 70//70 69//68
f 102//69 103//71 71//72 70//70
f 103//71 104//73 72//74 71//72
f 104//73 105//75 73//76 72//74
f 105//75 106//77 74//78 73//76
f 106//77 107//79 75//80 74//78
f 107//79 108//81 76//82 75//80
f 108//81 109//83 77//84 76//82
f 109//83 110//85 78//86 77//84
f 110//85 111//87 79//88 78//86
f 111//87 112//89 80//90 79//88
f 112//89 113//91 81//92 80//90
f 113//91 114//93 82//94 81//92
f 114//93 115//95 83//95 82//94
f 115//95 116//96 84//97 83//95
f 116//96 117//98 85//99 84//97
f 117//98 118//100 86//101 85//99
f 118//100 119//102 87//103 86//101
f 119//102 120//104 88//105 87//103
f 120//104 121//106 89//107 88//105
f 121//106 122//108 90//109 89//107
f 122//108 123//110 91//111 90//109
f 123//110 124//112 92//113 91//111
f 124//112 125//114 93//115 92//113
f 125//114 126//116 94//117 93//115
f 126//116 127//118 95//119 94//117
f 127//118 128//120 96//121 95//119
f 128//120 129//122 97//123 96//121
f 129//122 130//124 98//125 97//123
f 130//124 132//126 131//126 98//125
f 2//127 68//127 69//127 3//127
f 3//127 69//127 70//127 4//127
f 4//127 70//127 71//127 5//127
f 5//127 71//127 72//127 6//127
f 6//127 72//127 73//127 7//127
f 7//127 73//127 74//127 8//127
f 8//127 74//127 75//127 9//127
f 9//127 75//127 76//127 10//127
f 10//127 76//127 77//127 11//127
f 11//127 77//127 78//127 12//127
f 12//127 78//127 79//127 13//127
f 13//127 79//127 80//127 14//127
f 14//127 80//127 81//127 15//127
f 15//127 81//127 82//127 16//127
f 16//127 82//127 83//127 17//127
f 17//128 83//128 84//128 18//128
f 18//128 84//128 85//128 19//128
f 19//128 85//128 86//128 20//128
f 20//128 86//128 87//128 21//128
f 21//128 87//128 88//128 22//128
f 22//128 88//128 89//128 23//128
f 23//128 89//128 90//128 24//128
f 24//128 90//128 91//128 25//128
f 25//128 91//128 92//128 26//128
f 26//128 92//128 93//128 27//128
f 27//128 93//128 94//128 28//128
f 28//128 94//128 95//128 29//128
f 29//128 95//128 96//128 30//128
f 30//128 96//128 97//128 31//128
f 31//128 97//128 98//128 32//128
f 66//129 132//129 130//130 64//131
f 34//132 100//133 99//134 33//134
f 35//135 101//136 100//133 34//132
f 36//137 102//138 101//136 35//135
f 37//139 103//140 102//138 36//137
f 38//141 104//142 103//140 37//139
f 39//143 105//144 104//142 38//141
f 40//145 106//146 105//144 39//143
f 41//147 107//148 106//146 40//145
f 42//149 108//150 107//148 41//147
f 43//151 109//152 108//150 42//149
f 44//153 110//154 109//152 43//151
f 45//155 111//156 110//154 44//153
f 46//157 112//158 111//156 45//155
f 47//159 113//160 112//158 46//157
f 48//161 114//162 113//160 47//159
f 49//163 115//164 114//162 48//161
f 50//165 116//166 115//164 49//163
f 51//167 117//168 116//166 50//165
f 52//169 118//170 117//168 51//167
f 53//171 119//172 118//170 52//169
f 54//173 120//174 119//172 53//171
f 55//175 121//176 120//174 54//173
f 56//177 122//178 121//176 55//175
f 57//179 123//180 122//178 56//177
f 58//181 124//182 123//180 57//179
f 59//183 125//184 124//182 58//181
f 60//185 126//186 125//184 59//183
f 61//187 127//188 126//186 60//185
f 62//189 128//190 127//188 61//187
f 63//191 129//192 128//190 62//189
f 64//131 130//130 129//192 63//191
f 32//128 98//128 131//128 65//128
f 1//127 67//127 68//127 2//127
