# Blender 3.6.1
# www.blender.org
mtllib Ramp_I_N_4.mtl
o Ramp_I_N.002
v 1.000000 2.000000 1.000000
v 1.000000 0.000000 -1.000000
v 1.000000 0.098135 -0.997591
v 1.000000 0.196034 -0.990369
v 1.000000 0.293461 -0.978353
v 1.000000 0.390181 -0.961571
v 1.000000 0.485960 -0.940063
v 1.000000 0.580569 -0.913881
v 1.000000 0.673780 -0.883088
v 1.000000 0.765367 -0.847759
v 1.000000 0.855110 -0.807979
v 1.000000 0.942793 -0.763842
v 1.000000 1.028205 -0.715457
v 1.000000 1.111140 -0.662939
v 1.000000 1.191399 -0.606415
v 1.000000 1.268787 -0.546021
v 1.000000 1.343118 -0.481902
v 1.000000 1.414213 -0.414214
v 1.000000 1.481902 -0.343118
v 1.000000 1.546021 -0.268787
v 1.000000 1.606415 -0.191399
v 1.000000 1.662939 -0.111140
v 1.000000 1.715457 -0.028206
v 1.000000 1.763842 0.057207
v 1.000000 1.807979 0.144890
v 1.000000 1.847759 0.234633
v 1.000000 1.883088 0.326220
v 1.000000 1.913881 0.419431
v 1.000000 1.940062 0.514040
v 1.000000 1.961570 0.609819
v 1.000000 1.978353 0.706539
v 1.000000 1.990369 0.803966
v 1.000000 1.997591 0.901865
v 1.000000 2.000000 -1.000000
v -1.000000 0.000000 -1.000000
vn 1.0000 -0.0000 -0.0000
vn 0.0443 -0.2942 0.9547
vn 0.2778 -0.5639 0.7777
vn 0.0309 -0.2465 0.9687
vn 0.3811 -0.7480 0.5433
vn 0.3496 -0.7300 0.5873
vn 0.6982 -0.7157 0.0176
vn 0.6927 -0.7206 0.0284
vn 0.0601 -0.3410 0.9381
vn 0.6085 -0.7717 0.1850
vn 0.5840 -0.7792 0.2277
vn 0.0781 -0.3867 0.9189
vn 0.2562 -0.6555 0.7104
vn 0.2264 -0.6244 0.7476
vn 0.1703 -0.5538 0.8150
vn 0.1445 -0.5149 0.8450
vn 0.2868 -0.6836 0.6711
vn 0.5028 -0.7852 0.3615
vn 0.4735 -0.7810 0.4072
vn 0.4125 -0.7625 0.4985
vn 0.0012 -0.0498 0.9988
vn -0.0000 -0.0245 0.9997
vn 0.6737 -0.7361 0.0652
vn 0.6316 -0.7619 0.1436
vn 0.0982 -0.4311 0.8969
vn 0.0112 -0.1490 0.9888
vn 0.0050 -0.0995 0.9950
vn 0.0198 -0.1980 0.9800
vn 0.3181 -0.7085 0.6300
vn -0.7071 0.7071 -0.0000
vn 0.5582 -0.7840 0.2715
vn 0.5311 -0.7861 0.3162
vn -0.0000 -0.0000 -1.0000
vn 0.1977 -0.5904 0.7825
vn 0.4433 -0.7735 0.4530
vn 0.1204 -0.4739 0.8723
vn 0.6534 -0.7499 0.1036
vt 0.000000 0.000000
s 1
f 34/1/1 1/1/1 33/1/1 32/1/1 31/1/1 30/1/1 29/1/1 28/1/1 27/1/1 26/1/1 25/1/1 24/1/1 23/1/1 22/1/1 21/1/1 20/1/1 19/1/1 18/1/1 17/1/1 16/1/1 15/1/1 14/1/1 13/1/1 12/1/1 11/1/1 10/1/1 9/1/1 8/1/1 7/1/1 6/1/1 5/1/1 4/1/1 3/1/1 2/1/1
f 8/1/2 35/1/3 7/1/4
f 21/1/5 35/1/3 20/1/6
f 1/1/7 35/1/3 33/1/8
f 9/1/9 35/1/3 8/1/2
f 29/1/10 35/1/3 28/1/11
f 10/1/12 35/1/3 9/1/9
f 17/1/13 35/1/3 16/1/14
f 14/1/15 35/1/3 13/1/16
f 18/1/17 35/1/3 17/1/13
f 25/1/18 35/1/3 24/1/19
f 22/1/20 35/1/3 21/1/5
f 3/1/21 35/1/3 2/1/22
f 33/1/8 35/1/3 32/1/23
f 30/1/24 35/1/3 29/1/10
f 11/1/25 35/1/3 10/1/12
f 5/1/26 35/1/3 4/1/27
f 6/1/28 35/1/3 5/1/26
f 19/1/29 35/1/3 18/1/17
f 34/1/30 35/1/30 1/1/30
f 7/1/4 35/1/3 6/1/28
f 27/1/31 35/1/3 26/1/32
f 2/1/33 35/1/33 34/1/33
f 15/1/34 35/1/3 14/1/15
f 26/1/32 35/1/3 25/1/18
f 23/1/35 35/1/3 22/1/20
f 12/1/36 35/1/3 11/1/25
f 31/1/37 35/1/3 30/1/24
f 20/1/6 35/1/3 19/1/29
f 16/1/14 35/1/3 15/1/34
f 28/1/11 35/1/3 27/1/31
f 24/1/19 35/1/3 23/1/35
f 4/1/27 35/1/3 3/1/21
f 32/1/23 35/1/3 31/1/37
f 13/1/16 35/1/3 12/1/36
