# Blender 4.1.1
# www.blender.org
mtllib DoubleStaircaseRamp.mtl
o ct2_03_n5_stairside_01.001
v -2.996634 14.948845 -21.837200
v -6.997609 0.001823 -44.337200
v -2.997609 0.001823 -44.337200
v -6.996634 14.948845 -21.837200
v -1.995597 25.242821 -6.837200
v -1.992609 50.242821 30.662800
v -0.000002 50.242821 30.662800
v 0.000001 25.242332 -6.837200
v 2.996637 14.948845 -21.837200
v 6.997615 0.001823 -44.337200
v 2.997615 0.001823 -44.337200
v 6.996637 14.948845 -21.837200
v 1.995598 25.242821 -6.837200
v 1.992605 50.242821 30.662800
vn -0.0000 1.0000 -0.0000
vn 0.0001 1.0000 -0.0000
vn -0.0001 1.0000 -0.0000
vn -0.0000 1.0000 0.0001
vt 1.000000 -0.120462
vt 1.000000 7.378740
vt 0.000000 7.376910
vt 0.000000 -0.123111
vt 0.501101 -0.121784
vt 0.846336 0.000003
vt 0.846336 0.498153
vt 0.000000 -0.120462
vt 1.000000 -0.123111
vt 1.000000 7.376910
vt 0.000000 7.378740
vt 0.498899 -0.121784
vt 0.153664 0.498153
vt 0.153664 0.000003
s 1
usemtl Material
f 2/1/1 4/2/1 1/3/2 3/4/1
f 8/5/3 5/1/2 6/6/1 7/7/4
f 10/8/1 11/9/1 9/10/3 12/11/1
f 8/12/3 7/13/4 14/14/3 13/8/3
