# Blender 4.1.1
# www.blender.org
mtllib SmallStaircase_Rail.mtl
o ct2_02_n1_ks2_kaidan_000.001
v 2.281231 1.252243 8.707107
v 2.141216 6.386245 -8.716905
v 2.281231 6.386245 -8.716905
v 2.201275 6.459243 -8.716905
v 2.361309 1.351273 8.680129
v 2.281231 1.380265 8.685134
v 2.201275 6.459244 -1.215868
v 2.281231 6.488266 -1.215868
v 2.421245 1.275254 8.666091
v 2.421245 6.386245 -8.716905
v 2.351299 6.303267 -8.716905
v 2.421245 6.386246 -1.215868
v 2.351299 6.304245 -1.215868
v 2.211284 1.190262 8.651076
v 2.141216 6.386246 -1.215868
v 2.361309 6.459243 -8.716905
v 2.281231 6.487258 -8.716905
v 2.361309 6.459244 -1.215868
v 2.201275 6.454269 -1.122911
v 2.141216 6.372269 -1.122911
v 2.421245 6.372269 -1.122911
v 2.211284 6.279251 -1.122911
v 2.281231 6.486252 -1.122911
v 2.361309 6.454269 -1.122911
v 2.201275 1.351273 8.680129
v 2.351299 1.190262 8.651076
v 2.141216 1.275254 8.666091
v 2.321270 6.328261 -4.803880
v 2.361309 5.575271 -4.869920
v 2.321270 5.575271 -4.803880
v 2.361309 6.328261 -4.869920
v 2.241314 6.328261 -4.803880
v 2.241314 5.575271 -4.803880
v 2.211284 6.328261 -4.869920
v 2.241314 6.328261 -4.935899
v 2.211284 5.575271 -4.869920
v 2.241314 5.575271 -4.935899
v 2.321270 6.328261 -4.935899
v 2.321270 5.575271 -4.935899
v 2.321270 6.328261 -8.303880
v 2.361309 5.575271 -8.369920
v 2.321270 5.575271 -8.303880
v 2.361309 6.328261 -8.369920
v 2.241314 6.328261 -8.303880
v 2.241314 5.575271 -8.303880
v 2.241314 6.328261 -8.435899
v 2.211284 5.575271 -8.369920
v 2.211284 6.328261 -8.369920
v 2.321270 6.328261 -8.435899
v 2.241314 5.575271 -8.435899
v 2.321270 5.575271 -8.435899
v 2.321270 6.328262 -1.303880
v 2.361309 5.575272 -1.369920
v 2.321270 5.575272 -1.303880
v 2.361309 6.328262 -1.369920
v 2.241314 6.328262 -1.303880
v 2.241314 5.575272 -1.303880
v 2.211284 5.575272 -1.369920
v 2.241314 6.328262 -1.435899
v 2.241314 5.575272 -1.435899
v 2.211284 6.328262 -1.369920
v 2.321270 6.328262 -1.435899
v 2.321270 5.575272 -1.435899
v 2.321270 5.565262 0.380080
v 2.361309 5.036270 0.314101
v 2.321270 5.036270 0.380080
v 2.361309 5.565262 0.314101
v 2.241314 5.565262 0.380080
v 2.241314 5.036270 0.380080
v 2.211284 5.565262 0.314101
v 2.211284 5.036270 0.314101
v 2.241314 5.036270 0.248122
v 2.321270 5.565262 0.248122
v 2.321270 5.036270 0.248122
v 2.241314 5.565262 0.248122
v 2.321270 4.540268 2.380080
v 2.361309 4.011246 2.314101
v 2.321270 4.011246 2.380080
v 2.361309 4.540268 2.314101
v 2.241314 4.540268 2.380080
v 2.241314 4.011246 2.380080
v 2.211284 4.011246 2.314101
v 2.241314 4.011246 2.248122
v 2.211284 4.540268 2.314101
v 2.321270 4.540268 2.248122
v 2.321270 4.011246 2.248122
v 2.241314 4.540268 2.248122
v 2.321270 3.496262 4.380080
v 2.361309 3.011246 4.314101
v 2.321270 3.011246 4.380080
v 2.361309 3.496262 4.314101
v 2.241314 3.496262 4.380080
v 2.241314 3.011246 4.380080
v 2.211284 3.496262 4.314101
v 2.211284 3.011246 4.314101
v 2.241314 3.496262 4.248122
v 2.241314 3.011246 4.248122
v 2.321270 3.496262 4.248122
v 2.321270 3.011246 4.248122
v 2.321270 2.458267 6.355116
v 2.361309 2.017258 6.289076
v 2.321270 2.017258 6.355116
v 2.361309 2.458267 6.289076
v 2.241314 2.458267 6.355116
v 2.241314 2.017258 6.355116
v 2.211284 2.017258 6.289076
v 2.211284 2.458267 6.289076
v 2.321270 2.458267 6.223097
v 2.241314 2.017258 6.223097
v 2.321270 2.017258 6.223097
v 2.241314 2.458267 6.223097
v 2.321270 1.425247 8.345107
v 2.361309 0.992264 8.279128
v 2.321270 0.992264 8.345107
v 2.361309 1.425247 8.279128
v 2.241314 1.425247 8.345107
v 2.241314 0.992264 8.345107
v 2.211284 0.992264 8.279128
v 2.241314 0.992264 8.213088
v 2.211284 1.425247 8.279128
v 2.321270 1.425247 8.213088
v 2.321270 0.992264 8.213088
v 2.241314 1.425247 8.213088
v 2.211284 6.303267 -8.716905
v 2.211284 6.304245 -1.215868
v 2.351299 6.279251 -1.122911
vn -0.3021 -0.1641 0.9391
vn -0.0001 -0.2542 0.9672
vn -0.2039 0.1006 0.9738
vn 0.2039 0.1004 0.9738
vn 0.3021 -0.1641 0.9391
vn 0.2038 -0.5196 0.8297
vn -0.2037 -0.5200 0.8295
vn -0.7815 0.6231 0.0325
vn -0.5726 0.8198 -0.0000
vn -0.7722 0.6353 -0.0000
vn -0.5781 0.8158 0.0176
vn -0.5774 0.7858 0.2214
vn -0.7892 0.5780 0.2075
vn -0.5988 0.7104 0.3698
vn -0.7761 0.5594 0.2912
vn -0.0001 0.1692 0.9856
vn -0.0003 1.0000 -0.0001
vn -0.0003 0.9999 0.0108
vn -0.0002 0.9698 0.2441
vn -0.0002 0.8870 0.4618
vn 0.5783 0.8156 0.0176
vn 0.7729 0.6346 -0.0000
vn 0.5729 0.8197 -0.0001
vn 0.7821 0.6223 0.0325
vn 0.5776 0.7857 0.2214
vn 0.7898 0.5773 0.2073
vn 0.5991 0.7102 0.3697
vn 0.7767 0.5587 0.2909
vn 0.7600 -0.6482 -0.0468
vn 0.7646 -0.6446 -0.0000
vn 0.7646 -0.6445 -0.0000
vn 0.7707 -0.6333 -0.0704
vn 0.7715 -0.6046 -0.1981
vn 0.7755 -0.5831 -0.2420
vn 0.7621 -0.5743 -0.2990
vn -0.7701 -0.6340 -0.0705
vn -0.7640 -0.6452 0.0001
vn -0.7594 -0.6489 -0.0468
vn -0.7710 -0.6052 -0.1983
vn -0.7749 -0.5838 -0.2423
vn -0.7615 -0.5749 -0.2993
vn -0.9103 -0.0000 0.4139
vn -0.0000 -0.0000 1.0000
vn 0.8551 -0.0000 0.5184
vn 0.8549 -0.0000 -0.5188
vn -0.0000 -0.0000 -1.0000
vn -0.9102 -0.0000 -0.4142
vn -0.9102 -0.0000 -0.4143
vn -0.9102 -0.0000 0.4142
vn 0.8549 -0.0000 0.5188
vn 0.8551 -0.0000 -0.5184
vn -0.9103 -0.0000 -0.4139
vn -0.0000 -0.9914 -0.1309
vn -0.0000 -1.0000 0.0001
vn -0.0000 -0.9318 -0.3629
vn -0.0000 -0.8870 -0.4618
vt 1.242154 0.486700
vt 1.203544 0.486700
vt 1.222854 0.525306
vt 1.187053 0.525311
vt 1.206353 0.486705
vt 1.167753 0.486705
vt 1.164887 0.485702
vt 1.203487 0.485702
vt 1.184187 0.447095
vt 1.185632 0.443821
vt 1.204932 0.482428
vt 1.224242 0.443821
vt 1.225688 0.447092
vt 1.206378 0.485699
vt 1.244988 0.485699
vt 0.219787 6.666670
vt 0.279838 3.333330
vt 0.219787 3.333330
vt 0.279826 6.666628
vt 0.278694 6.673792
vt 0.219081 6.679121
vt 0.277577 9.996415
vt 0.217526 9.996414
vt 1.204940 0.518956
vt 1.204935 0.480350
vt 1.185837 0.518956
vt 1.224052 0.518956
vt 0.265031 6.666669
vt 0.294922 3.333330
vt 0.264902 3.333330
vt 0.295050 6.666637
vt 0.294857 6.672249
vt 0.265381 6.675563
vt 0.264373 9.994818
vt 0.294392 9.994818
vt 0.279858 6.666628
vt 0.219820 3.333330
vt 0.279870 3.333330
vt 0.219820 6.666670
vt 0.278723 6.673792
vt 0.219108 6.679120
vt 0.277605 9.996417
vt 0.217555 9.996418
vt 0.209445 6.666484
vt 0.176453 3.333330
vt 0.209469 3.333330
vt 0.176471 6.666670
vt 0.208890 6.678860
vt 0.175988 6.683991
vt 0.208429 9.996396
vt 0.175413 9.996396
vt 0.176458 6.666669
vt 0.209456 3.333331
vt 0.176440 3.333330
vt 0.209431 6.666483
vt 0.208878 6.678858
vt 0.175976 6.683992
vt 0.208416 9.996395
vt 0.175400 9.996394
vt 0.295036 6.666636
vt 0.264889 3.333330
vt 0.294908 3.333332
vt 0.265019 6.666670
vt 0.294845 6.672249
vt 0.265367 6.675563
vt 0.294381 9.994817
vt 0.264362 9.994817
vt 0.057598 0.505869
vt 0.032020 1.238847
vt 0.032315 0.505869
vt 0.058017 1.238847
vt 0.082828 0.505869
vt 0.083004 1.238847
vt 0.108058 0.505869
vt 0.107991 1.238847
vt 0.133289 0.505869
vt 0.133003 1.238847
vt 0.158572 0.505869
vt 0.159024 1.238847
vt 0.007073 1.238847
vt 0.007089 0.505869
vt 0.031982 1.238847
vt 0.082828 0.505869
vt 0.108058 0.505869
vt 0.133289 0.505869
vt 0.057598 0.505869
vt 0.082828 0.505869
vt 0.057607 0.522356
vt 0.032027 1.255335
vt 0.032307 0.522356
vt 0.058024 1.255334
vt 0.082832 0.522356
vt 0.083005 1.255335
vt 0.108056 0.522356
vt 0.107987 1.255334
vt 0.133282 0.522356
vt 0.133003 1.255334
vt 0.158582 0.522356
vt 0.159034 1.255335
vt 0.007066 1.255335
vt 0.007089 0.522356
vt 0.031975 1.255334
vt 0.057607 0.522353
vt 0.032027 1.255331
vt 0.032307 0.522353
vt 0.058024 1.255331
vt 0.082832 0.522353
vt 0.083005 1.255331
vt 0.108056 0.522353
vt 0.107987 1.255331
vt 0.133282 0.522353
vt 0.133003 1.255331
vt 0.158582 0.522353
vt 0.159034 1.255331
vt 0.032307 0.522353
vt 0.007066 1.255331
vt 0.007089 0.522353
vt 0.031975 1.255331
vt 0.057610 0.527382
vt 0.032029 1.260360
vt 0.032305 0.527382
vt 0.058026 1.260360
vt 0.082833 0.527382
vt 0.083006 1.260360
vt 0.108056 0.527382
vt 0.107986 1.260360
vt 0.133280 0.527382
vt 0.133003 1.260360
vt 0.158585 0.527382
vt 0.159037 1.260360
vt 0.032305 0.527382
vt 0.007064 1.260360
vt 0.007089 0.527382
vt 0.031973 1.260360
vt 0.057614 0.533414
vt 0.032031 1.266392
vt 0.032302 0.533414
vt 0.058029 1.266392
vt 0.082835 0.533414
vt 0.083007 1.266392
vt 0.108055 0.533414
vt 0.107985 1.266392
vt 0.133277 0.533414
vt 0.133003 1.266392
vt 0.158589 0.533414
vt 0.159041 1.266392
vt 0.032302 0.533414
vt 0.007062 1.266392
vt 0.007089 0.533414
vt 0.031970 1.266392
vt 0.057615 0.534646
vt 0.032032 1.267624
vt 0.032302 0.534646
vt 0.058029 1.267624
vt 0.082835 0.534646
vt 0.083007 1.267624
vt 0.108055 0.534646
vt 0.107984 1.267624
vt 0.133277 0.534646
vt 0.133003 1.267624
vt 0.158590 0.534646
vt 0.159042 1.267624
vt 0.032302 0.534646
vt 0.007062 1.267624
vt 0.007089 0.534646
vt 0.031969 1.267624
vt 0.167149 6.666670
vt 0.184069 3.333333
vt 0.167149 3.333330
vt 0.184069 6.666670
vt 0.167149 6.684048
vt 0.184069 6.684048
vt 0.167149 9.994445
vt 0.184069 9.994445
vt 1.204940 0.484004
vt 1.242789 0.488609
vt 1.223372 0.526044
vt 1.224239 0.448721
vt 1.185632 0.448721
vt 1.167102 0.488609
vt 1.186531 0.526045
vt 1.204940 0.522611
s 1
usemtl cte_metal_kd1_pipe
f 27/1/1 1/2/2 25/3/3
f 5/4/4 1/5/2 9/6/5
f 9/7/5 1/8/2 26/9/6
f 26/10/6 1/11/2 14/12/7
f 14/13/7 1/14/2 27/15/1
f 15/16/8 4/17/9 2/18/10
f 4/17/9 15/16/8 7/19/11
f 7/19/11 15/16/8 19/20/12
f 20/21/13 19/20/12 15/16/8
f 19/20/12 20/21/13 25/22/14
f 27/23/15 25/22/14 20/21/13
f 6/24/16 1/25/2 5/26/4
f 1/25/2 6/24/16 25/27/3
f 7/28/11 17/29/17 4/30/9
f 17/29/17 7/28/11 8/31/18
f 8/31/18 7/28/11 23/32/19
f 19/33/12 23/32/19 7/28/11
f 25/34/14 23/32/19 19/33/12
f 23/32/19 25/34/14 6/35/20
f 18/36/21 10/37/22 16/38/23
f 10/37/22 18/36/21 12/39/24
f 24/40/25 12/39/24 18/36/21
f 12/39/24 24/40/25 21/41/26
f 5/42/27 21/41/26 24/40/25
f 21/41/26 5/42/27 9/43/28
f 12/44/29 11/45/30 10/46/31
f 11/45/30 12/44/29 13/47/32
f 21/48/33 13/47/32 12/44/29
f 13/47/32 21/48/33 126/49/34
f 9/50/35 126/49/34 21/48/33
f 126/49/34 9/50/35 26/51/35
f 125/52/36 2/53/37 124/54/37
f 2/53/37 125/52/36 15/55/38
f 15/55/38 125/52/36 20/56/39
f 22/57/40 20/56/39 125/52/36
f 20/56/39 22/57/40 27/58/41
f 14/59/41 27/58/41 22/57/40
f 8/60/18 16/61/23 17/62/17
f 16/61/23 8/60/18 18/63/21
f 23/64/19 18/63/21 8/60/18
f 18/63/21 23/64/19 24/65/25
f 6/66/20 24/65/25 23/64/19
f 24/65/25 6/66/20 5/67/27
f 33/68/42 34/69/42 36/70/42
f 34/69/42 33/68/42 32/71/42
f 30/72/43 32/71/43 33/68/43
f 32/71/43 30/72/43 28/73/43
f 29/74/44 28/73/44 30/72/44
f 28/73/44 29/74/44 31/75/44
f 39/76/45 31/75/45 29/74/45
f 31/75/45 39/76/45 38/77/45
f 37/78/46 38/77/46 39/76/46
f 38/77/46 37/78/46 35/79/46
f 36/70/47 35/80/47 37/81/47
f 35/80/47 36/70/47 34/82/47
f 45/68/42 48/69/42 47/70/42
f 48/69/42 45/68/42 44/71/42
f 42/83/43 44/71/43 45/68/43
f 44/71/43 42/83/43 40/73/43
f 41/84/44 40/73/44 42/83/44
f 40/73/44 41/84/44 43/75/44
f 51/85/45 43/75/45 41/84/45
f 43/75/45 51/85/45 49/77/45
f 50/78/46 49/77/46 51/85/46
f 49/77/46 50/78/46 46/79/46
f 47/70/48 46/80/47 50/81/48
f 46/80/47 47/70/48 48/82/47
f 57/86/42 61/69/42 58/70/42
f 61/69/42 57/86/42 56/71/42
f 54/87/43 56/71/43 57/86/43
f 56/71/43 54/87/43 52/73/43
f 53/84/44 52/73/44 54/87/44
f 52/73/44 53/84/44 55/75/44
f 63/76/45 55/75/45 53/84/45
f 55/75/45 63/76/45 62/77/45
f 60/78/46 62/77/46 63/76/46
f 62/77/46 60/78/46 59/79/46
f 58/70/47 59/80/47 60/81/47
f 59/80/47 58/70/47 61/82/47
f 69/88/49 70/89/49 71/90/49
f 70/89/49 69/88/49 68/91/49
f 66/92/43 68/91/43 69/88/43
f 68/91/43 66/92/43 64/93/43
f 65/94/50 64/93/50 66/92/50
f 64/93/50 65/94/50 67/95/50
f 74/96/45 67/95/45 65/94/45
f 67/95/45 74/96/45 73/97/45
f 72/98/46 73/97/46 74/96/46
f 73/97/46 72/98/46 75/99/46
f 71/90/47 75/100/47 72/101/47
f 75/100/47 71/90/47 70/102/47
f 81/103/49 84/104/49 82/105/49
f 84/104/49 81/103/49 80/106/49
f 78/107/43 80/106/43 81/103/43
f 80/106/43 78/107/43 76/108/43
f 77/109/50 76/108/50 78/107/50
f 76/108/50 77/109/50 79/110/50
f 86/111/45 79/110/45 77/109/45
f 79/110/45 86/111/45 85/112/45
f 83/113/46 85/112/46 86/111/46
f 85/112/46 83/113/46 87/114/46
f 82/115/47 87/116/47 83/117/47
f 87/116/47 82/115/47 84/118/47
f 93/119/49 94/120/49 95/121/49
f 94/120/49 93/119/49 92/122/49
f 90/123/43 92/122/43 93/119/43
f 92/122/43 90/123/43 88/124/43
f 89/125/50 88/124/50 90/123/50
f 88/124/50 89/125/50 91/126/50
f 99/127/45 91/126/45 89/125/45
f 91/126/45 99/127/45 98/128/45
f 97/129/46 98/128/46 99/127/46
f 98/128/46 97/129/46 96/130/46
f 95/131/47 96/132/47 97/133/47
f 96/132/47 95/131/47 94/134/48
f 105/135/42 107/136/42 106/137/42
f 107/136/42 105/135/42 104/138/42
f 102/139/43 104/138/43 105/135/43
f 104/138/43 102/139/43 100/140/43
f 101/141/44 100/140/44 102/139/44
f 100/140/44 101/141/44 103/142/44
f 110/143/45 103/142/45 101/141/45
f 103/142/45 110/143/45 108/144/45
f 109/145/46 108/144/46 110/143/46
f 108/144/46 109/145/46 111/146/46
f 106/147/47 111/148/47 109/149/47
f 111/148/47 106/147/47 107/150/47
f 117/151/49 120/152/49 118/153/49
f 120/152/49 117/151/49 116/154/49
f 114/155/43 116/154/43 117/151/43
f 116/154/43 114/155/43 112/156/43
f 113/157/50 112/156/50 114/155/50
f 112/156/50 113/157/50 115/158/50
f 122/159/51 115/158/51 113/157/51
f 115/158/51 122/159/51 121/160/51
f 119/161/46 121/160/46 122/159/46
f 121/160/46 119/161/46 123/162/46
f 118/163/52 123/164/52 119/165/52
f 123/164/52 118/163/52 120/166/52
f 13/167/53 124/168/54 11/169/54
f 124/168/54 13/167/53 125/170/53
f 126/171/55 125/170/53 13/167/53
f 125/170/53 126/171/55 22/172/55
f 26/173/56 22/172/55 126/171/55
f 22/172/55 26/173/56 14/174/56
f 3/175/46 2/176/46 4/177/46
f 2/176/46 3/175/46 124/178/46
f 124/178/46 3/175/46 11/179/46
f 11/179/46 3/175/46 10/180/46
f 10/180/46 3/175/46 16/181/46
f 16/181/46 3/175/46 17/182/46
f 4/177/46 17/182/46 3/175/46
