# Blender 4.1.1
# www.blender.org
mtllib SmallStaircase_Rail.mtl
o SmallStaircase-Rail
v 2.275055 1.254713 4.260922
v 2.181712 6.388715 -4.451084
v 2.275055 6.388715 -4.451084
v 2.221751 6.461713 -4.451084
v 2.328441 1.335140 4.286946
v 2.275055 1.355740 4.307498
v 2.368398 1.281418 4.232705
v 2.368398 6.388715 -4.451084
v 2.321767 6.305737 -4.451084
v 2.228424 1.221136 4.172323
v 2.328441 6.461713 -4.451084
v 2.275055 6.489728 -4.451084
v 2.221751 1.335140 4.286946
v 2.321767 1.221136 4.172323
v 2.181712 1.281418 4.232705
v 2.295928 6.330732 -2.494571
v 2.315948 5.577741 -2.527591
v 2.295928 5.577741 -2.494571
v 2.315948 6.330732 -2.527591
v 2.255950 6.330732 -2.494571
v 2.255950 5.577741 -2.494571
v 2.240935 6.330732 -2.527591
v 2.255950 6.330732 -2.560581
v 2.240935 5.577741 -2.527591
v 2.255950 5.577741 -2.560581
v 2.295928 6.330732 -2.560581
v 2.295928 5.577741 -2.560581
v 2.295928 6.330731 -4.244571
v 2.315948 5.577741 -4.277591
v 2.295928 5.577741 -4.244571
v 2.315948 6.330731 -4.277591
v 2.255950 6.330731 -4.244571
v 2.255950 5.577741 -4.244571
v 2.255950 6.330731 -4.310581
v 2.240935 5.577741 -4.277591
v 2.240935 6.330731 -4.277591
v 2.295928 6.330731 -4.310581
v 2.255950 5.577741 -4.310581
v 2.295928 5.577741 -4.310581
v 2.295928 6.330732 -0.744571
v 2.315948 5.577741 -0.777591
v 2.295928 5.577741 -0.744571
v 2.315948 6.330732 -0.777591
v 2.255950 6.330732 -0.744571
v 2.255950 5.577741 -0.744571
v 2.240935 5.577741 -0.777591
v 2.255950 6.330732 -0.810581
v 2.255950 5.577741 -0.810581
v 2.240935 6.330732 -0.777591
v 2.295928 6.330732 -0.810581
v 2.295928 5.577741 -0.810581
v 2.295928 5.567731 0.097409
v 2.315948 5.038740 0.064419
v 2.295928 5.038740 0.097409
v 2.315948 5.567731 0.064419
v 2.255950 5.567731 0.097409
v 2.255950 5.038740 0.097409
v 2.240935 5.567731 0.064419
v 2.240935 5.038740 0.064419
v 2.255950 5.038740 0.031430
v 2.295928 5.567731 0.031430
v 2.295928 5.038740 0.031430
v 2.255950 5.567731 0.031430
v 2.295928 4.542737 1.097409
v 2.315948 4.013715 1.064419
v 2.295928 4.013715 1.097409
v 2.315948 4.542737 1.064419
v 2.255950 4.542737 1.097409
v 2.255950 4.013715 1.097409
v 2.240935 4.013715 1.064419
v 2.255950 4.013715 1.031430
v 2.240935 4.542737 1.064419
v 2.295928 4.542737 1.031430
v 2.295928 4.013715 1.031430
v 2.255950 4.542737 1.031430
v 2.295928 3.498731 2.097409
v 2.315948 3.013716 2.064419
v 2.295928 3.013716 2.097409
v 2.315948 3.498731 2.064419
v 2.255950 3.498731 2.097409
v 2.255950 3.013716 2.097409
v 2.240935 3.498731 2.064419
v 2.240935 3.013716 2.064419
v 2.255950 3.498731 2.031430
v 2.255950 3.013716 2.031430
v 2.295928 3.498731 2.031430
v 2.295928 3.013716 2.031430
v 2.295928 2.460737 3.084927
v 2.315948 2.019727 3.051907
v 2.295928 2.019727 3.084927
v 2.315948 2.460737 3.051907
v 2.255950 2.460737 3.084927
v 2.255950 2.019727 3.084927
v 2.240935 2.019727 3.051907
v 2.240935 2.460737 3.051907
v 2.295928 2.460737 3.018918
v 2.255950 2.019727 3.018918
v 2.295928 2.019727 3.018918
v 2.255950 2.460737 3.018918
v 2.295928 1.427717 4.079923
v 2.315948 0.994734 4.046933
v 2.295928 0.994734 4.079923
v 2.315948 1.427717 4.046933
v 2.255950 1.427717 4.079923
v 2.255950 0.994734 4.079923
v 2.240935 0.994734 4.046933
v 2.255950 0.994734 4.013913
v 2.240935 1.427717 4.046933
v 2.295928 1.427717 4.013913
v 2.295928 0.994734 4.013913
v 2.255950 1.427717 4.013913
v 2.228424 6.305737 -4.451084
v 2.275055 6.488543 -0.739760
v 2.275055 6.446137 -0.648191
v 2.275055 6.476115 -0.692105
v 2.368398 6.394197 -0.779082
v 2.368398 6.351758 -0.687247
v 2.368398 6.381798 -0.731233
v 2.321767 6.275918 -0.718666
v 2.321767 6.318338 -0.810368
v 2.321767 6.305986 -0.762596
v 2.181712 6.351758 -0.687247
v 2.181712 6.394197 -0.779082
v 2.181712 6.381798 -0.731232
v 2.328441 6.419291 -0.659294
v 2.328441 6.461713 -0.750979
v 2.328441 6.449288 -0.703243
v 2.221751 6.461713 -0.750979
v 2.221751 6.419291 -0.659294
v 2.221751 6.449288 -0.703243
v 2.228424 6.318338 -0.810368
v 2.228424 6.275918 -0.718666
v 2.228424 6.305986 -0.762596
vn -0.3387 0.0001 -0.9409
vn -0.3384 -0.0000 -0.9410
vn 0.3552 -0.0000 -0.9348
vn 0.3550 -0.0000 -0.9349
vn -0.5071 -0.8566 -0.0953
vn -0.9996 0.0173 -0.0238
vn -0.5400 -0.0039 -0.8416
vn -0.2721 -0.4762 -0.8362
vn 0.3549 -0.0000 -0.9349
vn 0.3551 -0.0000 -0.9348
vn 1.0000 -0.0000 0.0007
vn 1.0000 -0.0000 -0.0003
vn -0.3383 -0.0000 0.9410
vn -0.3385 -0.0000 0.9410
vn -1.0000 -0.0000 -0.0002
vn -0.3385 -0.0000 -0.9410
vn -0.3384 -0.0000 0.9410
vn -0.3382 -0.0000 -0.9411
vn 0.3547 -0.0000 -0.9350
vn -0.0030 -0.6846 0.7289
vn 0.4533 -0.8532 -0.2579
vn 0.8180 -0.3270 0.4733
vn 0.5258 -0.0023 0.8506
vn -0.4972 -0.8344 -0.2379
vn 0.6945 0.7138 0.0906
vn 0.9996 0.0172 -0.0237
vn 0.5394 -0.0029 -0.8421
vn 0.3508 0.3650 -0.8624
vn 0.0006 0.1261 0.9920
vn -0.4956 0.0048 0.8685
vn -0.0000 -0.0000 -1.0000
vn -0.3503 0.3651 -0.8625
vn 0.5075 -0.8564 -0.0953
vn 0.2722 -0.4758 -0.8364
vn -0.8243 -0.3202 0.4669
vn -0.9999 0.0169 0.0013
vn -0.4725 -0.6741 -0.5677
vn -0.6944 0.7139 0.0906
vn -0.0003 0.9880 0.1548
vn -0.0018 0.5400 -0.8417
vn -0.0003 0.7562 0.6543
vn -0.6830 0.5581 0.4712
vn 0.6830 0.5581 0.4712
vn 0.3549 -0.0000 0.9349
vn -0.3383 -0.0000 -0.9411
vn -0.3386 -0.0000 -0.9409
vn 0.3548 -0.0000 -0.9349
vn 1.0000 -0.0000 0.0006
vn 1.0000 -0.0000 -0.0006
vn -1.0000 -0.0000 0.0012
vn -1.0000 -0.0000 -0.0000
vn -1.0000 -0.0001 -0.0009
vn -0.3388 -0.0000 0.9409
vn -1.0000 -0.0000 -0.0012
vn -1.0000 -0.0000 0.0009
vn 1.0000 -0.0000 0.0003
vn -0.3383 -0.0000 -0.9410
vn 1.0000 -0.0000 0.0014
vn 1.0000 -0.0000 -0.0000
vn 0.4728 -0.6740 -0.5676
vn 0.9999 0.0168 0.0013
vn 0.3550 -0.0000 0.9349
vn 1.0000 -0.0000 -0.0014
vn 0.3554 -0.0000 0.9347
vn 0.3552 -0.0000 0.9348
vn 0.3547 -0.0000 0.9350
vn -0.3386 -0.0000 0.9409
vn -1.0000 -0.0000 0.0002
vn 0.5031 -0.7892 -0.3521
vn 0.9995 0.0294 -0.0149
vn -0.9995 0.0295 -0.0149
vn -0.5027 -0.7894 -0.3522
vn 0.6939 0.6542 0.3008
vn -0.0003 0.8950 0.4460
vn -0.6939 0.6542 0.3008
vt 0.158548 0.466932
vt 0.159000 1.199910
vt 0.133000 1.199910
vt 0.133305 0.466932
vt 0.167149 6.621077
vt 0.200165 6.621377
vt 0.200165 3.333330
vt 0.167149 3.333330
vt 0.108000 1.199910
vt 0.108061 0.466932
vt 0.057575 0.466932
vt 0.058000 1.199910
vt 0.032000 1.199910
vt 0.032332 0.466932
vt 1.204940 0.468717
vt 1.185640 0.430110
vt 1.166340 0.468717
vt 1.185640 0.507323
vt 1.224250 0.430110
vt 0.260215 6.621863
vt 0.200165 6.621377
vt 0.260215 3.333330
vt 1.204940 0.507323
vt 1.224250 0.507323
vt 1.243550 0.468717
vt 0.167149 10.000000
vt 0.200165 10.000000
vt 0.200165 6.694388
vt 0.167149 6.694524
vt 0.260215 6.621864
vt 0.290234 6.622096
vt 0.290234 3.333330
vt 0.184069 6.621077
vt 0.184069 3.333330
vt 0.260215 10.000000
vt 0.290234 10.000000
vt 0.290234 6.694199
vt 0.260215 6.694253
vt 0.260215 6.694253
vt 0.083000 1.199910
vt 0.082818 0.466932
vt 0.007089 1.199910
vt 0.007089 0.466932
vt 0.167149 6.694524
vt 0.200165 6.694387
vt 0.184069 10.000000
vt 0.184069 6.694524
vt 0.167149 6.666670
vt 0.198706 6.666670
vt 0.198708 6.666670
vt 0.257183 6.666670
vt 0.288459 6.666670
vt 0.184069 6.666670
vt 0.257187 6.666670
s 1
usemtl cte_metal_kd1_pipe
f 60/1/1 63/2/2 61/3/3 62/4/4
f 131/5/5 123/6/6 2/7/7 112/8/8
f 98/4/9 96/3/10 91/9/11 89/10/12
f 93/11/13 92/12/14 95/13/15 94/14/15
f 97/1/16 99/2/2 96/3/10 98/4/9
f 45/11/17 44/12/17 49/13/15 46/14/15
f 71/1/1 75/2/18 73/3/3 74/4/19
f 1/15/20 14/16/21 7/17/22 5/18/23
f 14/16/21 1/15/20 10/19/24
f 126/20/25 116/21/26 8/7/27 11/22/28
f 6/23/29 1/15/20 5/18/23
f 1/15/20 6/23/29 13/24/30
f 3/15/31 112/19/8 2/25/7 4/24/32
f 116/21/26 120/5/33 9/8/34 8/7/27
f 10/26/24 15/27/35 122/28/36 132/29/37
f 128/30/38 113/31/39 12/32/40 4/22/32
f 120/5/33 131/33/5 112/34/8 9/8/34
f 13/35/30 6/36/29 114/37/41 129/38/42
f 6/36/29 5/35/23 125/39/43 114/37/41
f 41/10/11 43/9/12 40/40/44 42/41/44
f 48/1/45 47/2/46 50/3/47 51/4/10
f 46/14/15 49/13/15 47/42/46 48/43/45
f 35/14/15 36/13/15 34/42/46 38/43/45
f 74/4/19 73/3/3 67/9/48 65/10/49
f 3/15/31 11/18/28 8/17/27 9/16/34
f 112/19/8 3/15/31 9/16/34
f 11/18/28 3/15/31 12/23/40
f 4/24/32 12/23/40 3/15/31
f 10/19/24 1/15/20 13/24/30 15/25/35
f 59/14/50 58/13/51 63/42/2 60/43/1
f 69/11/17 68/12/17 72/13/52 70/14/51
f 81/11/17 80/12/53 82/13/54 83/14/55
f 110/4/9 109/3/9 103/9/56 101/10/56
f 27/4/10 26/3/47 19/9/12 17/10/11
f 39/4/10 37/3/47 31/9/12 29/10/11
f 83/14/55 82/13/54 84/42/57 85/43/16
f 51/4/10 50/3/47 43/9/12 41/10/11
f 62/4/4 61/3/3 55/9/58 53/10/59
f 85/1/16 84/2/57 86/3/10 87/4/47
f 29/10/11 31/9/12 28/40/44 30/41/44
f 7/27/22 14/26/21 119/44/60 117/45/61
f 15/27/35 13/35/30 129/38/42 122/28/36
f 18/41/44 16/40/44 20/12/17 21/11/17
f 65/10/49 67/9/48 64/40/44 66/41/62
f 42/41/44 40/40/44 44/12/17 45/11/17
f 77/10/63 79/9/48 76/40/44 78/41/64
f 54/41/65 52/40/66 56/12/67 57/11/13
f 78/41/64 76/40/44 80/12/53 81/11/17
f 105/11/14 104/12/13 108/13/68 106/14/68
f 90/41/62 88/40/44 92/12/14 93/11/13
f 66/41/62 64/40/44 68/12/17 69/11/17
f 101/10/56 103/9/56 100/40/62 102/41/44
f 17/10/11 19/9/12 16/40/44 18/41/44
f 123/6/6 128/30/38 4/22/32 2/7/7
f 33/11/17 32/12/17 36/13/15 35/14/15
f 25/1/45 23/2/46 26/3/47 27/4/10
f 24/14/15 22/13/15 23/42/46 25/43/45
f 89/10/12 91/9/11 88/40/44 90/41/62
f 14/26/21 10/46/24 132/47/37 119/44/60
f 30/41/44 28/40/44 32/12/17 33/11/17
f 53/10/59 55/9/58 52/40/66 54/41/65
f 38/1/45 34/2/46 37/3/47 39/4/10
f 57/11/13 56/12/67 58/13/51 59/14/50
f 5/35/23 7/27/22 117/45/61 125/39/43
f 94/14/15 95/13/15 99/42/2 97/43/16
f 107/1/2 111/2/2 109/3/9 110/4/9
f 21/11/17 20/12/17 22/13/15 24/14/15
f 102/41/44 100/40/62 104/12/13 105/11/14
f 87/4/47 86/3/10 79/9/48 77/10/63
f 70/14/51 72/13/52 75/42/18 71/43/1
f 106/14/68 108/13/68 111/42/2 107/43/2
f 117/45/61 119/44/60 121/48/69 118/49/70
f 118/49/70 121/48/69 120/5/33 116/21/26
f 132/29/37 122/28/36 124/50/71 133/48/72
f 133/48/72 124/50/71 123/6/6 131/5/5
f 114/37/41 125/39/43 127/51/73 115/52/74
f 115/52/74 127/51/73 126/20/25 113/31/39
f 119/44/60 132/47/37 133/53/72 121/48/69
f 121/48/69 133/53/72 131/33/5 120/5/33
f 125/39/43 117/45/61 118/49/70 127/51/73
f 127/51/73 118/49/70 116/21/26 126/20/25
f 129/38/42 114/37/41 115/52/74 130/54/75
f 130/54/75 115/52/74 113/31/39 128/30/38
f 128/30/38 123/6/6 124/50/71 130/54/75
f 130/54/75 124/50/71 122/28/36 129/38/42
f 113/31/39 126/20/25 11/22/28 12/32/40
