# Blender 4.1.1
# www.blender.org
mtllib Road_Slope.mtl
o Road-Angled.001
v 4.176514 -0.000025 -10.000000
v 6.256592 -0.000025 -10.000000
v 7.006592 -0.000025 -10.000000
v 7.151489 0.194921 -9.999998
v 10.000000 0.194921 -9.999998
v 7.011597 0.174902 -9.999998
v 7.031616 0.194921 -10.000000
v 5.556641 0.019995 -10.000000
v 5.906494 0.019995 -10.000000
v -4.176514 -0.000025 -10.000000
v -6.256592 -0.000025 -10.000000
v -7.006592 -0.000025 -10.000000
v -7.151489 0.194921 -9.999998
v -10.000000 0.194921 -9.999998
v -7.011597 0.174902 -9.999998
v -7.031616 0.194921 -10.000000
v -5.556641 0.019995 -10.000000
v -5.906494 0.019995 -10.000000
v 0.164978 0.013672 -10.000000
v 0.526978 0.013672 -10.000000
v -0.559997 0.013672 -10.000000
v -0.197998 0.013672 -10.000000
v 0.000000 -0.000025 -10.000000
v 6.256592 -10.000021 9.999989
v 4.176514 -10.000021 9.999989
v 7.006592 -10.000021 9.999989
v 10.000000 -9.840330 10.111805
v 7.011597 -9.856728 10.100319
v 7.151489 -9.840330 10.111805
v 7.031616 -9.840330 10.111805
v 5.906494 -9.983622 10.011471
v 5.556641 -9.983622 10.011471
v -6.256592 -10.000021 9.999989
v -4.176514 -10.000021 9.999989
v -7.006592 -10.000021 9.999989
v -10.000000 -9.840330 10.111805
v -7.011597 -9.856728 10.100319
v -7.151489 -9.840330 10.111805
v -7.031616 -9.840330 10.111805
v -5.906494 -9.983622 10.011471
v -5.556641 -9.983622 10.011471
v 0.526977 -9.988801 10.007843
v 0.164978 -9.988801 10.007843
v -0.197998 -9.988801 10.007843
v -0.559998 -9.988801 10.007843
v 0.000000 -10.000021 9.999989
v -10.000000 -8.219319 7.894505
v -10.000000 -6.679095 5.918941
v -10.000000 -5.240820 4.111641
v -10.000000 -3.925657 2.399124
v -10.000000 -2.754766 0.707920
v -10.000000 -1.749311 -1.035444
v -10.000000 -0.930453 -2.904444
v -10.000000 -0.319354 -4.972553
v -10.000000 0.062825 -7.313246
v -7.151470 0.062825 -7.313246
v -7.151459 -0.319354 -4.972553
v -7.151455 -0.930453 -2.904444
v -7.151455 -1.749311 -1.035444
v -7.151460 -2.754766 0.707920
v -7.151466 -3.925657 2.399124
v -7.151474 -5.240820 4.111641
v -7.151481 -6.679094 5.918941
v -7.151486 -8.219318 7.894505
v -7.031665 0.062895 -7.313183
v -7.031716 -0.319216 -4.972450
v -7.031765 -0.930256 -2.904322
v -7.031807 -1.749066 -1.035320
v -7.031836 -2.754491 0.708033
v -7.031847 -3.925373 2.399216
v -7.031837 -5.240554 4.111706
v -7.031797 -6.678879 5.918983
v -7.031725 -8.219190 7.894524
v -7.011664 0.042882 -7.314644
v -7.011726 -0.339171 -4.975224
v -7.011779 -0.950091 -2.908289
v -7.011819 -1.768709 -1.040392
v -7.011844 -2.773860 0.701916
v -7.011848 -3.944374 2.392082
v -7.011830 -5.259086 4.103558
v -7.011784 -6.696827 5.909790
v -7.011708 -8.236430 7.884224
v -7.006591 -0.131916 -7.327333
v -7.006591 -0.513391 -4.999331
v -7.006590 -1.123198 -2.942799
v -7.006590 -1.940086 -1.084543
v -7.006590 -2.942803 0.648628
v -7.006590 -4.110097 2.329906
v -7.006590 -5.420718 4.032490
v -7.006590 -6.853414 5.829567
v -7.006591 -8.386932 7.794334
v -6.256592 -0.131900 -7.327318
v -6.256592 -0.513359 -4.999306
v -6.256592 -1.123152 -2.942770
v -6.256592 -1.940028 -1.084515
v -6.256592 -2.942738 0.648653
v -6.256592 -4.110030 2.329929
v -6.256592 -5.420654 4.032505
v -6.256592 -6.853362 5.829578
v -6.256592 -8.386901 7.794342
v -4.176514 -0.131900 -7.327318
v -4.176514 -0.513359 -4.999306
v -4.176514 -1.123152 -2.942770
v -4.176514 -1.940028 -1.084515
v -4.176514 -2.942738 0.648653
v -4.176514 -4.110030 2.329929
v -4.176514 -5.420654 4.032505
v -4.176514 -6.853362 5.829578
v -4.176514 -8.386901 7.794342
v 0.000000 -0.131900 -7.327318
v 0.000000 -0.513359 -4.999306
v 0.000000 -1.123152 -2.942770
v 0.000000 -1.940028 -1.084515
v 0.000000 -2.942737 0.648653
v 0.000000 -4.110029 2.329929
v 0.000000 -5.420654 4.032505
v 0.000000 -6.853361 5.829578
v 0.000000 -8.386900 7.794342
v 4.176514 -0.131900 -7.327318
v 4.176514 -0.513359 -4.999306
v 4.176514 -1.123152 -2.942770
v 4.176514 -1.940028 -1.084515
v 4.176514 -2.942738 0.648653
v 4.176514 -4.110030 2.329929
v 4.176514 -5.420654 4.032505
v 4.176514 -6.853362 5.829578
v 4.176514 -8.386901 7.794342
v 6.256592 -0.131900 -7.327318
v 6.256592 -0.513359 -4.999306
v 6.256592 -1.123152 -2.942770
v 6.256592 -1.940028 -1.084515
v 6.256592 -2.942738 0.648653
v 6.256592 -4.110030 2.329929
v 6.256592 -5.420654 4.032505
v 6.256592 -6.853362 5.829578
v 6.256592 -8.386901 7.794342
v 7.006591 -0.131916 -7.327333
v 7.006591 -0.513391 -4.999331
v 7.006590 -1.123198 -2.942799
v 7.006590 -1.940086 -1.084543
v 7.006590 -2.942803 0.648628
v 7.006590 -4.110097 2.329906
v 7.006590 -5.420718 4.032490
v 7.006590 -6.853414 5.829567
v 7.006591 -8.386932 7.794334
v 7.011664 0.042882 -7.314644
v 7.011726 -0.339171 -4.975224
v 7.011779 -0.950091 -2.908289
v 7.011819 -1.768709 -1.040392
v 7.011844 -2.773860 0.701916
v 7.011848 -3.944374 2.392082
v 7.011830 -5.259086 4.103558
v 7.011784 -6.696827 5.909790
v 7.011708 -8.236430 7.884224
v 7.031665 0.062895 -7.313183
v 7.031716 -0.319216 -4.972450
v 7.031765 -0.930256 -2.904322
v 7.031807 -1.749066 -1.035320
v 7.031836 -2.754491 0.708033
v 7.031847 -3.925373 2.399216
v 7.031837 -5.240554 4.111706
v 7.031797 -6.678879 5.918983
v 7.031725 -8.219190 7.894524
v 7.151470 0.062825 -7.313246
v 7.151459 -0.319354 -4.972553
v 7.151455 -0.930453 -2.904444
v 7.151455 -1.749311 -1.035444
v 7.151460 -2.754766 0.707920
v 7.151466 -3.925657 2.399124
v 7.151474 -5.240820 4.111641
v 7.151481 -6.679094 5.918941
v 7.151486 -8.219318 7.894505
v 10.000000 0.062825 -7.313246
v 10.000000 -0.319354 -4.972553
v 10.000000 -0.930453 -2.904444
v 10.000000 -1.749311 -1.035444
v 10.000000 -2.754766 0.707920
v 10.000000 -3.925657 2.399124
v 10.000000 -5.240820 4.111641
v 10.000000 -6.679095 5.918941
v 10.000000 -8.219319 7.894505
v 0.164978 -8.375128 7.801380
v 0.164978 -6.841119 5.835857
v 0.164978 -5.408020 4.038067
v 0.164978 -4.097076 2.334793
v 0.164978 -2.929531 0.652819
v 0.164978 -1.926629 -1.081066
v 0.164978 -1.109613 -2.940077
v 0.164978 -0.499729 -4.997427
v 0.164978 -0.118219 -7.326330
v 0.526978 -0.118219 -7.326330
v 0.526978 -0.499729 -4.997427
v 0.526978 -1.109613 -2.940077
v 0.526978 -1.926629 -1.081066
v 0.526978 -2.929531 0.652819
v 0.526977 -4.097076 2.334793
v 0.526977 -5.408020 4.038067
v 0.526977 -6.841119 5.835857
v 0.526977 -8.375128 7.801380
v -0.559998 -8.375128 7.801380
v -0.559998 -6.841119 5.835857
v -0.559998 -5.408020 4.038067
v -0.559998 -4.097076 2.334793
v -0.559998 -2.929531 0.652819
v -0.559997 -1.926629 -1.081066
v -0.559997 -1.109613 -2.940077
v -0.559997 -0.499729 -4.997427
v -0.559997 -0.118219 -7.326330
v -0.197998 -0.118219 -7.326330
v -0.197998 -0.499729 -4.997427
v -0.197998 -1.109613 -2.940077
v -0.197998 -1.926629 -1.081066
v -0.197998 -2.929531 0.652819
v -0.197998 -4.097076 2.334793
v -0.197998 -5.408020 4.038067
v -0.197998 -6.841119 5.835857
v -0.197998 -8.375128 7.801380
v 5.556641 -8.369690 7.804634
v 5.556641 -6.835464 5.838760
v 5.556641 -5.402185 4.040638
v 5.556641 -4.091095 2.337040
v 5.556641 -2.923434 0.654745
v 5.556641 -1.920443 -1.079472
v 5.556641 -1.103363 -2.938831
v 5.556641 -0.493436 -4.996557
v 5.556641 -0.111903 -7.325872
v 5.906494 -0.111903 -7.325872
v 5.906494 -0.493436 -4.996557
v 5.906494 -1.103363 -2.938831
v 5.906494 -1.920443 -1.079472
v 5.906494 -2.923434 0.654745
v 5.906494 -4.091095 2.337040
v 5.906494 -5.402185 4.040638
v 5.906494 -6.835464 5.838760
v 5.906494 -8.369690 7.804634
v -5.556641 -0.111903 -7.325872
v -5.556641 -0.493436 -4.996557
v -5.556641 -1.103363 -2.938831
v -5.556641 -1.920443 -1.079472
v -5.556641 -2.923434 0.654745
v -5.556641 -4.091095 2.337040
v -5.556641 -5.402185 4.040638
v -5.556641 -6.835464 5.838760
v -5.556641 -8.369690 7.804634
v -5.906494 -8.369690 7.804634
v -5.906494 -6.835464 5.838760
v -5.906494 -5.402185 4.040638
v -5.906494 -4.091095 2.337040
v -5.906494 -2.923434 0.654745
v -5.906494 -1.920443 -1.079472
v -5.906494 -1.103363 -2.938831
v -5.906494 -0.493436 -4.996557
v -5.906494 -0.111903 -7.325872
vn -0.0000 0.8073 0.5902
vn -0.0002 0.8073 0.5902
vn -0.0004 0.7980 0.6026
vn -0.0000 0.7981 0.6026
vn 0.0054 0.8072 0.5902
vn 0.0321 0.7973 0.6027
vn 0.6922 0.5862 0.4210
vn 0.7051 0.5590 0.4363
vn 0.9996 0.0222 0.0162
vn 0.3488 -0.0579 0.9354
vn -0.0000 0.8072 0.5903
vn -0.0000 0.7978 0.6029
vn -0.9996 0.0226 0.0159
vn -0.4174 0.8358 -0.3567
vn -0.6921 0.5863 0.4211
vn -0.9988 -0.0069 0.0488
vn -0.0053 0.8073 0.5902
vn -0.3226 0.4899 0.8099
vn 0.0002 0.8073 0.5902
vn 0.0004 0.7980 0.6026
vn -0.0008 0.7856 0.6188
vn -0.0000 0.7856 0.6188
vn -0.0010 0.7878 0.6159
vn -0.0000 0.7878 0.6159
vn -0.0012 0.8079 0.5893
vn -0.0000 0.8079 0.5893
vn -0.0012 0.8449 0.5349
vn -0.0000 0.8449 0.5349
vn -0.0011 0.8925 0.4511
vn -0.0000 0.8925 0.4511
vn -0.0009 0.9393 0.3430
vn -0.0000 0.9393 0.3430
vn -0.0006 0.9749 0.2227
vn -0.0000 0.9749 0.2227
vn -0.0003 0.9944 0.1053
vn -0.0000 0.9944 0.1053
vn -0.0002 0.9988 0.0491
vn -0.0000 0.9988 0.0491
vn 0.0279 0.7849 0.6190
vn 0.0235 0.7876 0.6157
vn 0.0199 0.8083 0.5885
vn 0.0180 0.8458 0.5333
vn 0.0176 0.8933 0.4491
vn 0.0182 0.9398 0.3412
vn 0.0193 0.9750 0.2215
vn 0.0205 0.9943 0.1047
vn 0.3394 0.8530 0.3965
vn 0.7016 0.5676 0.4307
vn 0.6980 0.5810 0.4186
vn 0.6947 0.6002 0.3964
vn 0.6923 0.6248 0.3610
vn 0.6913 0.6522 0.3110
vn 0.6914 0.6784 0.2486
vn 0.6924 0.6989 0.1792
vn 0.6938 0.7118 0.1093
vn 0.9994 0.0268 -0.0221
vn 0.2819 -0.0219 0.9592
vn 0.2402 0.0169 0.9706
vn 0.2247 0.0603 0.9726
vn 0.2347 0.1100 0.9658
vn 0.2672 0.1662 0.9492
vn 0.3149 0.2272 0.9215
vn 0.3662 0.2903 0.8841
vn 0.4084 0.3535 0.8416
vn 0.4586 0.4403 0.7719
vn -0.0000 0.7851 0.6193
vn -0.0000 0.7872 0.6167
vn -0.0000 0.8442 0.5360
vn -0.0000 0.8919 0.4523
vn -0.0000 0.9390 0.3440
vn -0.0000 0.9747 0.2234
vn -0.0000 0.9944 0.1057
vn -0.0000 0.9988 0.0493
vn -0.4157 0.8417 -0.3445
vn -0.4140 0.8389 -0.3533
vn -0.4131 0.8246 -0.3864
vn -0.4133 0.7950 -0.4440
vn -0.4143 0.7465 -0.5207
vn -0.4156 0.6788 -0.6054
vn -0.4166 0.5979 -0.6848
vn -0.4171 0.5139 -0.7496
vn -0.4586 0.4403 0.7719
vn -0.9965 -0.0215 0.0813
vn -0.9941 -0.0274 0.1050
vn -0.9928 -0.0247 0.1171
vn -0.9932 -0.0146 0.1155
vn -0.9950 -0.0000 0.0998
vn -0.9972 0.0147 0.0734
vn -0.9987 0.0253 0.0431
vn -0.9994 0.0302 0.0171
vn -0.9994 0.0268 -0.0221
vn -0.2983 0.4825 0.8236
vn -0.2815 0.4921 0.8238
vn -0.2739 0.5218 0.8079
vn -0.2763 0.5718 0.7725
vn -0.2875 0.6373 0.7150
vn -0.3043 0.7087 0.6365
vn -0.3221 0.7749 0.5439
vn -0.3364 0.8281 0.4484
vn -0.3394 0.8530 0.3966
vn 0.0008 0.7856 0.6188
vn 0.0010 0.7878 0.6159
vn 0.0012 0.8079 0.5893
vn 0.0012 0.8449 0.5349
vn 0.0011 0.8925 0.4511
vn 0.0009 0.9393 0.3430
vn 0.0006 0.9749 0.2227
vn 0.0003 0.9944 0.1053
vn 0.0002 0.9988 0.0491
vn -0.0000 0.7852 0.6193
vn -0.0000 0.8443 0.5359
vn -0.0000 0.8919 0.4522
vn -0.0000 0.9944 0.1056
vn -0.0000 0.7979 0.6029
vn -0.0000 0.7873 0.6166
vn -0.0000 0.8072 0.5902
vn -0.0000 0.9390 0.3439
vt 0.000147 -1.500000
vt 0.776155 -1.500000
vt 0.776155 -1.100000
vt 0.000147 -1.100000
vt 0.807705 -1.500000
vt 0.807705 -1.100000
vt 0.812883 -1.500000
vt 0.812883 -1.100000
vt 0.846124 -1.500000
vt 0.846124 -1.100000
vt 0.999059 -1.500000
vt 0.999059 -1.100000
vt 0.250000 -1.500000
vt 0.750000 -1.500000
vt 0.750000 -1.100000
vt 0.250000 -1.100000
vt 0.000000 -1.500000
vt 1.000000 -1.500000
vt 1.000000 -1.100000
vt 0.000000 -1.100000
vt 1.000000 -1.500000
vt -0.000000 -1.500000
vt -0.000000 -1.100000
vt 1.000000 -1.100000
vt 0.000147 -1.100000
vt 0.776155 -0.700000
vt 0.000147 -0.700000
vt 0.776155 -0.300000
vt 0.000147 -0.300000
vt 0.776155 0.100000
vt 0.000147 0.100000
vt 0.776155 0.500000
vt 0.000147 0.500000
vt 0.776155 0.900000
vt 0.000147 0.900000
vt 0.776155 1.300000
vt 0.000147 1.300000
vt 0.776155 1.700000
vt 0.000147 1.700000
vt 0.776155 2.100000
vt 0.000147 2.100000
vt 0.776155 2.500000
vt 0.000147 2.500000
vt 0.807705 -0.700000
vt 0.807705 -0.300000
vt 0.807705 0.100000
vt 0.807705 0.500000
vt 0.807705 0.900000
vt 0.807705 1.300000
vt 0.807705 1.700000
vt 0.807705 2.100000
vt 0.807705 2.500000
vt 0.812883 -0.700000
vt 0.812883 -0.300000
vt 0.812883 0.100000
vt 0.812883 0.500000
vt 0.812883 0.900000
vt 0.812883 1.300000
vt 0.812883 1.700000
vt 0.812883 2.100000
vt 0.812883 2.500000
vt 0.846124 -0.700000
vt 0.846124 -0.300000
vt 0.846124 0.100000
vt 0.846124 0.500000
vt 0.846124 0.900000
vt 0.846124 1.300000
vt 0.846124 1.700000
vt 0.846124 2.100000
vt 0.846124 2.500000
vt 0.999059 -0.700000
vt 0.999059 -0.300000
vt 0.999059 0.100000
vt 0.999059 0.500000
vt 0.999059 0.900000
vt 0.999059 1.300000
vt 0.999059 1.700000
vt 0.999059 2.100000
vt 0.999059 2.500000
vt 0.750000 -0.700000
vt 0.250000 -0.700000
vt 0.750000 -0.300000
vt 0.250000 -0.300000
vt 0.750000 0.100000
vt 0.250000 0.100000
vt 0.750000 0.500000
vt 0.250000 0.500000
vt 0.750000 0.900000
vt 0.250000 0.900000
vt 0.750000 1.300000
vt 0.250000 1.300000
vt 0.750000 1.700000
vt 0.250000 1.700000
vt 0.750000 2.100000
vt 0.250000 2.100000
vt 0.750000 2.500000
vt 0.250000 2.500000
vt 1.000000 -0.700000
vt 0.000000 -0.700000
vt 1.000000 -0.300000
vt 0.000000 -0.299999
vt 1.000000 0.100000
vt 0.000000 0.100001
vt 1.000000 0.500000
vt 0.000000 0.500001
vt 1.000000 0.900000
vt 0.000000 0.900001
vt 1.000000 1.299999
vt 0.000000 1.300001
vt 1.000000 1.699999
vt 0.000000 1.700001
vt 1.000000 2.099999
vt 0.000000 2.100001
vt 1.000000 2.499999
vt 0.000000 2.500000
vt -0.000000 -0.700000
vt 1.000000 -0.700000
vt -0.000000 -0.300000
vt 1.000000 -0.300000
vt -0.000000 0.099999
vt 1.000000 0.100000
vt -0.000000 0.499999
vt -0.000000 0.899999
vt -0.000000 1.299998
vt -0.000000 1.699998
vt -0.000000 2.099998
vt -0.000000 2.499997
vt 0.000147 -0.700000
vt 0.000147 -0.300000
vt 0.000147 0.100000
vt 0.000147 0.500000
vt 0.000147 0.900000
vt 0.000147 1.300000
vt 0.000147 1.700000
vt -1.000000 0.122432
vt -0.999999 0.192707
vt -0.599999 0.192707
vt -0.600000 0.122432
vt -0.199999 0.192707
vt -0.200000 0.122432
vt 0.200001 0.192707
vt 0.200000 0.122432
vt 0.600000 0.192707
vt 0.600000 0.122432
vt 1.000000 0.192707
vt 1.000000 0.122432
vt 1.400000 0.192707
vt 1.400000 0.122432
vt 1.800000 0.192707
vt 1.800000 0.122432
vt 2.200000 0.192707
vt 2.200000 0.122432
vt 2.600000 0.192707
vt 2.600000 0.122432
vt 3.000000 0.192707
vt 3.000000 0.122432
vt -1.500000 0.122432
vt -1.500000 0.192707
vt -1.100000 0.192707
vt -1.100000 0.122432
vt -0.700000 0.192707
vt -0.700000 0.122432
vt -0.300000 0.192707
vt -0.300000 0.122432
vt 0.100000 0.192707
vt 0.100000 0.122432
vt 0.500000 0.192707
vt 0.500000 0.122432
vt 0.900000 0.192707
vt 0.900000 0.122432
vt 1.300000 0.192707
vt 1.300000 0.122432
vt 1.700000 0.192707
vt 1.700000 0.122432
vt 2.099999 0.192707
vt 2.100000 0.122432
vt 2.500000 0.192707
vt 2.500000 0.122432
vt -0.999952 0.002500
vt -1.000013 0.038518
vt -0.700016 0.038875
vt -0.699958 0.002961
vt -0.400019 0.039232
vt -0.399964 0.003421
vt -0.100022 0.039590
vt -0.099970 0.003882
vt 0.199975 0.039947
vt 0.200024 0.004343
vt 0.499972 0.040304
vt 0.500018 0.004804
vt 0.799969 0.040661
vt 0.800011 0.005264
vt 1.099966 0.041018
vt 1.100005 0.005725
vt 1.399963 0.041376
vt 1.399999 0.006186
vt 1.699960 0.041733
vt 1.699993 0.006646
vt 1.999957 0.042090
vt 1.999987 0.007107
vt -0.699958 0.002961
vt -0.700016 0.038875
vt -0.399964 0.003421
vt -0.400019 0.039232
vt -0.099970 0.003882
vt -0.100022 0.039590
vt 0.200024 0.004343
vt 0.199975 0.039947
vt 0.500017 0.004803
vt 0.499972 0.040304
vt 0.800011 0.005264
vt 0.799969 0.040661
vt 1.100005 0.005725
vt 1.099966 0.041018
vt 1.399999 0.006186
vt 1.699993 0.006646
vt 1.699960 0.041733
s 1
usemtl cte_ground_kd1_roada1_blend
f 34/17/11 46/18/11 118/19/12 109/20/12
f 46/21/11 25/22/11 127/23/12 118/24/12
f 109/20/12 118/19/12 117/98/66 108/99/66
f 108/99/66 117/98/66 116/100/67 107/101/67
f 107/101/67 116/100/67 115/102/11 106/103/11
f 106/103/11 115/102/11 114/104/68 105/105/68
f 105/105/68 114/104/68 113/106/69 104/107/69
f 104/107/69 113/106/69 112/108/70 103/109/70
f 103/109/70 112/108/70 111/110/71 102/111/71
f 102/111/71 111/110/71 110/112/72 101/113/72
f 101/113/72 110/112/72 23/114/73 10/115/73
f 118/24/12 127/23/12 126/116/66 117/117/66
f 117/117/66 126/116/66 125/118/67 116/119/67
f 116/119/67 125/118/67 124/120/11 115/121/11
f 115/121/11 124/120/11 123/122/68 114/104/68
f 114/104/68 123/122/68 122/123/69 113/106/69
f 113/106/69 122/123/69 121/124/70 112/108/70
f 112/108/70 121/124/70 120/125/71 111/110/71
f 111/110/71 120/125/71 119/126/72 110/112/72
f 110/112/72 119/126/72 1/127/73 23/114/73
usemtl cte_ground_kd1_roada4_blend
f 33/13/11 34/14/11 109/15/12 100/16/12
f 25/14/11 24/13/11 136/16/12 127/15/12
f 100/16/12 109/15/12 108/80/66 99/81/66
f 99/81/66 108/80/66 107/82/67 98/83/67
f 98/83/67 107/82/67 106/84/11 97/85/11
f 97/85/11 106/84/11 105/86/68 96/87/68
f 96/87/68 105/86/68 104/88/69 95/89/69
f 95/89/69 104/88/69 103/90/70 94/91/70
f 94/91/70 103/90/70 102/92/71 93/93/71
f 93/93/71 102/92/71 101/94/72 92/95/72
f 92/95/72 101/94/72 10/96/73 11/97/73
f 127/15/12 136/16/12 135/81/66 126/80/66
f 126/80/66 135/81/66 134/83/67 125/82/67
f 125/82/67 134/83/67 133/85/11 124/84/11
f 124/84/11 133/85/11 132/87/68 123/86/68
f 123/86/68 132/87/68 131/89/69 122/88/69
f 122/88/69 131/89/69 130/91/70 121/90/70
f 121/90/70 130/91/70 129/93/71 120/92/71
f 120/92/71 129/93/71 128/95/72 119/94/72
f 119/94/72 128/95/72 2/97/73 1/96/73
usemtl cte_ground_kd1_roadc1
f 36/1/1 38/2/2 64/3/3 47/4/4
f 38/2/2 39/5/5 73/6/6 64/3/3
f 39/5/5 37/7/7 82/8/8 73/6/6
f 37/7/7 35/9/9 91/10/10 82/8/8
f 35/9/9 33/11/11 100/12/12 91/10/10
f 24/11/11 26/9/13 145/10/14 136/12/12
f 26/9/13 28/7/15 154/8/16 145/10/14
f 28/7/15 30/5/17 163/6/18 154/8/16
f 30/5/17 29/2/19 172/3/20 163/6/18
f 29/2/19 27/1/1 181/25/4 172/3/20
f 47/4/4 64/3/3 63/26/21 48/27/22
f 48/27/22 63/26/21 62/28/23 49/29/24
f 49/29/24 62/28/23 61/30/25 50/31/26
f 50/31/26 61/30/25 60/32/27 51/33/28
f 51/33/28 60/32/27 59/34/29 52/35/30
f 52/35/30 59/34/29 58/36/31 53/37/32
f 53/37/32 58/36/31 57/38/33 54/39/34
f 54/39/34 57/38/33 56/40/35 55/41/36
f 55/41/36 56/40/35 13/42/37 14/43/38
f 64/3/3 73/6/6 72/44/39 63/26/21
f 63/26/21 72/44/39 71/45/40 62/28/23
f 62/28/23 71/45/40 70/46/41 61/30/25
f 61/30/25 70/46/41 69/47/42 60/32/27
f 60/32/27 69/47/42 68/48/43 59/34/29
f 59/34/29 68/48/43 67/49/44 58/36/31
f 58/36/31 67/49/44 66/50/45 57/38/33
f 57/38/33 66/50/45 65/51/46 56/40/35
f 56/40/35 65/51/46 16/52/47 13/42/37
f 73/6/6 82/8/8 81/53/48 72/44/39
f 72/44/39 81/53/48 80/54/49 71/45/40
f 71/45/40 80/54/49 79/55/50 70/46/41
f 70/46/41 79/55/50 78/56/51 69/47/42
f 69/47/42 78/56/51 77/57/52 68/48/43
f 68/48/43 77/57/52 76/58/53 67/49/44
f 67/49/44 76/58/53 75/59/54 66/50/45
f 66/50/45 75/59/54 74/60/55 65/51/46
f 65/51/46 74/60/55 15/61/56 16/52/47
f 82/8/8 91/10/10 90/62/57 81/53/48
f 81/53/48 90/62/57 89/63/58 80/54/49
f 80/54/49 89/63/58 88/64/59 79/55/50
f 79/55/50 88/64/59 87/65/60 78/56/51
f 78/56/51 87/65/60 86/66/61 77/57/52
f 77/57/52 86/66/61 85/67/62 76/58/53
f 76/58/53 85/67/62 84/68/63 75/59/54
f 75/59/54 84/68/63 83/69/64 74/60/55
f 74/60/55 83/69/64 12/70/65 15/61/56
f 91/10/10 100/12/12 99/71/66 90/62/57
f 90/62/57 99/71/66 98/72/67 89/63/58
f 89/63/58 98/72/67 97/73/11 88/64/59
f 88/64/59 97/73/11 96/74/68 87/65/60
f 87/65/60 96/74/68 95/75/69 86/66/61
f 86/66/61 95/75/69 94/76/70 85/67/62
f 85/67/62 94/76/70 93/77/71 84/68/63
f 84/68/63 93/77/71 92/78/72 83/69/64
f 83/69/64 92/78/72 11/79/73 12/70/65
f 136/12/12 145/10/14 144/62/74 135/71/66
f 135/71/66 144/62/74 143/63/75 134/72/67
f 134/72/67 143/63/75 142/64/76 133/73/11
f 133/73/11 142/64/76 141/65/77 132/74/68
f 132/74/68 141/65/77 140/66/78 131/75/69
f 131/75/69 140/66/78 139/67/79 130/76/70
f 130/76/70 139/67/79 138/68/80 129/77/71
f 129/77/71 138/68/80 137/69/81 128/78/72
f 128/78/72 137/69/81 3/70/82 2/79/73
f 145/10/14 154/8/16 153/53/83 144/62/74
f 144/62/74 153/53/83 152/54/84 143/63/75
f 143/63/75 152/54/84 151/55/85 142/64/76
f 142/64/76 151/55/85 150/56/86 141/65/77
f 141/65/77 150/56/86 149/57/87 140/66/78
f 140/66/78 149/57/87 148/58/88 139/67/79
f 139/67/79 148/58/88 147/59/89 138/68/80
f 138/68/80 147/59/89 146/60/90 137/69/81
f 137/69/81 146/60/90 6/61/91 3/70/82
f 154/8/16 163/6/18 162/44/92 153/53/83
f 153/53/83 162/44/92 161/45/93 152/54/84
f 152/54/84 161/45/93 160/46/94 151/55/85
f 151/55/85 160/46/94 159/47/95 150/56/86
f 150/56/86 159/47/95 158/48/96 149/57/87
f 149/57/87 158/48/96 157/49/97 148/58/88
f 148/58/88 157/49/97 156/50/98 147/59/89
f 147/59/89 156/50/98 155/51/99 146/60/90
f 146/60/90 155/51/99 7/52/100 6/61/91
f 163/6/18 172/3/20 171/26/101 162/44/92
f 162/44/92 171/26/101 170/28/102 161/45/93
f 161/45/93 170/28/102 169/30/103 160/46/94
f 160/46/94 169/30/103 168/32/104 159/47/95
f 159/47/95 168/32/104 167/34/105 158/48/96
f 158/48/96 167/34/105 166/36/106 157/49/97
f 157/49/97 166/36/106 165/38/107 156/50/98
f 156/50/98 165/38/107 164/40/108 155/51/99
f 155/51/99 164/40/108 4/42/109 7/52/100
f 172/3/20 181/25/4 180/128/22 171/26/101
f 171/26/101 180/128/22 179/129/24 170/28/102
f 170/28/102 179/129/24 178/130/26 169/30/103
f 169/30/103 178/130/26 177/131/28 168/32/104
f 168/32/104 177/131/28 176/132/30 167/34/105
f 167/34/105 176/132/30 175/133/32 166/36/106
f 166/36/106 175/133/32 174/134/34 165/38/107
f 165/38/107 174/134/34 173/41/36 164/40/108
f 164/40/108 173/41/36 5/43/38 4/42/109
usemtl cte_ground_kd1_line01
f 43/135/11 42/136/11 199/137/12 182/138/12
f 182/138/12 199/137/12 198/139/110 183/140/110
f 183/140/110 198/139/110 197/141/67 184/142/67
f 184/142/67 197/141/67 196/143/11 185/144/11
f 185/144/11 196/143/11 195/145/111 186/146/111
f 186/146/111 195/145/111 194/147/112 187/148/112
f 187/148/112 194/147/112 193/149/70 188/150/70
f 188/150/70 193/149/70 192/151/71 189/152/71
f 189/152/71 192/151/71 191/153/113 190/154/113
f 190/154/113 191/153/113 20/155/73 19/156/73
f 45/157/11 44/158/11 217/159/12 200/160/12
f 200/160/12 217/159/12 216/161/110 201/162/110
f 201/162/110 216/161/110 215/163/67 202/164/67
f 202/164/67 215/163/67 214/165/11 203/166/11
f 203/166/11 214/165/11 213/167/111 204/168/111
f 204/168/111 213/167/111 212/169/112 205/170/112
f 205/170/112 212/169/112 211/171/70 206/172/70
f 206/172/70 211/171/70 210/173/71 207/174/71
f 207/174/71 210/173/71 209/175/113 208/176/113
f 208/176/113 209/175/113 22/177/73 21/178/73
f 32/179/11 31/180/11 235/181/114 218/182/114
f 218/182/114 235/181/114 234/183/110 219/184/110
f 219/184/110 234/183/110 233/185/115 220/186/115
f 220/186/115 233/185/115 232/187/116 221/188/116
f 221/188/116 232/187/116 231/189/111 222/190/111
f 222/190/111 231/189/111 230/191/112 223/192/112
f 223/192/112 230/191/112 229/193/117 224/194/117
f 224/194/117 229/193/117 228/195/71 225/196/71
f 225/196/71 228/195/71 227/197/113 226/198/113
f 226/198/113 227/197/113 9/199/73 8/200/73
f 40/180/11 41/179/11 244/201/114 245/202/114
f 245/202/114 244/201/114 243/203/110 246/204/110
f 246/204/110 243/203/110 242/205/115 247/206/115
f 247/206/115 242/205/115 241/207/116 248/208/116
f 248/208/116 241/207/116 240/209/111 249/210/111
f 249/210/111 240/209/111 239/211/112 250/212/112
f 250/212/112 239/211/112 238/213/117 251/214/117
f 251/214/117 238/213/117 237/215/71 252/195/71
f 252/195/71 237/215/71 236/216/113 253/217/113
f 253/217/113 236/216/113 17/200/73 18/199/73
