# Blender 4.0.0
# www.blender.org
mtllib Slope_O.LOD2.mtl
o SlopeBase_O.LOD2
v 1.000000 -0.000000 -2.000000
v -1.000000 0.765367 -1.847759
v -1.000000 1.414214 -1.414214
v -1.000000 1.847759 -0.765367
v -1.000000 2.000000 0.000000
v -1.000000 0.000000 -2.000000
v 1.000000 2.000000 0.000000
v 1.000000 1.847759 -0.765367
v 1.000000 1.414214 -1.414214
v 1.000000 0.765367 -1.847759
v -1.000000 -0.000000 0.000000
v 1.000000 -0.000000 0.000000
vn -1.0000 -0.0000 -0.0000
vn 1.0000 -0.0000 -0.0000
vn -0.0000 -0.0000 1.0000
vn -0.0000 -1.0000 -0.0000
vt 0.000000 0.000000
s 1
g SlopeBase_O.LOD2_Material.006
usemtl Material.006
f 6/1/1 11/1/1 5/1/1 4/1/1 3/1/1 2/1/1
f 7/1/2 12/1/2 1/1/2 10/1/2 9/1/2 8/1/2
f 11/1/3 12/1/3 7/1/3 5/1/3
f 11/1/4 6/1/4 1/1/4 12/1/4
o Slope_O.LOD2
v 1.000000 -0.000000 -2.000000
v -1.000000 0.765367 -1.847759
v -1.000000 1.414214 -1.414214
v -1.000000 1.847759 -0.765367
v -1.000000 2.000000 0.000000
v -1.000000 0.000000 -2.000000
v 1.000000 2.000000 0.000000
v 1.000000 1.847759 -0.765367
v 1.000000 1.414214 -1.414214
v 1.000000 0.765367 -1.847759
vn -0.0000 0.9239 -0.3827
vn -0.0000 1.0000 -0.0000
vn -0.0000 0.7071 -0.7071
vn -0.0000 0.3827 -0.9239
vn -0.0000 -0.0000 -1.0000
vt 0.000000 0.000000
s 1
g Slope_O.LOD2_Material.007
usemtl Material.007
f 20/2/5 16/2/5 17/2/6 19/2/6
f 15/2/7 16/2/5 20/2/5 21/2/7
f 22/2/8 14/2/8 15/2/7 21/2/7
f 13/2/9 18/2/9 14/2/8 22/2/8
