# Blender 4.0.0
# www.blender.org
mtllib Slope_O.LOD0.mtl
o SlopeBase_O.LOD0
v 1.000000 -0.000000 -2.000000
v -1.000000 0.196034 -1.990370
v -1.000000 0.390181 -1.961571
v -1.000000 0.580569 -1.913881
v -1.000000 0.765367 -1.847759
v -1.000000 0.942794 -1.763843
v -1.000000 1.111141 -1.662939
v -1.000000 1.268787 -1.546021
v -1.000000 1.414214 -1.414214
v -1.000000 1.546021 -1.268787
v -1.000000 1.662940 -1.111141
v -1.000000 1.763843 -0.942794
v -1.000000 1.847759 -0.765367
v -1.000000 1.913881 -0.580569
v -1.000000 1.961571 -0.390181
v -1.000000 1.990370 -0.196034
v -1.000000 2.000000 0.000000
v -1.000000 0.000000 -2.000000
v 1.000000 2.000000 0.000000
v 1.000000 1.990370 -0.196034
v 1.000000 1.961571 -0.390181
v 1.000000 1.913881 -0.580569
v 1.000000 1.847759 -0.765367
v 1.000000 1.763843 -0.942794
v 1.000000 1.662939 -1.111141
v 1.000000 1.546021 -1.268787
v 1.000000 1.414214 -1.414214
v 1.000000 1.268787 -1.546021
v 1.000000 1.111141 -1.662939
v 1.000000 0.942794 -1.763843
v 1.000000 0.765367 -1.847759
v 1.000000 0.580569 -1.913881
v 1.000000 0.390181 -1.961571
v 1.000000 0.196034 -1.990370
v -1.000000 -0.000000 0.000000
v 1.000000 -0.000000 0.000000
vn -1.0000 -0.0000 -0.0000
vn 1.0000 -0.0000 -0.0000
vn -0.0000 -0.0000 1.0000
vn -0.0000 -1.0000 -0.0000
vt 0.000000 0.000000
s 1
g SlopeBase_O.LOD0_Material.002
usemtl Material.002
f 18/1/1 35/1/1 17/1/1 16/1/1 15/1/1 14/1/1 13/1/1 12/1/1 11/1/1 10/1/1 9/1/1 8/1/1 7/1/1 6/1/1 5/1/1 4/1/1 3/1/1 2/1/1
f 20/1/2 19/1/2 36/1/2 1/1/2 34/1/2 33/1/2 32/1/2 31/1/2 30/1/2 29/1/2 28/1/2 27/1/2 26/1/2 25/1/2 24/1/2 23/1/2 22/1/2 21/1/2
f 35/1/3 36/1/3 19/1/3 17/1/3
f 35/1/4 18/1/4 1/1/4 36/1/4
o Slope_O.LOD0
v 1.000000 -0.000000 -2.000000
v -1.000000 0.196034 -1.990370
v -1.000000 0.390181 -1.961571
v -1.000000 0.580569 -1.913881
v -1.000000 0.765367 -1.847759
v -1.000000 0.942794 -1.763843
v -1.000000 1.111141 -1.662939
v -1.000000 1.268787 -1.546021
v -1.000000 1.414214 -1.414214
v -1.000000 1.546021 -1.268787
v -1.000000 1.662940 -1.111141
v -1.000000 1.763843 -0.942794
v -1.000000 1.847759 -0.765367
v -1.000000 1.913881 -0.580569
v -1.000000 1.961571 -0.390181
v -1.000000 1.990370 -0.196034
v -1.000000 2.000000 0.000000
v -1.000000 0.000000 -2.000000
v 1.000000 2.000000 0.000000
v 1.000000 1.990370 -0.196034
v 1.000000 1.961571 -0.390181
v 1.000000 1.913881 -0.580569
v 1.000000 1.847759 -0.765367
v 1.000000 1.763843 -0.942794
v 1.000000 1.662939 -1.111141
v 1.000000 1.546021 -1.268787
v 1.000000 1.414214 -1.414214
v 1.000000 1.268787 -1.546021
v 1.000000 1.111141 -1.662939
v 1.000000 0.942794 -1.763843
v 1.000000 0.765367 -1.847759
v 1.000000 0.580569 -1.913881
v 1.000000 0.390181 -1.961571
v 1.000000 0.196034 -1.990370
vn -0.0000 0.5556 -0.8315
vn -0.0000 0.6344 -0.7730
vn -0.0000 0.9569 -0.2903
vn -0.0000 0.9808 -0.1951
vn -0.0000 0.4714 -0.8819
vn -0.0000 0.9239 -0.3827
vn -0.0000 0.3827 -0.9239
vn -0.0000 0.8819 -0.4714
vn -0.0000 0.2903 -0.9569
vn -0.0000 0.8315 -0.5556
vn -0.0000 0.1951 -0.9808
vn -0.0000 0.7730 -0.6344
vn -0.0000 0.0980 -0.9952
vn -0.0000 0.7071 -0.7071
vn -0.0000 0.9952 -0.0980
vn -0.0000 1.0000 -0.0000
vn -0.0000 -0.0000 -1.0000
vt 0.000000 0.000000
s 1
g Slope_O.LOD0_Material.001
usemtl Material.001
f 65/2/5 43/2/5 44/2/6 64/2/6
f 58/2/7 50/2/7 51/2/8 57/2/8
f 66/2/9 42/2/9 43/2/5 65/2/5
f 59/2/10 49/2/10 50/2/7 58/2/7
f 67/2/11 41/2/11 42/2/9 66/2/9
f 60/2/12 48/2/12 49/2/10 59/2/10
f 68/2/13 40/2/13 41/2/11 67/2/11
f 61/2/14 47/2/14 48/2/12 60/2/12
f 69/2/15 39/2/15 40/2/13 68/2/13
f 62/2/16 46/2/16 47/2/14 61/2/14
f 70/2/17 38/2/17 39/2/15 69/2/15
f 63/2/18 45/2/18 46/2/16 62/2/16
f 56/2/19 52/2/19 53/2/20 55/2/20
f 37/2/21 54/2/21 38/2/17 70/2/17
f 64/2/6 44/2/6 45/2/18 63/2/18
f 57/2/8 51/2/8 52/2/19 56/2/19
