# Blender 4.0.0
# www.blender.org
mtllib Slope_I.LOD4.mtl
o Slope.LOD4
v 1.000000 2.000000 0.000000
v -1.000000 -0.000000 -2.000000
v 1.000000 -0.000001 -2.000000
v -1.000000 2.000000 0.000000
vn -0.0000 -0.0000 -1.0000
vn -0.0000 1.0000 -0.0000
vt 0.000000 0.000000
s 1
g Slope.LOD4_Material.001
usemtl Material.001
f 4/1/1 1/1/1 3/1/2 2/1/2
o SlopeBase.LOD4
v 1.000000 2.000000 0.200000
v 1.000000 -0.200000 -2.000000
v -1.000000 2.000000 0.000000
v -1.000000 2.000000 0.200000
v -1.000000 -0.200001 -2.000000
v 1.000000 -0.200000 0.200000
v -1.000000 -0.200001 0.200000
v -1.000000 -0.000001 -2.000000
v 1.000000 2.000000 0.000000
v 1.000000 -0.000000 -2.000000
vn -0.0000 -0.0000 -1.0000
vn -0.0000 1.0000 -0.0000
vn -0.0000 -0.0000 1.0000
vn -1.0000 -0.0000 -0.0000
vn -0.0000 -1.0000 -0.0000
vn 1.0000 -0.0000 -0.0000
vt 0.000000 0.000000
s 0
g SlopeBase.LOD4_Material.002
usemtl Material.002
f 14/2/3 6/2/3 9/2/3 12/2/3
f 13/2/4 7/2/4 8/2/4 5/2/4
f 8/2/5 11/2/5 10/2/5 5/2/5
f 8/2/6 7/2/6 12/2/6 9/2/6 11/2/6
f 9/2/7 6/2/7 10/2/7 11/2/7
f 14/2/8 13/2/8 5/2/8 10/2/8 6/2/8
