# Blender 4.0.0
# www.blender.org
mtllib Slope_O.LOD3.mtl
o SlopeBase_O.LOD3
v 1.000000 -0.000000 -2.000000
v -1.000000 1.414214 -1.414214
v -1.000000 2.000000 0.000000
v -1.000000 0.000000 -2.000000
v 1.000000 2.000000 0.000000
v 1.000000 1.414214 -1.414214
v -1.000000 -0.000000 0.000000
v 1.000000 -0.000000 0.000000
vn -1.0000 -0.0000 -0.0000
vn 1.0000 -0.0000 -0.0000
vn -0.0000 -0.0000 1.0000
vn -0.0000 -1.0000 -0.0000
vt 0.000000 0.000000
s 1
g SlopeBase_O.LOD3_Material.008
usemtl Material.008
f 4/1/1 7/1/1 3/1/1 2/1/1
f 5/1/2 8/1/2 1/1/2 6/1/2
f 7/1/3 8/1/3 5/1/3 3/1/3
f 7/1/4 4/1/4 1/1/4 8/1/4
o Slope_O.LOD3
v 1.000000 -0.000000 -2.000000
v -1.000000 1.414214 -1.414214
v -1.000000 2.000000 0.000000
v -1.000000 0.000000 -2.000000
v 1.000000 2.000000 0.000000
v 1.000000 1.414214 -1.414214
vn -0.0000 0.7071 -0.7071
vn -0.0000 1.0000 -0.0000
vn -0.0000 -0.0000 -1.0000
vt 0.000000 0.000000
s 1
g Slope_O.LOD3_Material.009
usemtl Material.009
f 10/2/5 11/2/6 13/2/6 14/2/5
f 9/2/7 12/2/7 10/2/5 14/2/5
