# Blender 4.1.0
# www.blender.org
mtllib Slope_I_Corner.LOD0.mtl
o Slope.LOD0.002
v -1.000000 2.000000 -1.000000
v 1.000000 -0.000000 -1.000000
v -0.990370 1.803966 -1.000000
v -0.961571 1.609819 -1.000000
v -0.913881 1.419431 -1.000000
v -0.847759 1.234633 -1.000000
v -0.763843 1.057207 -1.000000
v -0.662939 0.888859 -1.000000
v -0.546021 0.731213 -1.000000
v -0.414214 0.585786 -1.000000
v -0.268787 0.453979 -1.000000
v -0.111141 0.337061 -1.000000
v 0.057207 0.236157 -1.000000
v 0.234633 0.152241 -1.000000
v 0.419431 0.086119 -1.000000
v 0.609819 0.038429 -1.000000
v 0.803966 0.009630 -1.000000
v 1.000000 -0.000000 -1.000000
v 1.000000 2.000000 1.000000
v 1.000000 1.803966 0.990370
v 1.000000 1.609819 0.961571
v 1.000000 1.419430 0.913881
v 1.000000 1.234633 0.847759
v 1.000000 1.057206 0.763843
v 1.000000 0.888859 0.662939
v 1.000000 0.731213 0.546021
v 1.000000 0.585786 0.414214
v 1.000000 0.453979 0.268787
v 1.000000 0.337061 0.111140
v 1.000000 0.236157 -0.057206
v 1.000000 0.152241 -0.234633
v 1.000000 0.086119 -0.419430
v 1.000000 0.038429 -0.609819
v 1.000000 0.009630 -0.803966
v 1.000172 -0.000000 -0.998317
v 0.999894 -0.000000 -1.000001
v 0.999604 -0.000000 -1.001011
v 0.999936 -0.000000 -1.000717
v 1.000717 -0.000000 -0.999935
v 1.001011 -0.000000 -0.999603
v 1.000002 -0.000000 -0.999893
v 0.998317 -0.000000 -1.000172
v 0.807272 0.009630 -0.963407
v 0.816159 0.009630 -0.931657
v 0.830434 0.009630 -0.901960
v 0.850066 0.009630 -0.874351
v 0.874352 0.009630 -0.850065
v 0.901960 0.009630 -0.830434
v 0.931657 0.009630 -0.816159
v 0.963407 0.009630 -0.807272
v 0.616229 0.038429 -0.928833
v 0.634193 0.038429 -0.863970
v 0.662894 0.038429 -0.803863
v 0.701638 0.038429 -0.749203
v 0.749203 0.038429 -0.701638
v 0.803863 0.038429 -0.662894
v 0.863971 0.038429 -0.634193
v 0.928832 0.038429 -0.616229
v 0.428883 0.086119 -0.894927
v 0.455750 0.086119 -0.797594
v 0.498596 0.086119 -0.707664
v 0.556084 0.086119 -0.626476
v 0.626477 0.086119 -0.556083
v 0.707665 0.086119 -0.498596
v 0.797595 0.086119 -0.455750
v 0.894927 0.086119 -0.428883
v 0.247040 0.152241 -0.862018
v 0.282547 0.152241 -0.733168
v 0.339123 0.152241 -0.614291
v 0.414804 0.152241 -0.507354
v 0.507354 0.152241 -0.414803
v 0.614292 0.152241 -0.339123
v 0.733168 0.152241 -0.282546
v 0.862018 0.152241 -0.247039
v 0.072450 0.236158 -0.830421
v 0.116252 0.236157 -0.671311
v 0.186011 0.236157 -0.524642
v 0.279159 0.236157 -0.392983
v 0.392984 0.236157 -0.279158
v 0.524642 0.236157 -0.186011
v 0.671311 0.236157 -0.116252
v 0.830421 0.236157 -0.072449
v -0.093206 0.337061 -0.800441
v -0.041533 0.337061 -0.612619
v 0.040735 0.337061 -0.439581
v 0.150455 0.337061 -0.284465
v 0.284466 0.337061 -0.150455
v 0.439581 0.337061 -0.040735
v 0.612619 0.337061 0.041533
v 0.800441 0.337061 0.093206
v -0.248333 0.453979 -0.772367
v -0.189288 0.453979 -0.557659
v -0.095307 0.453979 -0.359926
v 0.029933 0.453979 -0.182845
v 0.182845 0.453979 -0.029933
v 0.359926 0.453979 0.095308
v 0.557658 0.453979 0.189288
v 0.772366 0.453979 0.248333
v -0.391435 0.585786 -0.746469
v -0.325591 0.585786 -0.506958
v -0.220805 0.585786 -0.286446
v -0.081248 0.585786 -0.089102
v 0.089102 0.585786 0.081248
v 0.286446 0.585786 0.220805
v 0.506958 0.585786 0.325591
v 0.746468 0.585786 0.391435
v -0.521136 0.731213 -0.722996
v -0.449128 0.731213 -0.461005
v -0.334549 0.731213 -0.219847
v -0.182016 0.731213 -0.004138
v 0.004137 0.731213 0.182016
v 0.219847 0.731213 0.334549
v 0.461005 0.731213 0.449129
v 0.722996 0.731213 0.521136
v -0.636185 0.888859 -0.702174
v -0.558711 0.888859 -0.420244
v -0.435445 0.888859 -0.160771
v -0.271402 0.888860 0.071229
v -0.071229 0.888859 0.271401
v 0.160771 0.888859 0.435445
v 0.420243 0.888859 0.558712
v 0.702174 0.888859 0.636185
v -0.735475 1.057207 -0.684205
v -0.653284 1.057207 -0.385065
v -0.522521 1.057206 -0.109787
v -0.348544 1.057207 0.136272
v -0.136272 1.057207 0.348543
v 0.109787 1.057207 0.522521
v 0.385065 1.057207 0.653284
v 0.684205 1.057207 0.735475
v -0.818051 1.234633 -0.669261
v -0.731935 1.234633 -0.355809
v -0.594937 1.234633 -0.067387
v -0.412699 1.234633 0.190366
v -0.190366 1.234633 0.412698
v 0.067386 1.234633 0.594937
v 0.355808 1.234633 0.731936
v 0.669261 1.234633 0.818051
v -0.883115 1.419431 -0.657486
v -0.793908 1.419431 -0.332757
v -0.651997 1.419431 -0.033977
v -0.463250 1.419431 0.232988
v -0.232989 1.419431 0.463249
v 0.033976 1.419431 0.651997
v 0.332756 1.419431 0.793909
v 0.657485 1.419430 0.883116
v -0.930043 1.609820 -0.648993
v -0.838606 1.609820 -0.316131
v -0.693152 1.609819 -0.009881
v -0.499709 1.609820 0.263730
v -0.263730 1.609819 0.499709
v 0.009880 1.609820 0.693151
v 0.316130 1.609820 0.838606
v 0.648993 1.609819 0.930043
v -0.958382 1.803966 -0.643864
v -0.865598 1.803966 -0.306090
v -0.718004 1.803966 0.004670
v -0.521727 1.803966 0.282294
v -0.282294 1.803966 0.521726
v -0.004671 1.803966 0.718004
v 0.306089 1.803966 0.865598
v 0.643864 1.803966 0.958381
v 0.642149 2.000000 0.967858
v 0.302732 2.000000 0.874625
v -0.009538 2.000000 0.726315
v -0.288502 2.000000 0.529088
v -0.529089 2.000000 0.288502
v -0.726315 2.000000 0.009537
v -0.874624 2.000000 -0.302733
v -0.967858 2.000000 -0.642149
vn 0.0404 0.0488 -0.9980
vn 0.0890 0.0974 -0.9913
vn 0.1770 0.0977 -0.9793
vn 0.2239 0.0488 -0.9734
vn 0.0878 0.1938 -0.9771
vn 0.1745 0.1946 -0.9652
vn 0.0857 0.2884 -0.9537
vn 0.1703 0.2895 -0.9419
vn 0.0827 0.3804 -0.9211
vn 0.1644 0.3817 -0.9095
vn 0.0790 0.4688 -0.8798
vn 0.1570 0.4703 -0.8685
vn 0.0746 0.5527 -0.8300
vn 0.1481 0.5543 -0.8190
vn 0.0694 0.6315 -0.7723
vn 0.1378 0.6330 -0.7618
vn 0.0635 0.7043 -0.7071
vn 0.1261 0.7057 -0.6972
vn 0.0571 0.7704 -0.6350
vn 0.1132 0.7717 -0.6259
vn 0.0500 0.8291 -0.5568
vn 0.0993 0.8302 -0.5486
vn 0.0425 0.8800 -0.4731
vn 0.0844 0.8808 -0.4660
vn 0.0346 0.9223 -0.3848
vn 0.0687 0.9229 -0.3789
vn 0.0263 0.9558 -0.2927
vn 0.0523 0.9562 -0.2881
vn 0.0178 0.9801 -0.1977
vn 0.0354 0.9802 -0.1946
vn 0.0091 0.9949 -0.1008
vn 0.0182 0.9949 -0.0992
vn -0.0443 0.9976 -0.0540
vn 0.0573 0.9976 -0.0402
vn 0.0651 0.9974 -0.0320
vn 0.0355 0.9949 -0.0942
vn -0.0068 0.9969 -0.0784
vn 0.0512 0.9949 -0.0867
vn -0.0028 0.9974 -0.0719
vn 0.0649 0.9949 -0.0768
vn 0.0004 0.9979 -0.0645
vn 0.0768 0.9949 -0.0650
vn 0.0553 0.9982 0.0214
vn 0.0867 0.9949 -0.0512
vn 0.0537 0.9981 0.0306
vn 0.0943 0.9949 -0.0355
vn 0.0432 0.9974 -0.0577
vn 0.0992 0.9949 -0.0182
vn 0.0540 0.9976 0.0444
vn 0.1008 0.9949 -0.0091
vn 0.0692 0.9803 -0.1852
vn 0.1001 0.9803 -0.1704
vn 0.1275 0.9803 -0.1510
vn 0.1510 0.9803 -0.1275
vn 0.1704 0.9803 -0.1001
vn 0.1852 0.9803 -0.0692
vn 0.1946 0.9802 -0.0354
vn 0.1977 0.9801 -0.0178
vn 0.1023 0.9562 -0.2743
vn 0.1481 0.9562 -0.2525
vn 0.1887 0.9562 -0.2237
vn 0.2237 0.9562 -0.1887
vn 0.2525 0.9562 -0.1481
vn 0.2743 0.9562 -0.1023
vn 0.2881 0.9562 -0.0523
vn 0.2927 0.9558 -0.0263
vn 0.1344 0.9229 -0.3608
vn 0.1946 0.9229 -0.3322
vn 0.2482 0.9229 -0.2943
vn 0.2943 0.9229 -0.2482
vn 0.3322 0.9229 -0.1946
vn 0.3608 0.9229 -0.1344
vn 0.3789 0.9229 -0.0687
vn 0.3848 0.9223 -0.0346
vn 0.1652 0.8808 -0.4438
vn 0.2393 0.8808 -0.4086
vn 0.3052 0.8808 -0.3620
vn 0.3620 0.8808 -0.3052
vn 0.4086 0.8808 -0.2393
vn 0.4438 0.8808 -0.1652
vn 0.4660 0.8808 -0.0844
vn 0.4731 0.8800 -0.0425
vn 0.1944 0.8302 -0.5225
vn 0.2817 0.8302 -0.4810
vn 0.3593 0.8302 -0.4261
vn 0.4261 0.8302 -0.3593
vn 0.4810 0.8302 -0.2817
vn 0.5225 0.8302 -0.1944
vn 0.5486 0.8302 -0.0993
vn 0.5568 0.8291 -0.0500
vn 0.2217 0.7717 -0.5961
vn 0.3213 0.7717 -0.5489
vn 0.4099 0.7717 -0.4862
vn 0.4862 0.7717 -0.4099
vn 0.5489 0.7717 -0.3213
vn 0.5961 0.7717 -0.2217
vn 0.6259 0.7717 -0.1132
vn 0.6350 0.7704 -0.0571
vn 0.2469 0.7057 -0.6641
vn 0.3579 0.7058 -0.6114
vn 0.4566 0.7058 -0.5416
vn 0.5416 0.7058 -0.4566
vn 0.6114 0.7058 -0.3579
vn 0.6641 0.7057 -0.2469
vn 0.6972 0.7057 -0.1261
vn 0.7071 0.7043 -0.0635
vn 0.2697 0.6331 -0.7256
vn 0.3910 0.6331 -0.6681
vn 0.4989 0.6331 -0.5918
vn 0.5918 0.6331 -0.4989
vn 0.6681 0.6331 -0.3910
vn 0.7256 0.6331 -0.2697
vn 0.7618 0.6330 -0.1378
vn 0.7723 0.6315 -0.0694
vn 0.2900 0.5543 -0.7802
vn 0.4204 0.5543 -0.7183
vn 0.5364 0.5543 -0.6363
vn 0.6363 0.5543 -0.5364
vn 0.7183 0.5543 -0.4204
vn 0.7802 0.5543 -0.2900
vn 0.8190 0.5543 -0.1481
vn 0.8300 0.5527 -0.0746
vn 0.3074 0.4703 -0.8273
vn 0.4457 0.4703 -0.7617
vn 0.5688 0.4703 -0.6747
vn 0.6747 0.4703 -0.5688
vn 0.7617 0.4703 -0.4457
vn 0.8273 0.4703 -0.3074
vn 0.8685 0.4703 -0.1570
vn 0.8798 0.4688 -0.0790
vn 0.3219 0.3817 -0.8664
vn 0.4668 0.3817 -0.7977
vn 0.5957 0.3817 -0.7067
vn 0.7067 0.3817 -0.5957
vn 0.7977 0.3817 -0.4668
vn 0.8664 0.3817 -0.3219
vn 0.9095 0.3817 -0.1644
vn 0.9211 0.3804 -0.0827
vn 0.3334 0.2895 -0.8972
vn 0.4834 0.2895 -0.8261
vn 0.6169 0.2895 -0.7318
vn 0.7318 0.2895 -0.6169
vn 0.8261 0.2895 -0.4834
vn 0.8972 0.2895 -0.3334
vn 0.9419 0.2895 -0.1703
vn 0.9537 0.2884 -0.0857
vn 0.3416 0.1946 -0.9195
vn 0.4954 0.1946 -0.8466
vn 0.6322 0.1946 -0.7500
vn 0.7500 0.1946 -0.6322
vn 0.8466 0.1946 -0.4954
vn 0.9195 0.1946 -0.3416
vn 0.9652 0.1946 -0.1745
vn 0.9771 0.1938 -0.0878
vn 0.3466 0.0978 -0.9329
vn 0.5026 0.0978 -0.8590
vn 0.6414 0.0978 -0.7609
vn 0.7609 0.0978 -0.6414
vn 0.8590 0.0978 -0.5026
vn 0.9329 0.0978 -0.3466
vn 0.9793 0.0977 -0.1770
vn 0.9913 0.0974 -0.0890
vn 0.3918 0.0488 -0.9188
vn 0.5447 0.0488 -0.8372
vn 0.6792 0.0488 -0.7323
vn 0.7933 0.0488 -0.6069
vn 0.8850 0.0488 -0.4630
vn 0.9517 0.0488 -0.3032
vn 0.9902 0.0488 -0.1310
vn 0.9980 0.0488 -0.0404
vt 0.000000 0.000000
s 1
usemtl Material.012
f 19/1/1 20/1/2 162/1/3 163/1/4
f 20/1/2 21/1/5 154/1/6 162/1/3
f 21/1/5 22/1/7 146/1/8 154/1/6
f 22/1/7 23/1/9 138/1/10 146/1/8
f 23/1/9 24/1/11 130/1/12 138/1/10
f 24/1/11 25/1/13 122/1/14 130/1/12
f 25/1/13 26/1/15 114/1/16 122/1/14
f 26/1/15 27/1/17 106/1/18 114/1/16
f 27/1/17 28/1/19 98/1/20 106/1/18
f 28/1/19 29/1/21 90/1/22 98/1/20
f 29/1/21 30/1/23 82/1/24 90/1/22
f 30/1/23 31/1/25 74/1/26 82/1/24
f 31/1/25 32/1/27 66/1/28 74/1/26
f 32/1/27 33/1/29 58/1/30 66/1/28
f 33/1/29 34/1/31 50/1/32 58/1/30
f 34/1/31 18/1/33 42/1/34 50/1/32
f 50/1/32 42/1/34 41/1/35 49/1/36
f 49/1/36 41/1/35 40/1/37 48/1/38
f 48/1/38 40/1/37 39/1/39 47/1/40
f 47/1/40 39/1/39 38/1/41 46/1/42
f 46/1/42 38/1/41 37/1/43 45/1/44
f 45/1/44 37/1/43 36/1/45 44/1/46
f 44/1/46 36/1/45 35/1/47 43/1/48
f 43/1/48 35/1/47 2/1/49 17/1/50
f 58/1/30 50/1/32 49/1/36 57/1/51
f 57/1/51 49/1/36 48/1/38 56/1/52
f 56/1/52 48/1/38 47/1/40 55/1/53
f 55/1/53 47/1/40 46/1/42 54/1/54
f 54/1/54 46/1/42 45/1/44 53/1/55
f 53/1/55 45/1/44 44/1/46 52/1/56
f 52/1/56 44/1/46 43/1/48 51/1/57
f 51/1/57 43/1/48 17/1/50 16/1/58
f 66/1/28 58/1/30 57/1/51 65/1/59
f 65/1/59 57/1/51 56/1/52 64/1/60
f 64/1/60 56/1/52 55/1/53 63/1/61
f 63/1/61 55/1/53 54/1/54 62/1/62
f 62/1/62 54/1/54 53/1/55 61/1/63
f 61/1/63 53/1/55 52/1/56 60/1/64
f 60/1/64 52/1/56 51/1/57 59/1/65
f 59/1/65 51/1/57 16/1/58 15/1/66
f 74/1/26 66/1/28 65/1/59 73/1/67
f 73/1/67 65/1/59 64/1/60 72/1/68
f 72/1/68 64/1/60 63/1/61 71/1/69
f 71/1/69 63/1/61 62/1/62 70/1/70
f 70/1/70 62/1/62 61/1/63 69/1/71
f 69/1/71 61/1/63 60/1/64 68/1/72
f 68/1/72 60/1/64 59/1/65 67/1/73
f 67/1/73 59/1/65 15/1/66 14/1/74
f 82/1/24 74/1/26 73/1/67 81/1/75
f 81/1/75 73/1/67 72/1/68 80/1/76
f 80/1/76 72/1/68 71/1/69 79/1/77
f 79/1/77 71/1/69 70/1/70 78/1/78
f 78/1/78 70/1/70 69/1/71 77/1/79
f 77/1/79 69/1/71 68/1/72 76/1/80
f 76/1/80 68/1/72 67/1/73 75/1/81
f 75/1/81 67/1/73 14/1/74 13/1/82
f 90/1/22 82/1/24 81/1/75 89/1/83
f 89/1/83 81/1/75 80/1/76 88/1/84
f 88/1/84 80/1/76 79/1/77 87/1/85
f 87/1/85 79/1/77 78/1/78 86/1/86
f 86/1/86 78/1/78 77/1/79 85/1/87
f 85/1/87 77/1/79 76/1/80 84/1/88
f 84/1/88 76/1/80 75/1/81 83/1/89
f 83/1/89 75/1/81 13/1/82 12/1/90
f 98/1/20 90/1/22 89/1/83 97/1/91
f 97/1/91 89/1/83 88/1/84 96/1/92
f 96/1/92 88/1/84 87/1/85 95/1/93
f 95/1/93 87/1/85 86/1/86 94/1/94
f 94/1/94 86/1/86 85/1/87 93/1/95
f 93/1/95 85/1/87 84/1/88 92/1/96
f 92/1/96 84/1/88 83/1/89 91/1/97
f 91/1/97 83/1/89 12/1/90 11/1/98
f 106/1/18 98/1/20 97/1/91 105/1/99
f 105/1/99 97/1/91 96/1/92 104/1/100
f 104/1/100 96/1/92 95/1/93 103/1/101
f 103/1/101 95/1/93 94/1/94 102/1/102
f 102/1/102 94/1/94 93/1/95 101/1/103
f 101/1/103 93/1/95 92/1/96 100/1/104
f 100/1/104 92/1/96 91/1/97 99/1/105
f 99/1/105 91/1/97 11/1/98 10/1/106
f 114/1/16 106/1/18 105/1/99 113/1/107
f 113/1/107 105/1/99 104/1/100 112/1/108
f 112/1/108 104/1/100 103/1/101 111/1/109
f 111/1/109 103/1/101 102/1/102 110/1/110
f 110/1/110 102/1/102 101/1/103 109/1/111
f 109/1/111 101/1/103 100/1/104 108/1/112
f 108/1/112 100/1/104 99/1/105 107/1/113
f 107/1/113 99/1/105 10/1/106 9/1/114
f 122/1/14 114/1/16 113/1/107 121/1/115
f 121/1/115 113/1/107 112/1/108 120/1/116
f 120/1/116 112/1/108 111/1/109 119/1/117
f 119/1/117 111/1/109 110/1/110 118/1/118
f 118/1/118 110/1/110 109/1/111 117/1/119
f 117/1/119 109/1/111 108/1/112 116/1/120
f 116/1/120 108/1/112 107/1/113 115/1/121
f 115/1/121 107/1/113 9/1/114 8/1/122
f 130/1/12 122/1/14 121/1/115 129/1/123
f 129/1/123 121/1/115 120/1/116 128/1/124
f 128/1/124 120/1/116 119/1/117 127/1/125
f 127/1/125 119/1/117 118/1/118 126/1/126
f 126/1/126 118/1/118 117/1/119 125/1/127
f 125/1/127 117/1/119 116/1/120 124/1/128
f 124/1/128 116/1/120 115/1/121 123/1/129
f 123/1/129 115/1/121 8/1/122 7/1/130
f 138/1/10 130/1/12 129/1/123 137/1/131
f 137/1/131 129/1/123 128/1/124 136/1/132
f 136/1/132 128/1/124 127/1/125 135/1/133
f 135/1/133 127/1/125 126/1/126 134/1/134
f 134/1/134 126/1/126 125/1/127 133/1/135
f 133/1/135 125/1/127 124/1/128 132/1/136
f 132/1/136 124/1/128 123/1/129 131/1/137
f 131/1/137 123/1/129 7/1/130 6/1/138
f 146/1/8 138/1/10 137/1/131 145/1/139
f 145/1/139 137/1/131 136/1/132 144/1/140
f 144/1/140 136/1/132 135/1/133 143/1/141
f 143/1/141 135/1/133 134/1/134 142/1/142
f 142/1/142 134/1/134 133/1/135 141/1/143
f 141/1/143 133/1/135 132/1/136 140/1/144
f 140/1/144 132/1/136 131/1/137 139/1/145
f 139/1/145 131/1/137 6/1/138 5/1/146
f 154/1/6 146/1/8 145/1/139 153/1/147
f 153/1/147 145/1/139 144/1/140 152/1/148
f 152/1/148 144/1/140 143/1/141 151/1/149
f 151/1/149 143/1/141 142/1/142 150/1/150
f 150/1/150 142/1/142 141/1/143 149/1/151
f 149/1/151 141/1/143 140/1/144 148/1/152
f 148/1/152 140/1/144 139/1/145 147/1/153
f 147/1/153 139/1/145 5/1/146 4/1/154
f 162/1/3 154/1/6 153/1/147 161/1/155
f 161/1/155 153/1/147 152/1/148 160/1/156
f 160/1/156 152/1/148 151/1/149 159/1/157
f 159/1/157 151/1/149 150/1/150 158/1/158
f 158/1/158 150/1/150 149/1/151 157/1/159
f 157/1/159 149/1/151 148/1/152 156/1/160
f 156/1/160 148/1/152 147/1/153 155/1/161
f 155/1/161 147/1/153 4/1/154 3/1/162
f 163/1/4 162/1/3 161/1/155 164/1/163
f 164/1/163 161/1/155 160/1/156 165/1/164
f 165/1/164 160/1/156 159/1/157 166/1/165
f 166/1/165 159/1/157 158/1/158 167/1/166
f 167/1/166 158/1/158 157/1/159 168/1/167
f 168/1/167 157/1/159 156/1/160 169/1/168
f 169/1/168 156/1/160 155/1/161 170/1/169
f 170/1/169 155/1/161 3/1/162 1/1/170
