# Blender 4.1.1
# www.blender.org
mtllib GoalRing_LOD2.mtl
o Torus.001
v 0.000000 2.500000 0.000000
v 0.433012 1.750000 0.000000
v 0.000000 1.500000 0.000000
v -0.433012 1.750000 0.000000
v 0.000000 2.165064 1.250000
v 0.433012 1.515544 0.875000
v 0.000000 1.299038 0.750000
v -0.433012 1.515544 0.875000
v 0.000000 1.250000 2.165064
v 0.433012 0.875000 1.515544
v 0.000000 0.750000 1.299038
v -0.433012 0.875000 1.515544
v 0.000000 -0.000000 2.500000
v 0.433012 -0.000000 1.750000
v 0.000000 -0.000000 1.500000
v -0.433012 -0.000000 1.750000
v 0.000000 -1.250000 2.165064
v 0.433012 -0.875000 1.515544
v 0.000000 -0.750000 1.299038
v -0.433012 -0.875000 1.515544
v 0.000000 -2.165064 1.250000
v 0.433012 -1.515544 0.875000
v 0.000000 -1.299038 0.750000
v -0.433012 -1.515544 0.875000
v 0.000000 -2.500000 -0.000000
v 0.433012 -1.750000 -0.000000
v 0.000000 -1.500000 -0.000000
v -0.433012 -1.750000 -0.000000
v 0.000000 -2.165064 -1.250000
v 0.433012 -1.515544 -0.875000
v 0.000000 -1.299038 -0.750000
v -0.433012 -1.515544 -0.875000
v 0.000000 -1.250000 -2.165064
v 0.433012 -0.875000 -1.515544
v 0.000000 -0.750000 -1.299038
v -0.433012 -0.875000 -1.515544
v 0.000000 0.000000 -2.500000
v 0.433012 0.000000 -1.750000
v 0.000000 0.000000 -1.500000
v -0.433012 0.000000 -1.750000
v 0.000000 1.250000 -2.165064
v 0.433012 0.875000 -1.515544
v 0.000000 0.750000 -1.299038
v -0.433012 0.875000 -1.515544
v 0.000000 2.165064 -1.250000
v 0.433012 1.515544 -0.875000
v 0.000000 1.299038 -0.750000
v -0.433012 1.515544 -0.875000
v 0.000000 -1.600000 1.600000
v -0.000000 -1.600000 -1.600000
v 0.000000 1.600000 1.600000
v -0.000000 1.600000 -1.600000
v 0.100000 -0.640000 1.280000
v 0.100000 -0.640000 -1.280000
v 0.100000 0.640000 1.280000
v 0.100000 0.640000 -1.280000
v -0.100000 -0.640000 -1.280000
v -0.100000 -0.640000 1.280000
v -0.100000 0.640000 -1.280000
v -0.100000 0.640000 1.280000
vn 0.8707 -0.0000 -0.4918
vn 0.8707 -0.2459 -0.4259
vn -0.0000 0.5000 0.8660
vn -0.0000 -0.0000 1.0000
vn -0.8707 -0.4259 -0.2459
vn -0.0000 0.8660 0.5000
vn -0.0000 1.0000 -0.0000
vn -0.8707 -0.4918 -0.0000
vn 0.8707 0.4918 -0.0000
vn -0.0000 -1.0000 -0.0000
vn -0.0000 -0.8660 -0.5000
vn 0.8707 0.4259 0.2459
vn 0.8707 -0.4918 -0.0000
vn 0.8707 -0.4259 -0.2459
vn -0.0000 -0.5000 -0.8660
vn 0.8707 0.2459 0.4259
vn -0.8707 -0.2459 -0.4259
vn 0.8707 0.2459 -0.4259
vn -0.0000 -0.5000 0.8660
vn -0.0000 -0.0000 -1.0000
vn -0.8707 -0.0000 -0.4918
vn -0.8707 0.4259 0.2459
vn -0.8707 0.2460 0.4259
vn 0.8707 0.4259 -0.2459
vn -0.0000 -0.8660 0.5000
vn -0.0000 0.5000 -0.8660
vn -0.8707 0.2459 -0.4259
vn -0.8707 -0.0000 0.4918
vn -0.0000 0.8660 -0.5000
vn -0.8707 0.4259 -0.2459
vn -0.8707 -0.2459 0.4259
vn -0.8707 0.4918 -0.0000
vn -0.8707 -0.4259 0.2459
vn 0.8707 -0.4259 0.2459
vn 0.8707 -0.0000 0.4918
vn 0.8707 -0.2459 0.4259
vn 1.0000 -0.0000 -0.0000
vn -1.0000 -0.0000 -0.0000
vt 0.750000 0.833333
vt 0.666667 0.833333
vt 0.666667 0.500000
vt 0.750000 0.500000
vt 0.583333 0.166667
vt 0.583333 0.500000
vt 0.500000 0.500000
vt 0.500000 0.166667
vt 0.000000 0.833333
vt 0.000000 0.500000
vt 0.083333 0.500000
vt 0.083333 0.833333
vt 0.500000 1.000000
vt 0.500000 0.833333
vt 0.583333 0.833333
vt 0.583333 1.000000
vt 0.166667 0.500000
vt 0.166667 0.833333
vt 0.583333 0.000000
vt 0.666667 0.000000
vt 0.666667 0.166667
vt 0.666667 1.000000
vt 0.833333 0.833333
vt 0.833333 0.500000
vt 0.750000 0.000000
vt 0.750000 0.166667
vt 0.083333 0.166667
vt 0.166667 0.166667
vt 0.916667 0.833333
vt 0.916667 0.500000
vt 0.750000 1.000000
vt 0.833333 1.000000
vt 0.833333 0.000000
vt 0.833333 0.166667
vt 0.250000 0.166667
vt 0.250000 0.500000
vt 1.000000 0.833333
vt 1.000000 0.500000
vt 0.916667 1.000000
vt 0.916667 0.000000
vt 0.916667 0.166667
vt 0.333333 0.166667
vt 0.333333 0.500000
vt 1.000000 0.166667
vt 1.000000 0.000000
vt 0.416667 0.166667
vt 0.416667 0.500000
vt 0.416667 1.000000
vt 0.416667 0.833333
vt 1.000000 1.000000
vt 0.000000 0.166667
vt 0.416667 0.000000
vt 0.500000 0.000000
vt 0.083333 1.000000
vt 0.166667 1.000000
vt 0.083333 0.000000
vt 0.166667 0.000000
vt 0.250000 0.833333
vt 0.250000 1.000000
vt 0.250000 0.000000
vt 0.333333 0.833333
vt 0.333333 1.000000
vt 0.333333 0.000000
vt 0.000000 1.000000
vt 0.000000 0.000000
s 1
usemtl RingMat
f 14/1/1 10/2/2 9/3/3 13/4/4
f 8/5/5 5/6/6 1/7/7 4/8/8
f 26/9/9 25/10/10 29/11/11 30/12/12
f 3/13/10 2/14/13 6/15/14 7/16/11
f 30/12/12 29/11/11 33/17/15 34/18/16
f 7/19/11 11/20/15 12/21/17 8/5/5
f 2/14/13 1/7/7 5/6/6 6/15/14
f 11/22/15 7/16/11 6/15/14 10/2/2
f 12/21/17 9/3/3 5/6/6 8/5/5
f 18/23/18 14/1/1 13/4/4 17/24/19
f 11/20/15 15/25/20 16/26/21 12/21/17
f 32/27/22 36/28/23 33/17/15 29/11/11
f 22/29/24 18/23/18 17/24/19 21/30/25
f 16/26/21 13/4/4 9/3/3 12/21/17
f 15/31/20 11/22/15 10/2/2 14/1/1
f 19/32/26 15/31/20 14/1/1 18/23/18
f 15/25/20 19/33/26 20/34/27 16/26/21
f 36/28/23 40/35/28 37/36/20 33/17/15
f 26/37/9 22/29/24 21/30/25 25/38/10
f 20/34/27 17/24/19 13/4/4 16/26/21
f 23/39/29 19/32/26 18/23/18 22/29/24
f 19/33/26 23/40/29 24/41/30 20/34/27
f 40/35/28 44/42/31 41/43/26 37/36/20
f 24/41/30 28/44/32 25/38/10 21/30/25
f 24/41/30 21/30/25 17/24/19 20/34/27
f 23/40/29 27/45/7 28/44/32 24/41/30
f 48/46/33 45/47/29 41/43/26 44/42/31
f 3/13/10 47/48/25 46/49/34 2/14/13
f 23/39/29 22/29/24 26/37/9 27/50/7
f 28/51/32 32/27/22 29/11/11 25/10/10
f 5/6/6 9/3/3 10/2/2 6/15/14
f 4/8/8 48/46/33 47/52/25 3/53/10
f 31/54/6 30/12/12 34/18/16 35/55/3
f 31/56/6 35/57/3 36/28/23 32/27/22
f 34/18/16 33/17/15 37/36/20 38/58/35
f 39/59/4 35/55/3 34/18/16 38/58/35
f 35/57/3 39/60/4 40/35/28 36/28/23
f 38/58/35 37/36/20 41/43/26 42/61/36
f 43/62/19 39/59/4 38/58/35 42/61/36
f 39/60/4 43/63/19 44/42/31 40/35/28
f 42/61/36 41/43/26 45/47/29 46/49/34
f 47/48/25 43/62/19 42/61/36 46/49/34
f 43/63/19 47/52/25 48/46/33 44/42/31
f 2/14/13 46/49/34 45/47/29 1/7/7
f 3/53/10 7/19/11 8/5/5 4/8/8
f 31/54/6 27/64/7 26/9/9 30/12/12
f 27/65/7 31/56/6 32/27/22 28/51/32
f 4/8/8 1/7/7 45/47/29 48/46/33
s 0
usemtl Void
f 49/65/37 50/45/37 52/50/37 51/64/37
usemtl Text
f 53/10/37 54/38/37 56/50/37 55/64/37
f 57/10/38 58/38/38 60/50/38 59/64/38
